M48
; DRILL file KiCad 10.0.5 date 2026-09-01T01:03:17
; FORMAT={-:-/ absolute / metric / decimal}
; #@! TF.CreationDate,2026-09-01T01:03:17-07:00
; #@! TF.GenerationSoftware,Kicad,Pcbnew,10.0.5
; #@! TF.FileFunction,Plated,1,6,PTH
FMAT,2
METRIC
; #@! TA.AperFunction,Plated,PTH,ViaDrill
T1C0.300
; #@! TA.AperFunction,Plated,PTH,ComponentDrill
T2C0.800
; #@! TA.AperFunction,Plated,PTH,ComponentDrill
T3C0.838
; #@! TA.AperFunction,Plated,PTH,ComponentDrill
T4C1.200
%
G90
G05
T1
X127.366Y-98.05
X127.688Y-101.592
X127.722Y-134.631
X128.0Y-80.247
X128.876Y-137.498
X129.41Y-79.698
X129.646Y-100.347
X129.871Y-104.122
X129.956Y-95.73
X130.073Y-87.242
X130.218Y-117.898
X130.274Y-134.179
X130.92Y-86.63
X130.92Y-104.12
X132.11Y-87.495
X132.719Y-137.932
X133.451Y-88.956
X133.46Y-87.656
X135.248Y-80.735
X135.497Y-104.119
X136.962Y-129.717
X137.25Y-83.34
X137.423Y-95.048
X137.855Y-88.818
X137.961Y-122.078
X139.123Y-111.409
X139.81Y-86.618
X139.81Y-106.135
X140.976Y-125.546
X141.08Y-87.627
X141.37Y-113.062
X143.62Y-86.632
X144.687Y-79.477
X144.85Y-100.882
X144.869Y-92.414
X144.885Y-94.066
X147.395Y-96.646
X147.578Y-99.182
X148.86Y-95.907
X148.942Y-87.369
X149.718Y-110.144
X150.206Y-100.959
X150.55Y-110.976
X151.013Y-89.977
X151.3Y-93.716
X151.623Y-86.56
X152.5Y-88.256
X152.558Y-80.818
X152.72Y-134.631
X153.139Y-84.712
X154.155Y-85.359
X155.0Y-85.0
X155.259Y-134.724
X155.287Y-128.202
X155.295Y-138.153
X155.97Y-136.362
X157.912Y-94.082
X159.394Y-82.855
X160.085Y-129.285
X161.3Y-104.084
X163.928Y-82.047
X165.275Y-133.337
X165.913Y-101.259
X166.141Y-119.89
X166.843Y-127.27
X167.219Y-83.277
X170.438Y-116.172
X172.588Y-119.302
X172.829Y-122.288
X173.28Y-83.488
X174.905Y-127.082
X177.714Y-134.922
X179.154Y-137.498
X179.288Y-135.364
X181.9Y-84.487
X185.022Y-127.252
T2
X120.11Y-106.88
X120.11Y-114.5
X122.65Y-106.88
X122.65Y-114.5
X125.19Y-106.88
X125.19Y-114.5
X127.73Y-106.88
X127.73Y-114.5
X130.27Y-106.88
X130.27Y-114.5
X132.81Y-106.88
X132.81Y-114.5
X135.35Y-106.88
X135.35Y-114.5
X137.89Y-106.88
X137.89Y-114.5
X145.11Y-106.88
X145.11Y-114.5
X147.65Y-106.88
X147.65Y-114.5
X150.19Y-106.88
X150.19Y-114.5
X152.73Y-106.88
X152.73Y-114.5
X155.27Y-106.88
X155.27Y-114.5
X157.81Y-106.88
X157.81Y-114.5
X160.35Y-106.88
X160.35Y-114.5
X162.89Y-106.88
X162.89Y-114.5
X170.11Y-106.88
X170.11Y-114.5
X172.65Y-106.88
X172.65Y-114.5
X175.19Y-106.88
X175.19Y-114.5
X177.73Y-106.88
X177.73Y-114.5
X180.27Y-106.88
X180.27Y-114.5
X182.81Y-106.88
X182.81Y-114.5
X185.35Y-106.88
X185.35Y-114.5
X187.89Y-106.88
X187.89Y-114.5
T3
X122.856Y-135.756
X123.214Y-138.695
X123.907Y-132.985
X124.895Y-141.133
X127.519Y-142.51
X129.0Y-130.313
X130.481Y-142.51
X133.105Y-141.133
X134.093Y-132.985
X134.786Y-138.695
X135.144Y-135.756
X147.856Y-135.756
X148.214Y-138.695
X148.907Y-132.985
X149.895Y-141.133
X152.519Y-142.51
X154.0Y-130.313
X155.481Y-142.51
X158.105Y-141.133
X159.093Y-132.985
X159.786Y-138.695
X160.144Y-135.756
X172.856Y-135.756
X173.214Y-138.695
X173.907Y-132.985
X174.895Y-141.133
X177.519Y-142.51
X179.0Y-130.313
X180.481Y-142.51
X183.105Y-141.133
X184.093Y-132.985
X184.786Y-138.695
X185.144Y-135.756
T4
X163.38Y-84.88
X163.38Y-92.5
X178.62Y-84.88
X178.62Y-97.58
M30
