%TF.GenerationSoftware,KiCad,Pcbnew,10.0.5*%
%TF.CreationDate,2026-09-01T00:59:53-07:00*%
%TF.ProjectId,nixie-esp32,6e697869-652d-4657-9370-33322e6b6963,rev?*%
%TF.SameCoordinates,Original*%
%TF.FileFunction,Soldermask,Top*%
%TF.FilePolarity,Negative*%
%FSLAX46Y46*%
G04 Gerber Fmt 4.6, Leading zero omitted, Abs format (unit mm)*
G04 Created by KiCad (PCBNEW 10.0.5) date 2026-09-01 00:59:53*
%MOMM*%
%LPD*%
G01*
G04 APERTURE LIST*
G04 Aperture macros list*
%AMRoundRect*
0 Rectangle with rounded corners*
0 $1 Rounding radius*
0 $2 $3 $4 $5 $6 $7 $8 $9 X,Y pos of 4 corners*
0 Add a 4 corners polygon primitive as box body*
4,1,4,$2,$3,$4,$5,$6,$7,$8,$9,$2,$3,0*
0 Add four circle primitives for the rounded corners*
1,1,$1+$1,$2,$3*
1,1,$1+$1,$4,$5*
1,1,$1+$1,$6,$7*
1,1,$1+$1,$8,$9*
0 Add four rect primitives between the rounded corners*
20,1,$1+$1,$2,$3,$4,$5,0*
20,1,$1+$1,$4,$5,$6,$7,0*
20,1,$1+$1,$6,$7,$8,$9,0*
20,1,$1+$1,$8,$9,$2,$3,0*%
G04 Aperture macros list end*
%ADD10R,1.550000X1.300000*%
%ADD11R,1.400000X0.900000*%
%ADD12C,2.700000*%
%ADD13R,2.400000X2.400000*%
%ADD14C,2.400000*%
%ADD15C,1.200000*%
%ADD16RoundRect,0.250000X-0.450000X0.262500X-0.450000X-0.262500X0.450000X-0.262500X0.450000X0.262500X0*%
%ADD17C,0.650000*%
%ADD18R,0.600000X1.150000*%
%ADD19R,0.300000X1.150000*%
%ADD20R,1.550000X1.250000*%
%ADD21R,1.550000X1.500000*%
%ADD22R,1.473200X0.558800*%
%ADD23RoundRect,0.250000X0.550000X-0.550000X0.550000X0.550000X-0.550000X0.550000X-0.550000X-0.550000X0*%
%ADD24C,1.600000*%
%ADD25R,1.750000X1.050000*%
%ADD26RoundRect,0.243750X0.456250X-0.243750X0.456250X0.243750X-0.456250X0.243750X-0.456250X-0.243750X0*%
%ADD27RoundRect,0.250000X-0.262500X-0.450000X0.262500X-0.450000X0.262500X0.450000X-0.262500X0.450000X0*%
%ADD28RoundRect,0.250000X-0.250000X-0.475000X0.250000X-0.475000X0.250000X0.475000X-0.250000X0.475000X0*%
%ADD29RoundRect,0.250000X-0.325000X-0.650000X0.325000X-0.650000X0.325000X0.650000X-0.325000X0.650000X0*%
%ADD30C,1.346200*%
G04 APERTURE END LIST*
D10*
%TO.C,SW2*%
X137250000Y-86475000D03*
X137250000Y-78525000D03*
X141750000Y-86475000D03*
X141750000Y-78525000D03*
%TD*%
D11*
%TO.C,D2*%
X126500000Y-134850000D03*
X126500000Y-138150000D03*
X131500000Y-138150000D03*
X131500000Y-134850000D03*
%TD*%
D12*
%TO.C,H1*%
X122500000Y-79500000D03*
%TD*%
D13*
%TO.C,PS1*%
X163380000Y-84880000D03*
D14*
X163380000Y-92500000D03*
X178620000Y-84880000D03*
X178620000Y-97580000D03*
%TD*%
D15*
%TO.C,TP3*%
X161300000Y-104084000D03*
%TD*%
D16*
%TO.C,R17*%
X183400000Y-83587500D03*
X183400000Y-85412500D03*
%TD*%
D17*
%TO.C,J1*%
X156000000Y-82180000D03*
X150000000Y-82180000D03*
D18*
X156200000Y-83455000D03*
X155400000Y-83455000D03*
D19*
X154250000Y-83455000D03*
X153250000Y-83455000D03*
X152750000Y-83455000D03*
X151750000Y-83455000D03*
D18*
X149800000Y-83455000D03*
X150600000Y-83455000D03*
D19*
X151250000Y-83455000D03*
X152250000Y-83455000D03*
X153750000Y-83455000D03*
X154750000Y-83455000D03*
D20*
X158095000Y-82805000D03*
X147905000Y-82805000D03*
D21*
X158095000Y-78880000D03*
X147905000Y-78880000D03*
%TD*%
D10*
%TO.C,SW1*%
X128750000Y-86475000D03*
X128750000Y-78525000D03*
X133250000Y-86475000D03*
X133250000Y-78525000D03*
%TD*%
D22*
%TO.C,U3*%
X128606200Y-97099999D03*
X128606200Y-98050000D03*
X128606200Y-99000001D03*
X130993800Y-99000001D03*
X130993800Y-97099999D03*
%TD*%
D23*
%TO.C,U6*%
X170110000Y-114500000D03*
D24*
X172650000Y-114500000D03*
X175190000Y-114500000D03*
X177730000Y-114500000D03*
X180270000Y-114500000D03*
X182810000Y-114500000D03*
X185350000Y-114500000D03*
X187890000Y-114500000D03*
X187890000Y-106880000D03*
X185350000Y-106880000D03*
X182810000Y-106880000D03*
X180270000Y-106880000D03*
X177730000Y-106880000D03*
X175190000Y-106880000D03*
X172650000Y-106880000D03*
X170110000Y-106880000D03*
%TD*%
D23*
%TO.C,U4*%
X120110000Y-114500000D03*
D24*
X122650000Y-114500000D03*
X125190000Y-114500000D03*
X127730000Y-114500000D03*
X130270000Y-114500000D03*
X132810000Y-114500000D03*
X135350000Y-114500000D03*
X137890000Y-114500000D03*
X137890000Y-106880000D03*
X135350000Y-106880000D03*
X132810000Y-106880000D03*
X130270000Y-106880000D03*
X127730000Y-106880000D03*
X125190000Y-106880000D03*
X122650000Y-106880000D03*
X120110000Y-106880000D03*
%TD*%
D15*
%TO.C,TP1*%
X165913000Y-101259000D03*
%TD*%
D23*
%TO.C,U5*%
X145110000Y-114500000D03*
D24*
X147650000Y-114500000D03*
X150190000Y-114500000D03*
X152730000Y-114500000D03*
X155270000Y-114500000D03*
X157810000Y-114500000D03*
X160350000Y-114500000D03*
X162890000Y-114500000D03*
X162890000Y-106880000D03*
X160350000Y-106880000D03*
X157810000Y-106880000D03*
X155270000Y-106880000D03*
X152730000Y-106880000D03*
X150190000Y-106880000D03*
X147650000Y-106880000D03*
X145110000Y-106880000D03*
%TD*%
D25*
%TO.C,R10*%
X139500000Y-129950000D03*
X139500000Y-127050000D03*
%TD*%
D16*
%TO.C,R19*%
X183400000Y-97987500D03*
X183400000Y-99812500D03*
%TD*%
D26*
%TO.C,D6*%
X183400000Y-103337500D03*
X183400000Y-101462500D03*
%TD*%
D15*
%TO.C,TP4*%
X166141000Y-119890000D03*
%TD*%
D25*
%TO.C,R11*%
X164500000Y-129950000D03*
X164500000Y-127050000D03*
%TD*%
D27*
%TO.C,R7*%
X132587500Y-101500000D03*
X134412500Y-101500000D03*
%TD*%
D12*
%TO.C,H3*%
X141500000Y-143500000D03*
%TD*%
D28*
%TO.C,C4*%
X129050000Y-102000000D03*
X130950000Y-102000000D03*
%TD*%
D29*
%TO.C,C16*%
X162025000Y-81000000D03*
X164975000Y-81000000D03*
%TD*%
D30*
%TO.C,N1*%
X134092700Y-132984640D03*
X123907300Y-132984640D03*
X122855740Y-135755780D03*
X123213880Y-138694560D03*
X124895360Y-141132960D03*
X127519180Y-142509640D03*
X130480820Y-142509640D03*
X133104640Y-141132960D03*
X134786120Y-138694560D03*
X135144260Y-135755780D03*
X129000000Y-130312560D03*
%TD*%
D25*
%TO.C,R12*%
X187000000Y-129950000D03*
X187000000Y-127050000D03*
%TD*%
D11*
%TO.C,D3*%
X151500000Y-134850000D03*
X151500000Y-138150000D03*
X156500000Y-138150000D03*
X156500000Y-134850000D03*
%TD*%
D12*
%TO.C,H4*%
X166500000Y-143500000D03*
%TD*%
D30*
%TO.C,N2*%
X159092700Y-132984640D03*
X148907300Y-132984640D03*
X147855740Y-135755780D03*
X148213880Y-138694560D03*
X149895360Y-141132960D03*
X152519180Y-142509640D03*
X155480820Y-142509640D03*
X158104640Y-141132960D03*
X159786120Y-138694560D03*
X160144260Y-135755780D03*
X154000000Y-130312560D03*
%TD*%
D26*
%TO.C,D5*%
X183400000Y-88937500D03*
X183400000Y-87062500D03*
%TD*%
D11*
%TO.C,D4*%
X176500000Y-134850000D03*
X176500000Y-138150000D03*
X181500000Y-138150000D03*
X181500000Y-134850000D03*
%TD*%
D29*
%TO.C,C5*%
X127725000Y-93500000D03*
X130675000Y-93500000D03*
%TD*%
D12*
%TO.C,H2*%
X181000000Y-79500000D03*
%TD*%
D16*
%TO.C,R18*%
X183400000Y-94487500D03*
X183400000Y-96312500D03*
%TD*%
D30*
%TO.C,N3*%
X184092700Y-132984640D03*
X173907300Y-132984640D03*
X172855740Y-135755780D03*
X173213880Y-138694560D03*
X174895360Y-141132960D03*
X177519180Y-142509640D03*
X180480820Y-142509640D03*
X183104640Y-141132960D03*
X184786120Y-138694560D03*
X185144260Y-135755780D03*
X179000000Y-130312560D03*
%TD*%
D15*
%TO.C,TP2*%
X150206000Y-100959000D03*
%TD*%
M02*
