%TF.GenerationSoftware,KiCad,Pcbnew,10.0.5*%
%TF.CreationDate,2026-09-01T00:59:53-07:00*%
%TF.ProjectId,nixie-esp32,6e697869-652d-4657-9370-33322e6b6963,rev?*%
%TF.SameCoordinates,Original*%
%TF.FileFunction,Legend,Top*%
%TF.FilePolarity,Positive*%
%FSLAX46Y46*%
G04 Gerber Fmt 4.6, Leading zero omitted, Abs format (unit mm)*
G04 Created by KiCad (PCBNEW 10.0.5) date 2026-09-01 00:59:53*
%MOMM*%
%LPD*%
G01*
G04 APERTURE LIST*
G04 Aperture macros list*
%AMRoundRect*
0 Rectangle with rounded corners*
0 $1 Rounding radius*
0 $2 $3 $4 $5 $6 $7 $8 $9 X,Y pos of 4 corners*
0 Add a 4 corners polygon primitive as box body*
4,1,4,$2,$3,$4,$5,$6,$7,$8,$9,$2,$3,0*
0 Add four circle primitives for the rounded corners*
1,1,$1+$1,$2,$3*
1,1,$1+$1,$4,$5*
1,1,$1+$1,$6,$7*
1,1,$1+$1,$8,$9*
0 Add four rect primitives between the rounded corners*
20,1,$1+$1,$2,$3,$4,$5,0*
20,1,$1+$1,$4,$5,$6,$7,0*
20,1,$1+$1,$6,$7,$8,$9,0*
20,1,$1+$1,$8,$9,$2,$3,0*%
G04 Aperture macros list end*
%ADD10C,0.150000*%
%ADD11C,0.250000*%
%ADD12C,0.200000*%
%ADD13C,0.100000*%
%ADD14C,0.300000*%
%ADD15C,0.500000*%
%ADD16C,0.120000*%
%ADD17C,0.152400*%
%ADD18C,0.254000*%
%ADD19R,1.550000X1.300000*%
%ADD20R,1.400000X0.900000*%
%ADD21C,2.700000*%
%ADD22R,2.400000X2.400000*%
%ADD23C,2.400000*%
%ADD24C,1.200000*%
%ADD25RoundRect,0.250000X-0.450000X0.262500X-0.450000X-0.262500X0.450000X-0.262500X0.450000X0.262500X0*%
%ADD26C,0.650000*%
%ADD27R,0.600000X1.150000*%
%ADD28R,0.300000X1.150000*%
%ADD29R,1.550000X1.250000*%
%ADD30R,1.550000X1.500000*%
%ADD31R,1.473200X0.558800*%
%ADD32RoundRect,0.250000X0.550000X-0.550000X0.550000X0.550000X-0.550000X0.550000X-0.550000X-0.550000X0*%
%ADD33C,1.600000*%
%ADD34R,1.750000X1.050000*%
%ADD35RoundRect,0.243750X0.456250X-0.243750X0.456250X0.243750X-0.456250X0.243750X-0.456250X-0.243750X0*%
%ADD36RoundRect,0.250000X-0.262500X-0.450000X0.262500X-0.450000X0.262500X0.450000X-0.262500X0.450000X0*%
%ADD37RoundRect,0.250000X-0.250000X-0.475000X0.250000X-0.475000X0.250000X0.475000X-0.250000X0.475000X0*%
%ADD38RoundRect,0.250000X-0.325000X-0.650000X0.325000X-0.650000X0.325000X0.650000X-0.325000X0.650000X0*%
%ADD39C,1.346200*%
G04 APERTURE END LIST*
D10*
X127323809Y-100454819D02*
X126847619Y-100454819D01*
X126847619Y-100454819D02*
X126847619Y-99454819D01*
X127657143Y-99931009D02*
X127990476Y-99931009D01*
X128133333Y-100454819D02*
X127657143Y-100454819D01*
X127657143Y-100454819D02*
X127657143Y-99454819D01*
X127657143Y-99454819D02*
X128133333Y-99454819D01*
X128561905Y-100454819D02*
X128561905Y-99454819D01*
X128561905Y-99454819D02*
X128800000Y-99454819D01*
X128800000Y-99454819D02*
X128942857Y-99502438D01*
X128942857Y-99502438D02*
X129038095Y-99597676D01*
X129038095Y-99597676D02*
X129085714Y-99692914D01*
X129085714Y-99692914D02*
X129133333Y-99883390D01*
X129133333Y-99883390D02*
X129133333Y-100026247D01*
X129133333Y-100026247D02*
X129085714Y-100216723D01*
X129085714Y-100216723D02*
X129038095Y-100311961D01*
X129038095Y-100311961D02*
X128942857Y-100407200D01*
X128942857Y-100407200D02*
X128800000Y-100454819D01*
X128800000Y-100454819D02*
X128561905Y-100454819D01*
X130657143Y-99931009D02*
X130800000Y-99978628D01*
X130800000Y-99978628D02*
X130847619Y-100026247D01*
X130847619Y-100026247D02*
X130895238Y-100121485D01*
X130895238Y-100121485D02*
X130895238Y-100264342D01*
X130895238Y-100264342D02*
X130847619Y-100359580D01*
X130847619Y-100359580D02*
X130800000Y-100407200D01*
X130800000Y-100407200D02*
X130704762Y-100454819D01*
X130704762Y-100454819D02*
X130323810Y-100454819D01*
X130323810Y-100454819D02*
X130323810Y-99454819D01*
X130323810Y-99454819D02*
X130657143Y-99454819D01*
X130657143Y-99454819D02*
X130752381Y-99502438D01*
X130752381Y-99502438D02*
X130800000Y-99550057D01*
X130800000Y-99550057D02*
X130847619Y-99645295D01*
X130847619Y-99645295D02*
X130847619Y-99740533D01*
X130847619Y-99740533D02*
X130800000Y-99835771D01*
X130800000Y-99835771D02*
X130752381Y-99883390D01*
X130752381Y-99883390D02*
X130657143Y-99931009D01*
X130657143Y-99931009D02*
X130323810Y-99931009D01*
X131323810Y-99454819D02*
X131323810Y-100264342D01*
X131323810Y-100264342D02*
X131371429Y-100359580D01*
X131371429Y-100359580D02*
X131419048Y-100407200D01*
X131419048Y-100407200D02*
X131514286Y-100454819D01*
X131514286Y-100454819D02*
X131704762Y-100454819D01*
X131704762Y-100454819D02*
X131800000Y-100407200D01*
X131800000Y-100407200D02*
X131847619Y-100359580D01*
X131847619Y-100359580D02*
X131895238Y-100264342D01*
X131895238Y-100264342D02*
X131895238Y-99454819D01*
X132704762Y-99931009D02*
X132371429Y-99931009D01*
X132371429Y-100454819D02*
X132371429Y-99454819D01*
X132371429Y-99454819D02*
X132847619Y-99454819D01*
X148438095Y-99473866D02*
X149200000Y-99473866D01*
X148819047Y-99854819D02*
X148819047Y-99092914D01*
X149580952Y-98854819D02*
X150199999Y-98854819D01*
X150199999Y-98854819D02*
X149866666Y-99235771D01*
X149866666Y-99235771D02*
X150009523Y-99235771D01*
X150009523Y-99235771D02*
X150104761Y-99283390D01*
X150104761Y-99283390D02*
X150152380Y-99331009D01*
X150152380Y-99331009D02*
X150199999Y-99426247D01*
X150199999Y-99426247D02*
X150199999Y-99664342D01*
X150199999Y-99664342D02*
X150152380Y-99759580D01*
X150152380Y-99759580D02*
X150104761Y-99807200D01*
X150104761Y-99807200D02*
X150009523Y-99854819D01*
X150009523Y-99854819D02*
X149723809Y-99854819D01*
X149723809Y-99854819D02*
X149628571Y-99807200D01*
X149628571Y-99807200D02*
X149580952Y-99759580D01*
X150485714Y-98854819D02*
X150819047Y-99854819D01*
X150819047Y-99854819D02*
X151152380Y-98854819D01*
X151390476Y-98854819D02*
X152009523Y-98854819D01*
X152009523Y-98854819D02*
X151676190Y-99235771D01*
X151676190Y-99235771D02*
X151819047Y-99235771D01*
X151819047Y-99235771D02*
X151914285Y-99283390D01*
X151914285Y-99283390D02*
X151961904Y-99331009D01*
X151961904Y-99331009D02*
X152009523Y-99426247D01*
X152009523Y-99426247D02*
X152009523Y-99664342D01*
X152009523Y-99664342D02*
X151961904Y-99759580D01*
X151961904Y-99759580D02*
X151914285Y-99807200D01*
X151914285Y-99807200D02*
X151819047Y-99854819D01*
X151819047Y-99854819D02*
X151533333Y-99854819D01*
X151533333Y-99854819D02*
X151438095Y-99807200D01*
X151438095Y-99807200D02*
X151390476Y-99759580D01*
X147833333Y-85354819D02*
X147833333Y-86164342D01*
X147833333Y-86164342D02*
X147880952Y-86259580D01*
X147880952Y-86259580D02*
X147928571Y-86307200D01*
X147928571Y-86307200D02*
X148023809Y-86354819D01*
X148023809Y-86354819D02*
X148214285Y-86354819D01*
X148214285Y-86354819D02*
X148309523Y-86307200D01*
X148309523Y-86307200D02*
X148357142Y-86259580D01*
X148357142Y-86259580D02*
X148404761Y-86164342D01*
X148404761Y-86164342D02*
X148404761Y-85354819D01*
X148833333Y-86307200D02*
X148976190Y-86354819D01*
X148976190Y-86354819D02*
X149214285Y-86354819D01*
X149214285Y-86354819D02*
X149309523Y-86307200D01*
X149309523Y-86307200D02*
X149357142Y-86259580D01*
X149357142Y-86259580D02*
X149404761Y-86164342D01*
X149404761Y-86164342D02*
X149404761Y-86069104D01*
X149404761Y-86069104D02*
X149357142Y-85973866D01*
X149357142Y-85973866D02*
X149309523Y-85926247D01*
X149309523Y-85926247D02*
X149214285Y-85878628D01*
X149214285Y-85878628D02*
X149023809Y-85831009D01*
X149023809Y-85831009D02*
X148928571Y-85783390D01*
X148928571Y-85783390D02*
X148880952Y-85735771D01*
X148880952Y-85735771D02*
X148833333Y-85640533D01*
X148833333Y-85640533D02*
X148833333Y-85545295D01*
X148833333Y-85545295D02*
X148880952Y-85450057D01*
X148880952Y-85450057D02*
X148928571Y-85402438D01*
X148928571Y-85402438D02*
X149023809Y-85354819D01*
X149023809Y-85354819D02*
X149261904Y-85354819D01*
X149261904Y-85354819D02*
X149404761Y-85402438D01*
X150166666Y-85831009D02*
X150309523Y-85878628D01*
X150309523Y-85878628D02*
X150357142Y-85926247D01*
X150357142Y-85926247D02*
X150404761Y-86021485D01*
X150404761Y-86021485D02*
X150404761Y-86164342D01*
X150404761Y-86164342D02*
X150357142Y-86259580D01*
X150357142Y-86259580D02*
X150309523Y-86307200D01*
X150309523Y-86307200D02*
X150214285Y-86354819D01*
X150214285Y-86354819D02*
X149833333Y-86354819D01*
X149833333Y-86354819D02*
X149833333Y-85354819D01*
X149833333Y-85354819D02*
X150166666Y-85354819D01*
X150166666Y-85354819D02*
X150261904Y-85402438D01*
X150261904Y-85402438D02*
X150309523Y-85450057D01*
X150309523Y-85450057D02*
X150357142Y-85545295D01*
X150357142Y-85545295D02*
X150357142Y-85640533D01*
X150357142Y-85640533D02*
X150309523Y-85735771D01*
X150309523Y-85735771D02*
X150261904Y-85783390D01*
X150261904Y-85783390D02*
X150166666Y-85831009D01*
X150166666Y-85831009D02*
X149833333Y-85831009D01*
X150833333Y-85973866D02*
X151595238Y-85973866D01*
X152642856Y-86259580D02*
X152595237Y-86307200D01*
X152595237Y-86307200D02*
X152452380Y-86354819D01*
X152452380Y-86354819D02*
X152357142Y-86354819D01*
X152357142Y-86354819D02*
X152214285Y-86307200D01*
X152214285Y-86307200D02*
X152119047Y-86211961D01*
X152119047Y-86211961D02*
X152071428Y-86116723D01*
X152071428Y-86116723D02*
X152023809Y-85926247D01*
X152023809Y-85926247D02*
X152023809Y-85783390D01*
X152023809Y-85783390D02*
X152071428Y-85592914D01*
X152071428Y-85592914D02*
X152119047Y-85497676D01*
X152119047Y-85497676D02*
X152214285Y-85402438D01*
X152214285Y-85402438D02*
X152357142Y-85354819D01*
X152357142Y-85354819D02*
X152452380Y-85354819D01*
X152452380Y-85354819D02*
X152595237Y-85402438D01*
X152595237Y-85402438D02*
X152642856Y-85450057D01*
X154309523Y-85354819D02*
X153833333Y-85354819D01*
X153833333Y-85354819D02*
X153785714Y-85831009D01*
X153785714Y-85831009D02*
X153833333Y-85783390D01*
X153833333Y-85783390D02*
X153928571Y-85735771D01*
X153928571Y-85735771D02*
X154166666Y-85735771D01*
X154166666Y-85735771D02*
X154261904Y-85783390D01*
X154261904Y-85783390D02*
X154309523Y-85831009D01*
X154309523Y-85831009D02*
X154357142Y-85926247D01*
X154357142Y-85926247D02*
X154357142Y-86164342D01*
X154357142Y-86164342D02*
X154309523Y-86259580D01*
X154309523Y-86259580D02*
X154261904Y-86307200D01*
X154261904Y-86307200D02*
X154166666Y-86354819D01*
X154166666Y-86354819D02*
X153928571Y-86354819D01*
X153928571Y-86354819D02*
X153833333Y-86307200D01*
X153833333Y-86307200D02*
X153785714Y-86259580D01*
X154642857Y-85354819D02*
X154976190Y-86354819D01*
X154976190Y-86354819D02*
X155309523Y-85354819D01*
X156214286Y-104173866D02*
X156976191Y-104173866D01*
X156595238Y-104554819D02*
X156595238Y-103792914D01*
X157928571Y-103554819D02*
X157452381Y-103554819D01*
X157452381Y-103554819D02*
X157404762Y-104031009D01*
X157404762Y-104031009D02*
X157452381Y-103983390D01*
X157452381Y-103983390D02*
X157547619Y-103935771D01*
X157547619Y-103935771D02*
X157785714Y-103935771D01*
X157785714Y-103935771D02*
X157880952Y-103983390D01*
X157880952Y-103983390D02*
X157928571Y-104031009D01*
X157928571Y-104031009D02*
X157976190Y-104126247D01*
X157976190Y-104126247D02*
X157976190Y-104364342D01*
X157976190Y-104364342D02*
X157928571Y-104459580D01*
X157928571Y-104459580D02*
X157880952Y-104507200D01*
X157880952Y-104507200D02*
X157785714Y-104554819D01*
X157785714Y-104554819D02*
X157547619Y-104554819D01*
X157547619Y-104554819D02*
X157452381Y-104507200D01*
X157452381Y-104507200D02*
X157404762Y-104459580D01*
X158261905Y-103554819D02*
X158595238Y-104554819D01*
X158595238Y-104554819D02*
X158928571Y-103554819D01*
X163861905Y-121473866D02*
X164623810Y-121473866D01*
X164242857Y-121854819D02*
X164242857Y-121092914D01*
X165623809Y-121854819D02*
X165052381Y-121854819D01*
X165338095Y-121854819D02*
X165338095Y-120854819D01*
X165338095Y-120854819D02*
X165242857Y-120997676D01*
X165242857Y-120997676D02*
X165147619Y-121092914D01*
X165147619Y-121092914D02*
X165052381Y-121140533D01*
X165957143Y-120854819D02*
X166623809Y-120854819D01*
X166623809Y-120854819D02*
X166195238Y-121854819D01*
X167195238Y-120854819D02*
X167290476Y-120854819D01*
X167290476Y-120854819D02*
X167385714Y-120902438D01*
X167385714Y-120902438D02*
X167433333Y-120950057D01*
X167433333Y-120950057D02*
X167480952Y-121045295D01*
X167480952Y-121045295D02*
X167528571Y-121235771D01*
X167528571Y-121235771D02*
X167528571Y-121473866D01*
X167528571Y-121473866D02*
X167480952Y-121664342D01*
X167480952Y-121664342D02*
X167433333Y-121759580D01*
X167433333Y-121759580D02*
X167385714Y-121807200D01*
X167385714Y-121807200D02*
X167290476Y-121854819D01*
X167290476Y-121854819D02*
X167195238Y-121854819D01*
X167195238Y-121854819D02*
X167100000Y-121807200D01*
X167100000Y-121807200D02*
X167052381Y-121759580D01*
X167052381Y-121759580D02*
X167004762Y-121664342D01*
X167004762Y-121664342D02*
X166957143Y-121473866D01*
X166957143Y-121473866D02*
X166957143Y-121235771D01*
X166957143Y-121235771D02*
X167004762Y-121045295D01*
X167004762Y-121045295D02*
X167052381Y-120950057D01*
X167052381Y-120950057D02*
X167100000Y-120902438D01*
X167100000Y-120902438D02*
X167195238Y-120854819D01*
X167814286Y-120854819D02*
X168147619Y-121854819D01*
X168147619Y-121854819D02*
X168480952Y-120854819D01*
X167238095Y-100802438D02*
X167142857Y-100754819D01*
X167142857Y-100754819D02*
X167000000Y-100754819D01*
X167000000Y-100754819D02*
X166857143Y-100802438D01*
X166857143Y-100802438D02*
X166761905Y-100897676D01*
X166761905Y-100897676D02*
X166714286Y-100992914D01*
X166714286Y-100992914D02*
X166666667Y-101183390D01*
X166666667Y-101183390D02*
X166666667Y-101326247D01*
X166666667Y-101326247D02*
X166714286Y-101516723D01*
X166714286Y-101516723D02*
X166761905Y-101611961D01*
X166761905Y-101611961D02*
X166857143Y-101707200D01*
X166857143Y-101707200D02*
X167000000Y-101754819D01*
X167000000Y-101754819D02*
X167095238Y-101754819D01*
X167095238Y-101754819D02*
X167238095Y-101707200D01*
X167238095Y-101707200D02*
X167285714Y-101659580D01*
X167285714Y-101659580D02*
X167285714Y-101326247D01*
X167285714Y-101326247D02*
X167095238Y-101326247D01*
X167714286Y-101754819D02*
X167714286Y-100754819D01*
X167714286Y-100754819D02*
X168285714Y-101754819D01*
X168285714Y-101754819D02*
X168285714Y-100754819D01*
X168761905Y-101754819D02*
X168761905Y-100754819D01*
X168761905Y-100754819D02*
X169000000Y-100754819D01*
X169000000Y-100754819D02*
X169142857Y-100802438D01*
X169142857Y-100802438D02*
X169238095Y-100897676D01*
X169238095Y-100897676D02*
X169285714Y-100992914D01*
X169285714Y-100992914D02*
X169333333Y-101183390D01*
X169333333Y-101183390D02*
X169333333Y-101326247D01*
X169333333Y-101326247D02*
X169285714Y-101516723D01*
X169285714Y-101516723D02*
X169238095Y-101611961D01*
X169238095Y-101611961D02*
X169142857Y-101707200D01*
X169142857Y-101707200D02*
X169000000Y-101754819D01*
X169000000Y-101754819D02*
X168761905Y-101754819D01*
X167119047Y-103354819D02*
X166547619Y-103354819D01*
X166833333Y-103354819D02*
X166833333Y-102354819D01*
X166833333Y-102354819D02*
X166738095Y-102497676D01*
X166738095Y-102497676D02*
X166642857Y-102592914D01*
X166642857Y-102592914D02*
X166547619Y-102640533D01*
X167452381Y-102354819D02*
X168119047Y-102354819D01*
X168119047Y-102354819D02*
X167690476Y-103354819D01*
X168690476Y-102354819D02*
X168785714Y-102354819D01*
X168785714Y-102354819D02*
X168880952Y-102402438D01*
X168880952Y-102402438D02*
X168928571Y-102450057D01*
X168928571Y-102450057D02*
X168976190Y-102545295D01*
X168976190Y-102545295D02*
X169023809Y-102735771D01*
X169023809Y-102735771D02*
X169023809Y-102973866D01*
X169023809Y-102973866D02*
X168976190Y-103164342D01*
X168976190Y-103164342D02*
X168928571Y-103259580D01*
X168928571Y-103259580D02*
X168880952Y-103307200D01*
X168880952Y-103307200D02*
X168785714Y-103354819D01*
X168785714Y-103354819D02*
X168690476Y-103354819D01*
X168690476Y-103354819D02*
X168595238Y-103307200D01*
X168595238Y-103307200D02*
X168547619Y-103259580D01*
X168547619Y-103259580D02*
X168500000Y-103164342D01*
X168500000Y-103164342D02*
X168452381Y-102973866D01*
X168452381Y-102973866D02*
X168452381Y-102735771D01*
X168452381Y-102735771D02*
X168500000Y-102545295D01*
X168500000Y-102545295D02*
X168547619Y-102450057D01*
X168547619Y-102450057D02*
X168595238Y-102402438D01*
X168595238Y-102402438D02*
X168690476Y-102354819D01*
X169309524Y-102354819D02*
X169642857Y-103354819D01*
X169642857Y-103354819D02*
X169976190Y-102354819D01*
X171404762Y-102831009D02*
X171547619Y-102878628D01*
X171547619Y-102878628D02*
X171595238Y-102926247D01*
X171595238Y-102926247D02*
X171642857Y-103021485D01*
X171642857Y-103021485D02*
X171642857Y-103164342D01*
X171642857Y-103164342D02*
X171595238Y-103259580D01*
X171595238Y-103259580D02*
X171547619Y-103307200D01*
X171547619Y-103307200D02*
X171452381Y-103354819D01*
X171452381Y-103354819D02*
X171071429Y-103354819D01*
X171071429Y-103354819D02*
X171071429Y-102354819D01*
X171071429Y-102354819D02*
X171404762Y-102354819D01*
X171404762Y-102354819D02*
X171500000Y-102402438D01*
X171500000Y-102402438D02*
X171547619Y-102450057D01*
X171547619Y-102450057D02*
X171595238Y-102545295D01*
X171595238Y-102545295D02*
X171595238Y-102640533D01*
X171595238Y-102640533D02*
X171547619Y-102735771D01*
X171547619Y-102735771D02*
X171500000Y-102783390D01*
X171500000Y-102783390D02*
X171404762Y-102831009D01*
X171404762Y-102831009D02*
X171071429Y-102831009D01*
X172261905Y-102354819D02*
X172452381Y-102354819D01*
X172452381Y-102354819D02*
X172547619Y-102402438D01*
X172547619Y-102402438D02*
X172642857Y-102497676D01*
X172642857Y-102497676D02*
X172690476Y-102688152D01*
X172690476Y-102688152D02*
X172690476Y-103021485D01*
X172690476Y-103021485D02*
X172642857Y-103211961D01*
X172642857Y-103211961D02*
X172547619Y-103307200D01*
X172547619Y-103307200D02*
X172452381Y-103354819D01*
X172452381Y-103354819D02*
X172261905Y-103354819D01*
X172261905Y-103354819D02*
X172166667Y-103307200D01*
X172166667Y-103307200D02*
X172071429Y-103211961D01*
X172071429Y-103211961D02*
X172023810Y-103021485D01*
X172023810Y-103021485D02*
X172023810Y-102688152D01*
X172023810Y-102688152D02*
X172071429Y-102497676D01*
X172071429Y-102497676D02*
X172166667Y-102402438D01*
X172166667Y-102402438D02*
X172261905Y-102354819D01*
X173309524Y-102354819D02*
X173500000Y-102354819D01*
X173500000Y-102354819D02*
X173595238Y-102402438D01*
X173595238Y-102402438D02*
X173690476Y-102497676D01*
X173690476Y-102497676D02*
X173738095Y-102688152D01*
X173738095Y-102688152D02*
X173738095Y-103021485D01*
X173738095Y-103021485D02*
X173690476Y-103211961D01*
X173690476Y-103211961D02*
X173595238Y-103307200D01*
X173595238Y-103307200D02*
X173500000Y-103354819D01*
X173500000Y-103354819D02*
X173309524Y-103354819D01*
X173309524Y-103354819D02*
X173214286Y-103307200D01*
X173214286Y-103307200D02*
X173119048Y-103211961D01*
X173119048Y-103211961D02*
X173071429Y-103021485D01*
X173071429Y-103021485D02*
X173071429Y-102688152D01*
X173071429Y-102688152D02*
X173119048Y-102497676D01*
X173119048Y-102497676D02*
X173214286Y-102402438D01*
X173214286Y-102402438D02*
X173309524Y-102354819D01*
X174119048Y-103307200D02*
X174261905Y-103354819D01*
X174261905Y-103354819D02*
X174500000Y-103354819D01*
X174500000Y-103354819D02*
X174595238Y-103307200D01*
X174595238Y-103307200D02*
X174642857Y-103259580D01*
X174642857Y-103259580D02*
X174690476Y-103164342D01*
X174690476Y-103164342D02*
X174690476Y-103069104D01*
X174690476Y-103069104D02*
X174642857Y-102973866D01*
X174642857Y-102973866D02*
X174595238Y-102926247D01*
X174595238Y-102926247D02*
X174500000Y-102878628D01*
X174500000Y-102878628D02*
X174309524Y-102831009D01*
X174309524Y-102831009D02*
X174214286Y-102783390D01*
X174214286Y-102783390D02*
X174166667Y-102735771D01*
X174166667Y-102735771D02*
X174119048Y-102640533D01*
X174119048Y-102640533D02*
X174119048Y-102545295D01*
X174119048Y-102545295D02*
X174166667Y-102450057D01*
X174166667Y-102450057D02*
X174214286Y-102402438D01*
X174214286Y-102402438D02*
X174309524Y-102354819D01*
X174309524Y-102354819D02*
X174547619Y-102354819D01*
X174547619Y-102354819D02*
X174690476Y-102402438D01*
X174976191Y-102354819D02*
X175547619Y-102354819D01*
X175261905Y-103354819D02*
X175261905Y-102354819D01*
X124454819Y-101219048D02*
X123978628Y-101552381D01*
X124454819Y-101790476D02*
X123454819Y-101790476D01*
X123454819Y-101790476D02*
X123454819Y-101409524D01*
X123454819Y-101409524D02*
X123502438Y-101314286D01*
X123502438Y-101314286D02*
X123550057Y-101266667D01*
X123550057Y-101266667D02*
X123645295Y-101219048D01*
X123645295Y-101219048D02*
X123788152Y-101219048D01*
X123788152Y-101219048D02*
X123883390Y-101266667D01*
X123883390Y-101266667D02*
X123931009Y-101314286D01*
X123931009Y-101314286D02*
X123978628Y-101409524D01*
X123978628Y-101409524D02*
X123978628Y-101790476D01*
X124407200Y-100409524D02*
X124454819Y-100504762D01*
X124454819Y-100504762D02*
X124454819Y-100695238D01*
X124454819Y-100695238D02*
X124407200Y-100790476D01*
X124407200Y-100790476D02*
X124311961Y-100838095D01*
X124311961Y-100838095D02*
X123931009Y-100838095D01*
X123931009Y-100838095D02*
X123835771Y-100790476D01*
X123835771Y-100790476D02*
X123788152Y-100695238D01*
X123788152Y-100695238D02*
X123788152Y-100504762D01*
X123788152Y-100504762D02*
X123835771Y-100409524D01*
X123835771Y-100409524D02*
X123931009Y-100361905D01*
X123931009Y-100361905D02*
X124026247Y-100361905D01*
X124026247Y-100361905D02*
X124121485Y-100838095D01*
X123788152Y-100028571D02*
X124454819Y-99790476D01*
X124454819Y-99790476D02*
X123788152Y-99552381D01*
X124169104Y-98457142D02*
X124169104Y-97980952D01*
X124454819Y-98552380D02*
X123454819Y-98219047D01*
X123454819Y-98219047D02*
X124454819Y-97885714D01*
X123550057Y-96076189D02*
X123502438Y-96028570D01*
X123502438Y-96028570D02*
X123454819Y-95933332D01*
X123454819Y-95933332D02*
X123454819Y-95695237D01*
X123454819Y-95695237D02*
X123502438Y-95599999D01*
X123502438Y-95599999D02*
X123550057Y-95552380D01*
X123550057Y-95552380D02*
X123645295Y-95504761D01*
X123645295Y-95504761D02*
X123740533Y-95504761D01*
X123740533Y-95504761D02*
X123883390Y-95552380D01*
X123883390Y-95552380D02*
X124454819Y-96123808D01*
X124454819Y-96123808D02*
X124454819Y-95504761D01*
X123454819Y-94885713D02*
X123454819Y-94790475D01*
X123454819Y-94790475D02*
X123502438Y-94695237D01*
X123502438Y-94695237D02*
X123550057Y-94647618D01*
X123550057Y-94647618D02*
X123645295Y-94599999D01*
X123645295Y-94599999D02*
X123835771Y-94552380D01*
X123835771Y-94552380D02*
X124073866Y-94552380D01*
X124073866Y-94552380D02*
X124264342Y-94599999D01*
X124264342Y-94599999D02*
X124359580Y-94647618D01*
X124359580Y-94647618D02*
X124407200Y-94695237D01*
X124407200Y-94695237D02*
X124454819Y-94790475D01*
X124454819Y-94790475D02*
X124454819Y-94885713D01*
X124454819Y-94885713D02*
X124407200Y-94980951D01*
X124407200Y-94980951D02*
X124359580Y-95028570D01*
X124359580Y-95028570D02*
X124264342Y-95076189D01*
X124264342Y-95076189D02*
X124073866Y-95123808D01*
X124073866Y-95123808D02*
X123835771Y-95123808D01*
X123835771Y-95123808D02*
X123645295Y-95076189D01*
X123645295Y-95076189D02*
X123550057Y-95028570D01*
X123550057Y-95028570D02*
X123502438Y-94980951D01*
X123502438Y-94980951D02*
X123454819Y-94885713D01*
X123550057Y-94171427D02*
X123502438Y-94123808D01*
X123502438Y-94123808D02*
X123454819Y-94028570D01*
X123454819Y-94028570D02*
X123454819Y-93790475D01*
X123454819Y-93790475D02*
X123502438Y-93695237D01*
X123502438Y-93695237D02*
X123550057Y-93647618D01*
X123550057Y-93647618D02*
X123645295Y-93599999D01*
X123645295Y-93599999D02*
X123740533Y-93599999D01*
X123740533Y-93599999D02*
X123883390Y-93647618D01*
X123883390Y-93647618D02*
X124454819Y-94219046D01*
X124454819Y-94219046D02*
X124454819Y-93599999D01*
X123454819Y-92742856D02*
X123454819Y-92933332D01*
X123454819Y-92933332D02*
X123502438Y-93028570D01*
X123502438Y-93028570D02*
X123550057Y-93076189D01*
X123550057Y-93076189D02*
X123692914Y-93171427D01*
X123692914Y-93171427D02*
X123883390Y-93219046D01*
X123883390Y-93219046D02*
X124264342Y-93219046D01*
X124264342Y-93219046D02*
X124359580Y-93171427D01*
X124359580Y-93171427D02*
X124407200Y-93123808D01*
X124407200Y-93123808D02*
X124454819Y-93028570D01*
X124454819Y-93028570D02*
X124454819Y-92838094D01*
X124454819Y-92838094D02*
X124407200Y-92742856D01*
X124407200Y-92742856D02*
X124359580Y-92695237D01*
X124359580Y-92695237D02*
X124264342Y-92647618D01*
X124264342Y-92647618D02*
X124026247Y-92647618D01*
X124026247Y-92647618D02*
X123931009Y-92695237D01*
X123931009Y-92695237D02*
X123883390Y-92742856D01*
X123883390Y-92742856D02*
X123835771Y-92838094D01*
X123835771Y-92838094D02*
X123835771Y-93028570D01*
X123835771Y-93028570D02*
X123883390Y-93123808D01*
X123883390Y-93123808D02*
X123931009Y-93171427D01*
X123931009Y-93171427D02*
X124026247Y-93219046D01*
X124073866Y-92219046D02*
X124073866Y-91457142D01*
X123454819Y-90790475D02*
X123454819Y-90695237D01*
X123454819Y-90695237D02*
X123502438Y-90599999D01*
X123502438Y-90599999D02*
X123550057Y-90552380D01*
X123550057Y-90552380D02*
X123645295Y-90504761D01*
X123645295Y-90504761D02*
X123835771Y-90457142D01*
X123835771Y-90457142D02*
X124073866Y-90457142D01*
X124073866Y-90457142D02*
X124264342Y-90504761D01*
X124264342Y-90504761D02*
X124359580Y-90552380D01*
X124359580Y-90552380D02*
X124407200Y-90599999D01*
X124407200Y-90599999D02*
X124454819Y-90695237D01*
X124454819Y-90695237D02*
X124454819Y-90790475D01*
X124454819Y-90790475D02*
X124407200Y-90885713D01*
X124407200Y-90885713D02*
X124359580Y-90933332D01*
X124359580Y-90933332D02*
X124264342Y-90980951D01*
X124264342Y-90980951D02*
X124073866Y-91028570D01*
X124073866Y-91028570D02*
X123835771Y-91028570D01*
X123835771Y-91028570D02*
X123645295Y-90980951D01*
X123645295Y-90980951D02*
X123550057Y-90933332D01*
X123550057Y-90933332D02*
X123502438Y-90885713D01*
X123502438Y-90885713D02*
X123454819Y-90790475D01*
X123883390Y-89885713D02*
X123835771Y-89980951D01*
X123835771Y-89980951D02*
X123788152Y-90028570D01*
X123788152Y-90028570D02*
X123692914Y-90076189D01*
X123692914Y-90076189D02*
X123645295Y-90076189D01*
X123645295Y-90076189D02*
X123550057Y-90028570D01*
X123550057Y-90028570D02*
X123502438Y-89980951D01*
X123502438Y-89980951D02*
X123454819Y-89885713D01*
X123454819Y-89885713D02*
X123454819Y-89695237D01*
X123454819Y-89695237D02*
X123502438Y-89599999D01*
X123502438Y-89599999D02*
X123550057Y-89552380D01*
X123550057Y-89552380D02*
X123645295Y-89504761D01*
X123645295Y-89504761D02*
X123692914Y-89504761D01*
X123692914Y-89504761D02*
X123788152Y-89552380D01*
X123788152Y-89552380D02*
X123835771Y-89599999D01*
X123835771Y-89599999D02*
X123883390Y-89695237D01*
X123883390Y-89695237D02*
X123883390Y-89885713D01*
X123883390Y-89885713D02*
X123931009Y-89980951D01*
X123931009Y-89980951D02*
X123978628Y-90028570D01*
X123978628Y-90028570D02*
X124073866Y-90076189D01*
X124073866Y-90076189D02*
X124264342Y-90076189D01*
X124264342Y-90076189D02*
X124359580Y-90028570D01*
X124359580Y-90028570D02*
X124407200Y-89980951D01*
X124407200Y-89980951D02*
X124454819Y-89885713D01*
X124454819Y-89885713D02*
X124454819Y-89695237D01*
X124454819Y-89695237D02*
X124407200Y-89599999D01*
X124407200Y-89599999D02*
X124359580Y-89552380D01*
X124359580Y-89552380D02*
X124264342Y-89504761D01*
X124264342Y-89504761D02*
X124073866Y-89504761D01*
X124073866Y-89504761D02*
X123978628Y-89552380D01*
X123978628Y-89552380D02*
X123931009Y-89599999D01*
X123931009Y-89599999D02*
X123883390Y-89695237D01*
X124073866Y-89076189D02*
X124073866Y-88314285D01*
X123454819Y-87933332D02*
X123454819Y-87314285D01*
X123454819Y-87314285D02*
X123835771Y-87647618D01*
X123835771Y-87647618D02*
X123835771Y-87504761D01*
X123835771Y-87504761D02*
X123883390Y-87409523D01*
X123883390Y-87409523D02*
X123931009Y-87361904D01*
X123931009Y-87361904D02*
X124026247Y-87314285D01*
X124026247Y-87314285D02*
X124264342Y-87314285D01*
X124264342Y-87314285D02*
X124359580Y-87361904D01*
X124359580Y-87361904D02*
X124407200Y-87409523D01*
X124407200Y-87409523D02*
X124454819Y-87504761D01*
X124454819Y-87504761D02*
X124454819Y-87790475D01*
X124454819Y-87790475D02*
X124407200Y-87885713D01*
X124407200Y-87885713D02*
X124359580Y-87933332D01*
X123454819Y-86695237D02*
X123454819Y-86599999D01*
X123454819Y-86599999D02*
X123502438Y-86504761D01*
X123502438Y-86504761D02*
X123550057Y-86457142D01*
X123550057Y-86457142D02*
X123645295Y-86409523D01*
X123645295Y-86409523D02*
X123835771Y-86361904D01*
X123835771Y-86361904D02*
X124073866Y-86361904D01*
X124073866Y-86361904D02*
X124264342Y-86409523D01*
X124264342Y-86409523D02*
X124359580Y-86457142D01*
X124359580Y-86457142D02*
X124407200Y-86504761D01*
X124407200Y-86504761D02*
X124454819Y-86599999D01*
X124454819Y-86599999D02*
X124454819Y-86695237D01*
X124454819Y-86695237D02*
X124407200Y-86790475D01*
X124407200Y-86790475D02*
X124359580Y-86838094D01*
X124359580Y-86838094D02*
X124264342Y-86885713D01*
X124264342Y-86885713D02*
X124073866Y-86933332D01*
X124073866Y-86933332D02*
X123835771Y-86933332D01*
X123835771Y-86933332D02*
X123645295Y-86885713D01*
X123645295Y-86885713D02*
X123550057Y-86838094D01*
X123550057Y-86838094D02*
X123502438Y-86790475D01*
X123502438Y-86790475D02*
X123454819Y-86695237D01*
X186954819Y-90552380D02*
X187764342Y-90552380D01*
X187764342Y-90552380D02*
X187859580Y-90504761D01*
X187859580Y-90504761D02*
X187907200Y-90457142D01*
X187907200Y-90457142D02*
X187954819Y-90361904D01*
X187954819Y-90361904D02*
X187954819Y-90171428D01*
X187954819Y-90171428D02*
X187907200Y-90076190D01*
X187907200Y-90076190D02*
X187859580Y-90028571D01*
X187859580Y-90028571D02*
X187764342Y-89980952D01*
X187764342Y-89980952D02*
X186954819Y-89980952D01*
X187907200Y-89552380D02*
X187954819Y-89409523D01*
X187954819Y-89409523D02*
X187954819Y-89171428D01*
X187954819Y-89171428D02*
X187907200Y-89076190D01*
X187907200Y-89076190D02*
X187859580Y-89028571D01*
X187859580Y-89028571D02*
X187764342Y-88980952D01*
X187764342Y-88980952D02*
X187669104Y-88980952D01*
X187669104Y-88980952D02*
X187573866Y-89028571D01*
X187573866Y-89028571D02*
X187526247Y-89076190D01*
X187526247Y-89076190D02*
X187478628Y-89171428D01*
X187478628Y-89171428D02*
X187431009Y-89361904D01*
X187431009Y-89361904D02*
X187383390Y-89457142D01*
X187383390Y-89457142D02*
X187335771Y-89504761D01*
X187335771Y-89504761D02*
X187240533Y-89552380D01*
X187240533Y-89552380D02*
X187145295Y-89552380D01*
X187145295Y-89552380D02*
X187050057Y-89504761D01*
X187050057Y-89504761D02*
X187002438Y-89457142D01*
X187002438Y-89457142D02*
X186954819Y-89361904D01*
X186954819Y-89361904D02*
X186954819Y-89123809D01*
X186954819Y-89123809D02*
X187002438Y-88980952D01*
X187431009Y-88219047D02*
X187478628Y-88076190D01*
X187478628Y-88076190D02*
X187526247Y-88028571D01*
X187526247Y-88028571D02*
X187621485Y-87980952D01*
X187621485Y-87980952D02*
X187764342Y-87980952D01*
X187764342Y-87980952D02*
X187859580Y-88028571D01*
X187859580Y-88028571D02*
X187907200Y-88076190D01*
X187907200Y-88076190D02*
X187954819Y-88171428D01*
X187954819Y-88171428D02*
X187954819Y-88552380D01*
X187954819Y-88552380D02*
X186954819Y-88552380D01*
X186954819Y-88552380D02*
X186954819Y-88219047D01*
X186954819Y-88219047D02*
X187002438Y-88123809D01*
X187002438Y-88123809D02*
X187050057Y-88076190D01*
X187050057Y-88076190D02*
X187145295Y-88028571D01*
X187145295Y-88028571D02*
X187240533Y-88028571D01*
X187240533Y-88028571D02*
X187335771Y-88076190D01*
X187335771Y-88076190D02*
X187383390Y-88123809D01*
X187383390Y-88123809D02*
X187431009Y-88219047D01*
X187431009Y-88219047D02*
X187431009Y-88552380D01*
X186954819Y-86314285D02*
X186954819Y-86790475D01*
X186954819Y-86790475D02*
X187431009Y-86838094D01*
X187431009Y-86838094D02*
X187383390Y-86790475D01*
X187383390Y-86790475D02*
X187335771Y-86695237D01*
X187335771Y-86695237D02*
X187335771Y-86457142D01*
X187335771Y-86457142D02*
X187383390Y-86361904D01*
X187383390Y-86361904D02*
X187431009Y-86314285D01*
X187431009Y-86314285D02*
X187526247Y-86266666D01*
X187526247Y-86266666D02*
X187764342Y-86266666D01*
X187764342Y-86266666D02*
X187859580Y-86314285D01*
X187859580Y-86314285D02*
X187907200Y-86361904D01*
X187907200Y-86361904D02*
X187954819Y-86457142D01*
X187954819Y-86457142D02*
X187954819Y-86695237D01*
X187954819Y-86695237D02*
X187907200Y-86790475D01*
X187907200Y-86790475D02*
X187859580Y-86838094D01*
X186954819Y-85980951D02*
X187954819Y-85647618D01*
X187954819Y-85647618D02*
X186954819Y-85314285D01*
X186954819Y-84028570D02*
X186954819Y-83838094D01*
X186954819Y-83838094D02*
X187002438Y-83742856D01*
X187002438Y-83742856D02*
X187097676Y-83647618D01*
X187097676Y-83647618D02*
X187288152Y-83599999D01*
X187288152Y-83599999D02*
X187621485Y-83599999D01*
X187621485Y-83599999D02*
X187811961Y-83647618D01*
X187811961Y-83647618D02*
X187907200Y-83742856D01*
X187907200Y-83742856D02*
X187954819Y-83838094D01*
X187954819Y-83838094D02*
X187954819Y-84028570D01*
X187954819Y-84028570D02*
X187907200Y-84123808D01*
X187907200Y-84123808D02*
X187811961Y-84219046D01*
X187811961Y-84219046D02*
X187621485Y-84266665D01*
X187621485Y-84266665D02*
X187288152Y-84266665D01*
X187288152Y-84266665D02*
X187097676Y-84219046D01*
X187097676Y-84219046D02*
X187002438Y-84123808D01*
X187002438Y-84123808D02*
X186954819Y-84028570D01*
X187954819Y-83171427D02*
X186954819Y-83171427D01*
X187954819Y-82599999D02*
X187383390Y-83028570D01*
X186954819Y-82599999D02*
X187526247Y-83171427D01*
X187954819Y-103857142D02*
X186954819Y-103857142D01*
X187431009Y-103857142D02*
X187431009Y-103285714D01*
X187954819Y-103285714D02*
X186954819Y-103285714D01*
X186954819Y-102952380D02*
X187954819Y-102619047D01*
X187954819Y-102619047D02*
X186954819Y-102285714D01*
X187954819Y-100666666D02*
X187954819Y-101238094D01*
X187954819Y-100952380D02*
X186954819Y-100952380D01*
X186954819Y-100952380D02*
X187097676Y-101047618D01*
X187097676Y-101047618D02*
X187192914Y-101142856D01*
X187192914Y-101142856D02*
X187240533Y-101238094D01*
X186954819Y-100333332D02*
X186954819Y-99666666D01*
X186954819Y-99666666D02*
X187954819Y-100095237D01*
X186954819Y-99095237D02*
X186954819Y-98999999D01*
X186954819Y-98999999D02*
X187002438Y-98904761D01*
X187002438Y-98904761D02*
X187050057Y-98857142D01*
X187050057Y-98857142D02*
X187145295Y-98809523D01*
X187145295Y-98809523D02*
X187335771Y-98761904D01*
X187335771Y-98761904D02*
X187573866Y-98761904D01*
X187573866Y-98761904D02*
X187764342Y-98809523D01*
X187764342Y-98809523D02*
X187859580Y-98857142D01*
X187859580Y-98857142D02*
X187907200Y-98904761D01*
X187907200Y-98904761D02*
X187954819Y-98999999D01*
X187954819Y-98999999D02*
X187954819Y-99095237D01*
X187954819Y-99095237D02*
X187907200Y-99190475D01*
X187907200Y-99190475D02*
X187859580Y-99238094D01*
X187859580Y-99238094D02*
X187764342Y-99285713D01*
X187764342Y-99285713D02*
X187573866Y-99333332D01*
X187573866Y-99333332D02*
X187335771Y-99333332D01*
X187335771Y-99333332D02*
X187145295Y-99285713D01*
X187145295Y-99285713D02*
X187050057Y-99238094D01*
X187050057Y-99238094D02*
X187002438Y-99190475D01*
X187002438Y-99190475D02*
X186954819Y-99095237D01*
X186954819Y-98476189D02*
X187954819Y-98142856D01*
X187954819Y-98142856D02*
X186954819Y-97809523D01*
X186954819Y-96523808D02*
X186954819Y-96333332D01*
X186954819Y-96333332D02*
X187002438Y-96238094D01*
X187002438Y-96238094D02*
X187097676Y-96142856D01*
X187097676Y-96142856D02*
X187288152Y-96095237D01*
X187288152Y-96095237D02*
X187621485Y-96095237D01*
X187621485Y-96095237D02*
X187811961Y-96142856D01*
X187811961Y-96142856D02*
X187907200Y-96238094D01*
X187907200Y-96238094D02*
X187954819Y-96333332D01*
X187954819Y-96333332D02*
X187954819Y-96523808D01*
X187954819Y-96523808D02*
X187907200Y-96619046D01*
X187907200Y-96619046D02*
X187811961Y-96714284D01*
X187811961Y-96714284D02*
X187621485Y-96761903D01*
X187621485Y-96761903D02*
X187288152Y-96761903D01*
X187288152Y-96761903D02*
X187097676Y-96714284D01*
X187097676Y-96714284D02*
X187002438Y-96619046D01*
X187002438Y-96619046D02*
X186954819Y-96523808D01*
X187954819Y-95666665D02*
X186954819Y-95666665D01*
X187954819Y-95095237D02*
X187383390Y-95523808D01*
X186954819Y-95095237D02*
X187526247Y-95666665D01*
D11*
X120880928Y-100671428D02*
X121880928Y-100671428D01*
X121023785Y-100671428D02*
X120952357Y-100599999D01*
X120952357Y-100599999D02*
X120880928Y-100457142D01*
X120880928Y-100457142D02*
X120880928Y-100242856D01*
X120880928Y-100242856D02*
X120952357Y-100099999D01*
X120952357Y-100099999D02*
X121095214Y-100028571D01*
X121095214Y-100028571D02*
X121880928Y-100028571D01*
X121880928Y-99314285D02*
X120880928Y-99314285D01*
X120380928Y-99314285D02*
X120452357Y-99385713D01*
X120452357Y-99385713D02*
X120523785Y-99314285D01*
X120523785Y-99314285D02*
X120452357Y-99242856D01*
X120452357Y-99242856D02*
X120380928Y-99314285D01*
X120380928Y-99314285D02*
X120523785Y-99314285D01*
X121880928Y-98742856D02*
X120880928Y-97957142D01*
X120880928Y-98742856D02*
X121880928Y-97957142D01*
X121880928Y-97385713D02*
X120880928Y-97385713D01*
X120380928Y-97385713D02*
X120452357Y-97457141D01*
X120452357Y-97457141D02*
X120523785Y-97385713D01*
X120523785Y-97385713D02*
X120452357Y-97314284D01*
X120452357Y-97314284D02*
X120380928Y-97385713D01*
X120380928Y-97385713D02*
X120523785Y-97385713D01*
X121809500Y-96099998D02*
X121880928Y-96242855D01*
X121880928Y-96242855D02*
X121880928Y-96528570D01*
X121880928Y-96528570D02*
X121809500Y-96671427D01*
X121809500Y-96671427D02*
X121666642Y-96742855D01*
X121666642Y-96742855D02*
X121095214Y-96742855D01*
X121095214Y-96742855D02*
X120952357Y-96671427D01*
X120952357Y-96671427D02*
X120880928Y-96528570D01*
X120880928Y-96528570D02*
X120880928Y-96242855D01*
X120880928Y-96242855D02*
X120952357Y-96099998D01*
X120952357Y-96099998D02*
X121095214Y-96028570D01*
X121095214Y-96028570D02*
X121238071Y-96028570D01*
X121238071Y-96028570D02*
X121380928Y-96742855D01*
X121309500Y-95385713D02*
X121309500Y-94242856D01*
X121809500Y-92957141D02*
X121880928Y-93099998D01*
X121880928Y-93099998D02*
X121880928Y-93385713D01*
X121880928Y-93385713D02*
X121809500Y-93528570D01*
X121809500Y-93528570D02*
X121666642Y-93599998D01*
X121666642Y-93599998D02*
X121095214Y-93599998D01*
X121095214Y-93599998D02*
X120952357Y-93528570D01*
X120952357Y-93528570D02*
X120880928Y-93385713D01*
X120880928Y-93385713D02*
X120880928Y-93099998D01*
X120880928Y-93099998D02*
X120952357Y-92957141D01*
X120952357Y-92957141D02*
X121095214Y-92885713D01*
X121095214Y-92885713D02*
X121238071Y-92885713D01*
X121238071Y-92885713D02*
X121380928Y-93599998D01*
X121809500Y-92314284D02*
X121880928Y-92171427D01*
X121880928Y-92171427D02*
X121880928Y-91885713D01*
X121880928Y-91885713D02*
X121809500Y-91742856D01*
X121809500Y-91742856D02*
X121666642Y-91671427D01*
X121666642Y-91671427D02*
X121595214Y-91671427D01*
X121595214Y-91671427D02*
X121452357Y-91742856D01*
X121452357Y-91742856D02*
X121380928Y-91885713D01*
X121380928Y-91885713D02*
X121380928Y-92099999D01*
X121380928Y-92099999D02*
X121309500Y-92242856D01*
X121309500Y-92242856D02*
X121166642Y-92314284D01*
X121166642Y-92314284D02*
X121095214Y-92314284D01*
X121095214Y-92314284D02*
X120952357Y-92242856D01*
X120952357Y-92242856D02*
X120880928Y-92099999D01*
X120880928Y-92099999D02*
X120880928Y-91885713D01*
X120880928Y-91885713D02*
X120952357Y-91742856D01*
X120880928Y-91028570D02*
X122380928Y-91028570D01*
X120952357Y-91028570D02*
X120880928Y-90885713D01*
X120880928Y-90885713D02*
X120880928Y-90599998D01*
X120880928Y-90599998D02*
X120952357Y-90457141D01*
X120952357Y-90457141D02*
X121023785Y-90385713D01*
X121023785Y-90385713D02*
X121166642Y-90314284D01*
X121166642Y-90314284D02*
X121595214Y-90314284D01*
X121595214Y-90314284D02*
X121738071Y-90385713D01*
X121738071Y-90385713D02*
X121809500Y-90457141D01*
X121809500Y-90457141D02*
X121880928Y-90599998D01*
X121880928Y-90599998D02*
X121880928Y-90885713D01*
X121880928Y-90885713D02*
X121809500Y-91028570D01*
X120380928Y-89814284D02*
X120380928Y-88885712D01*
X120380928Y-88885712D02*
X120952357Y-89385712D01*
X120952357Y-89385712D02*
X120952357Y-89171427D01*
X120952357Y-89171427D02*
X121023785Y-89028570D01*
X121023785Y-89028570D02*
X121095214Y-88957141D01*
X121095214Y-88957141D02*
X121238071Y-88885712D01*
X121238071Y-88885712D02*
X121595214Y-88885712D01*
X121595214Y-88885712D02*
X121738071Y-88957141D01*
X121738071Y-88957141D02*
X121809500Y-89028570D01*
X121809500Y-89028570D02*
X121880928Y-89171427D01*
X121880928Y-89171427D02*
X121880928Y-89599998D01*
X121880928Y-89599998D02*
X121809500Y-89742855D01*
X121809500Y-89742855D02*
X121738071Y-89814284D01*
X120523785Y-88314284D02*
X120452357Y-88242856D01*
X120452357Y-88242856D02*
X120380928Y-88099999D01*
X120380928Y-88099999D02*
X120380928Y-87742856D01*
X120380928Y-87742856D02*
X120452357Y-87599999D01*
X120452357Y-87599999D02*
X120523785Y-87528570D01*
X120523785Y-87528570D02*
X120666642Y-87457141D01*
X120666642Y-87457141D02*
X120809500Y-87457141D01*
X120809500Y-87457141D02*
X121023785Y-87528570D01*
X121023785Y-87528570D02*
X121880928Y-88385713D01*
X121880928Y-88385713D02*
X121880928Y-87457141D01*
D10*
X138166667Y-82907200D02*
X138309524Y-82954819D01*
X138309524Y-82954819D02*
X138547619Y-82954819D01*
X138547619Y-82954819D02*
X138642857Y-82907200D01*
X138642857Y-82907200D02*
X138690476Y-82859580D01*
X138690476Y-82859580D02*
X138738095Y-82764342D01*
X138738095Y-82764342D02*
X138738095Y-82669104D01*
X138738095Y-82669104D02*
X138690476Y-82573866D01*
X138690476Y-82573866D02*
X138642857Y-82526247D01*
X138642857Y-82526247D02*
X138547619Y-82478628D01*
X138547619Y-82478628D02*
X138357143Y-82431009D01*
X138357143Y-82431009D02*
X138261905Y-82383390D01*
X138261905Y-82383390D02*
X138214286Y-82335771D01*
X138214286Y-82335771D02*
X138166667Y-82240533D01*
X138166667Y-82240533D02*
X138166667Y-82145295D01*
X138166667Y-82145295D02*
X138214286Y-82050057D01*
X138214286Y-82050057D02*
X138261905Y-82002438D01*
X138261905Y-82002438D02*
X138357143Y-81954819D01*
X138357143Y-81954819D02*
X138595238Y-81954819D01*
X138595238Y-81954819D02*
X138738095Y-82002438D01*
X139071429Y-81954819D02*
X139309524Y-82954819D01*
X139309524Y-82954819D02*
X139500000Y-82240533D01*
X139500000Y-82240533D02*
X139690476Y-82954819D01*
X139690476Y-82954819D02*
X139928572Y-81954819D01*
X140261905Y-82050057D02*
X140309524Y-82002438D01*
X140309524Y-82002438D02*
X140404762Y-81954819D01*
X140404762Y-81954819D02*
X140642857Y-81954819D01*
X140642857Y-81954819D02*
X140738095Y-82002438D01*
X140738095Y-82002438D02*
X140785714Y-82050057D01*
X140785714Y-82050057D02*
X140833333Y-82145295D01*
X140833333Y-82145295D02*
X140833333Y-82240533D01*
X140833333Y-82240533D02*
X140785714Y-82383390D01*
X140785714Y-82383390D02*
X140214286Y-82954819D01*
X140214286Y-82954819D02*
X140833333Y-82954819D01*
X138142857Y-88431009D02*
X138285714Y-88478628D01*
X138285714Y-88478628D02*
X138333333Y-88526247D01*
X138333333Y-88526247D02*
X138380952Y-88621485D01*
X138380952Y-88621485D02*
X138380952Y-88764342D01*
X138380952Y-88764342D02*
X138333333Y-88859580D01*
X138333333Y-88859580D02*
X138285714Y-88907200D01*
X138285714Y-88907200D02*
X138190476Y-88954819D01*
X138190476Y-88954819D02*
X137809524Y-88954819D01*
X137809524Y-88954819D02*
X137809524Y-87954819D01*
X137809524Y-87954819D02*
X138142857Y-87954819D01*
X138142857Y-87954819D02*
X138238095Y-88002438D01*
X138238095Y-88002438D02*
X138285714Y-88050057D01*
X138285714Y-88050057D02*
X138333333Y-88145295D01*
X138333333Y-88145295D02*
X138333333Y-88240533D01*
X138333333Y-88240533D02*
X138285714Y-88335771D01*
X138285714Y-88335771D02*
X138238095Y-88383390D01*
X138238095Y-88383390D02*
X138142857Y-88431009D01*
X138142857Y-88431009D02*
X137809524Y-88431009D01*
X139000000Y-87954819D02*
X139190476Y-87954819D01*
X139190476Y-87954819D02*
X139285714Y-88002438D01*
X139285714Y-88002438D02*
X139380952Y-88097676D01*
X139380952Y-88097676D02*
X139428571Y-88288152D01*
X139428571Y-88288152D02*
X139428571Y-88621485D01*
X139428571Y-88621485D02*
X139380952Y-88811961D01*
X139380952Y-88811961D02*
X139285714Y-88907200D01*
X139285714Y-88907200D02*
X139190476Y-88954819D01*
X139190476Y-88954819D02*
X139000000Y-88954819D01*
X139000000Y-88954819D02*
X138904762Y-88907200D01*
X138904762Y-88907200D02*
X138809524Y-88811961D01*
X138809524Y-88811961D02*
X138761905Y-88621485D01*
X138761905Y-88621485D02*
X138761905Y-88288152D01*
X138761905Y-88288152D02*
X138809524Y-88097676D01*
X138809524Y-88097676D02*
X138904762Y-88002438D01*
X138904762Y-88002438D02*
X139000000Y-87954819D01*
X140047619Y-87954819D02*
X140238095Y-87954819D01*
X140238095Y-87954819D02*
X140333333Y-88002438D01*
X140333333Y-88002438D02*
X140428571Y-88097676D01*
X140428571Y-88097676D02*
X140476190Y-88288152D01*
X140476190Y-88288152D02*
X140476190Y-88621485D01*
X140476190Y-88621485D02*
X140428571Y-88811961D01*
X140428571Y-88811961D02*
X140333333Y-88907200D01*
X140333333Y-88907200D02*
X140238095Y-88954819D01*
X140238095Y-88954819D02*
X140047619Y-88954819D01*
X140047619Y-88954819D02*
X139952381Y-88907200D01*
X139952381Y-88907200D02*
X139857143Y-88811961D01*
X139857143Y-88811961D02*
X139809524Y-88621485D01*
X139809524Y-88621485D02*
X139809524Y-88288152D01*
X139809524Y-88288152D02*
X139857143Y-88097676D01*
X139857143Y-88097676D02*
X139952381Y-88002438D01*
X139952381Y-88002438D02*
X140047619Y-87954819D01*
X140761905Y-87954819D02*
X141333333Y-87954819D01*
X141047619Y-88954819D02*
X141047619Y-87954819D01*
D12*
X128062618Y-137077126D02*
X128062618Y-135807126D01*
X128062618Y-135807126D02*
X128364999Y-135807126D01*
X128364999Y-135807126D02*
X128546428Y-135867602D01*
X128546428Y-135867602D02*
X128667380Y-135988554D01*
X128667380Y-135988554D02*
X128727857Y-136109507D01*
X128727857Y-136109507D02*
X128788333Y-136351411D01*
X128788333Y-136351411D02*
X128788333Y-136532840D01*
X128788333Y-136532840D02*
X128727857Y-136774745D01*
X128727857Y-136774745D02*
X128667380Y-136895697D01*
X128667380Y-136895697D02*
X128546428Y-137016650D01*
X128546428Y-137016650D02*
X128364999Y-137077126D01*
X128364999Y-137077126D02*
X128062618Y-137077126D01*
X129272142Y-135928078D02*
X129332618Y-135867602D01*
X129332618Y-135867602D02*
X129453571Y-135807126D01*
X129453571Y-135807126D02*
X129755952Y-135807126D01*
X129755952Y-135807126D02*
X129876904Y-135867602D01*
X129876904Y-135867602D02*
X129937380Y-135928078D01*
X129937380Y-135928078D02*
X129997857Y-136049030D01*
X129997857Y-136049030D02*
X129997857Y-136169983D01*
X129997857Y-136169983D02*
X129937380Y-136351411D01*
X129937380Y-136351411D02*
X129211666Y-137077126D01*
X129211666Y-137077126D02*
X129997857Y-137077126D01*
D10*
X158985714Y-84654819D02*
X158985714Y-83654819D01*
X158985714Y-83654819D02*
X159366666Y-83654819D01*
X159366666Y-83654819D02*
X159461904Y-83702438D01*
X159461904Y-83702438D02*
X159509523Y-83750057D01*
X159509523Y-83750057D02*
X159557142Y-83845295D01*
X159557142Y-83845295D02*
X159557142Y-83988152D01*
X159557142Y-83988152D02*
X159509523Y-84083390D01*
X159509523Y-84083390D02*
X159461904Y-84131009D01*
X159461904Y-84131009D02*
X159366666Y-84178628D01*
X159366666Y-84178628D02*
X158985714Y-84178628D01*
X159938095Y-84607200D02*
X160080952Y-84654819D01*
X160080952Y-84654819D02*
X160319047Y-84654819D01*
X160319047Y-84654819D02*
X160414285Y-84607200D01*
X160414285Y-84607200D02*
X160461904Y-84559580D01*
X160461904Y-84559580D02*
X160509523Y-84464342D01*
X160509523Y-84464342D02*
X160509523Y-84369104D01*
X160509523Y-84369104D02*
X160461904Y-84273866D01*
X160461904Y-84273866D02*
X160414285Y-84226247D01*
X160414285Y-84226247D02*
X160319047Y-84178628D01*
X160319047Y-84178628D02*
X160128571Y-84131009D01*
X160128571Y-84131009D02*
X160033333Y-84083390D01*
X160033333Y-84083390D02*
X159985714Y-84035771D01*
X159985714Y-84035771D02*
X159938095Y-83940533D01*
X159938095Y-83940533D02*
X159938095Y-83845295D01*
X159938095Y-83845295D02*
X159985714Y-83750057D01*
X159985714Y-83750057D02*
X160033333Y-83702438D01*
X160033333Y-83702438D02*
X160128571Y-83654819D01*
X160128571Y-83654819D02*
X160366666Y-83654819D01*
X160366666Y-83654819D02*
X160509523Y-83702438D01*
X161461904Y-84654819D02*
X160890476Y-84654819D01*
X161176190Y-84654819D02*
X161176190Y-83654819D01*
X161176190Y-83654819D02*
X161080952Y-83797676D01*
X161080952Y-83797676D02*
X160985714Y-83892914D01*
X160985714Y-83892914D02*
X160890476Y-83940533D01*
X182254819Y-85142857D02*
X181778628Y-85476190D01*
X182254819Y-85714285D02*
X181254819Y-85714285D01*
X181254819Y-85714285D02*
X181254819Y-85333333D01*
X181254819Y-85333333D02*
X181302438Y-85238095D01*
X181302438Y-85238095D02*
X181350057Y-85190476D01*
X181350057Y-85190476D02*
X181445295Y-85142857D01*
X181445295Y-85142857D02*
X181588152Y-85142857D01*
X181588152Y-85142857D02*
X181683390Y-85190476D01*
X181683390Y-85190476D02*
X181731009Y-85238095D01*
X181731009Y-85238095D02*
X181778628Y-85333333D01*
X181778628Y-85333333D02*
X181778628Y-85714285D01*
X182254819Y-84190476D02*
X182254819Y-84761904D01*
X182254819Y-84476190D02*
X181254819Y-84476190D01*
X181254819Y-84476190D02*
X181397676Y-84571428D01*
X181397676Y-84571428D02*
X181492914Y-84666666D01*
X181492914Y-84666666D02*
X181540533Y-84761904D01*
X181254819Y-83857142D02*
X181254819Y-83190476D01*
X181254819Y-83190476D02*
X182254819Y-83619047D01*
X185854819Y-84933333D02*
X185854819Y-85504761D01*
X185854819Y-85219047D02*
X184854819Y-85219047D01*
X184854819Y-85219047D02*
X184997676Y-85314285D01*
X184997676Y-85314285D02*
X185092914Y-85409523D01*
X185092914Y-85409523D02*
X185140533Y-85504761D01*
X185759580Y-84504761D02*
X185807200Y-84457142D01*
X185807200Y-84457142D02*
X185854819Y-84504761D01*
X185854819Y-84504761D02*
X185807200Y-84552380D01*
X185807200Y-84552380D02*
X185759580Y-84504761D01*
X185759580Y-84504761D02*
X185854819Y-84504761D01*
X184854819Y-83552381D02*
X184854819Y-84028571D01*
X184854819Y-84028571D02*
X185331009Y-84076190D01*
X185331009Y-84076190D02*
X185283390Y-84028571D01*
X185283390Y-84028571D02*
X185235771Y-83933333D01*
X185235771Y-83933333D02*
X185235771Y-83695238D01*
X185235771Y-83695238D02*
X185283390Y-83600000D01*
X185283390Y-83600000D02*
X185331009Y-83552381D01*
X185331009Y-83552381D02*
X185426247Y-83504762D01*
X185426247Y-83504762D02*
X185664342Y-83504762D01*
X185664342Y-83504762D02*
X185759580Y-83552381D01*
X185759580Y-83552381D02*
X185807200Y-83600000D01*
X185807200Y-83600000D02*
X185854819Y-83695238D01*
X185854819Y-83695238D02*
X185854819Y-83933333D01*
X185854819Y-83933333D02*
X185807200Y-84028571D01*
X185807200Y-84028571D02*
X185759580Y-84076190D01*
X185854819Y-83076190D02*
X184854819Y-83076190D01*
X185473866Y-82980952D02*
X185854819Y-82695238D01*
X185188152Y-82695238D02*
X185569104Y-83076190D01*
X159966666Y-79554819D02*
X159966666Y-80269104D01*
X159966666Y-80269104D02*
X159919047Y-80411961D01*
X159919047Y-80411961D02*
X159823809Y-80507200D01*
X159823809Y-80507200D02*
X159680952Y-80554819D01*
X159680952Y-80554819D02*
X159585714Y-80554819D01*
X160966666Y-80554819D02*
X160395238Y-80554819D01*
X160680952Y-80554819D02*
X160680952Y-79554819D01*
X160680952Y-79554819D02*
X160585714Y-79697676D01*
X160585714Y-79697676D02*
X160490476Y-79792914D01*
X160490476Y-79792914D02*
X160395238Y-79840533D01*
X129666667Y-82907200D02*
X129809524Y-82954819D01*
X129809524Y-82954819D02*
X130047619Y-82954819D01*
X130047619Y-82954819D02*
X130142857Y-82907200D01*
X130142857Y-82907200D02*
X130190476Y-82859580D01*
X130190476Y-82859580D02*
X130238095Y-82764342D01*
X130238095Y-82764342D02*
X130238095Y-82669104D01*
X130238095Y-82669104D02*
X130190476Y-82573866D01*
X130190476Y-82573866D02*
X130142857Y-82526247D01*
X130142857Y-82526247D02*
X130047619Y-82478628D01*
X130047619Y-82478628D02*
X129857143Y-82431009D01*
X129857143Y-82431009D02*
X129761905Y-82383390D01*
X129761905Y-82383390D02*
X129714286Y-82335771D01*
X129714286Y-82335771D02*
X129666667Y-82240533D01*
X129666667Y-82240533D02*
X129666667Y-82145295D01*
X129666667Y-82145295D02*
X129714286Y-82050057D01*
X129714286Y-82050057D02*
X129761905Y-82002438D01*
X129761905Y-82002438D02*
X129857143Y-81954819D01*
X129857143Y-81954819D02*
X130095238Y-81954819D01*
X130095238Y-81954819D02*
X130238095Y-82002438D01*
X130571429Y-81954819D02*
X130809524Y-82954819D01*
X130809524Y-82954819D02*
X131000000Y-82240533D01*
X131000000Y-82240533D02*
X131190476Y-82954819D01*
X131190476Y-82954819D02*
X131428572Y-81954819D01*
X132333333Y-82954819D02*
X131761905Y-82954819D01*
X132047619Y-82954819D02*
X132047619Y-81954819D01*
X132047619Y-81954819D02*
X131952381Y-82097676D01*
X131952381Y-82097676D02*
X131857143Y-82192914D01*
X131857143Y-82192914D02*
X131761905Y-82240533D01*
X129547618Y-88954819D02*
X129214285Y-88478628D01*
X128976190Y-88954819D02*
X128976190Y-87954819D01*
X128976190Y-87954819D02*
X129357142Y-87954819D01*
X129357142Y-87954819D02*
X129452380Y-88002438D01*
X129452380Y-88002438D02*
X129499999Y-88050057D01*
X129499999Y-88050057D02*
X129547618Y-88145295D01*
X129547618Y-88145295D02*
X129547618Y-88288152D01*
X129547618Y-88288152D02*
X129499999Y-88383390D01*
X129499999Y-88383390D02*
X129452380Y-88431009D01*
X129452380Y-88431009D02*
X129357142Y-88478628D01*
X129357142Y-88478628D02*
X128976190Y-88478628D01*
X129976190Y-88431009D02*
X130309523Y-88431009D01*
X130452380Y-88954819D02*
X129976190Y-88954819D01*
X129976190Y-88954819D02*
X129976190Y-87954819D01*
X129976190Y-87954819D02*
X130452380Y-87954819D01*
X130833333Y-88907200D02*
X130976190Y-88954819D01*
X130976190Y-88954819D02*
X131214285Y-88954819D01*
X131214285Y-88954819D02*
X131309523Y-88907200D01*
X131309523Y-88907200D02*
X131357142Y-88859580D01*
X131357142Y-88859580D02*
X131404761Y-88764342D01*
X131404761Y-88764342D02*
X131404761Y-88669104D01*
X131404761Y-88669104D02*
X131357142Y-88573866D01*
X131357142Y-88573866D02*
X131309523Y-88526247D01*
X131309523Y-88526247D02*
X131214285Y-88478628D01*
X131214285Y-88478628D02*
X131023809Y-88431009D01*
X131023809Y-88431009D02*
X130928571Y-88383390D01*
X130928571Y-88383390D02*
X130880952Y-88335771D01*
X130880952Y-88335771D02*
X130833333Y-88240533D01*
X130833333Y-88240533D02*
X130833333Y-88145295D01*
X130833333Y-88145295D02*
X130880952Y-88050057D01*
X130880952Y-88050057D02*
X130928571Y-88002438D01*
X130928571Y-88002438D02*
X131023809Y-87954819D01*
X131023809Y-87954819D02*
X131261904Y-87954819D01*
X131261904Y-87954819D02*
X131404761Y-88002438D01*
X131833333Y-88431009D02*
X132166666Y-88431009D01*
X132309523Y-88954819D02*
X131833333Y-88954819D01*
X131833333Y-88954819D02*
X131833333Y-87954819D01*
X131833333Y-87954819D02*
X132309523Y-87954819D01*
X132595238Y-87954819D02*
X133166666Y-87954819D01*
X132880952Y-88954819D02*
X132880952Y-87954819D01*
X126038095Y-97504819D02*
X126038095Y-98314342D01*
X126038095Y-98314342D02*
X126085714Y-98409580D01*
X126085714Y-98409580D02*
X126133333Y-98457200D01*
X126133333Y-98457200D02*
X126228571Y-98504819D01*
X126228571Y-98504819D02*
X126419047Y-98504819D01*
X126419047Y-98504819D02*
X126514285Y-98457200D01*
X126514285Y-98457200D02*
X126561904Y-98409580D01*
X126561904Y-98409580D02*
X126609523Y-98314342D01*
X126609523Y-98314342D02*
X126609523Y-97504819D01*
X126990476Y-97504819D02*
X127609523Y-97504819D01*
X127609523Y-97504819D02*
X127276190Y-97885771D01*
X127276190Y-97885771D02*
X127419047Y-97885771D01*
X127419047Y-97885771D02*
X127514285Y-97933390D01*
X127514285Y-97933390D02*
X127561904Y-97981009D01*
X127561904Y-97981009D02*
X127609523Y-98076247D01*
X127609523Y-98076247D02*
X127609523Y-98314342D01*
X127609523Y-98314342D02*
X127561904Y-98409580D01*
X127561904Y-98409580D02*
X127514285Y-98457200D01*
X127514285Y-98457200D02*
X127419047Y-98504819D01*
X127419047Y-98504819D02*
X127133333Y-98504819D01*
X127133333Y-98504819D02*
X127038095Y-98457200D01*
X127038095Y-98457200D02*
X126990476Y-98409580D01*
X128352200Y-94853019D02*
X128352200Y-95091114D01*
X128114105Y-94995876D02*
X128352200Y-95091114D01*
X128352200Y-95091114D02*
X128590295Y-94995876D01*
X128209343Y-95281590D02*
X128352200Y-95091114D01*
X128352200Y-95091114D02*
X128495057Y-95281590D01*
X178238095Y-110144819D02*
X178238095Y-110954342D01*
X178238095Y-110954342D02*
X178285714Y-111049580D01*
X178285714Y-111049580D02*
X178333333Y-111097200D01*
X178333333Y-111097200D02*
X178428571Y-111144819D01*
X178428571Y-111144819D02*
X178619047Y-111144819D01*
X178619047Y-111144819D02*
X178714285Y-111097200D01*
X178714285Y-111097200D02*
X178761904Y-111049580D01*
X178761904Y-111049580D02*
X178809523Y-110954342D01*
X178809523Y-110954342D02*
X178809523Y-110144819D01*
X179714285Y-110144819D02*
X179523809Y-110144819D01*
X179523809Y-110144819D02*
X179428571Y-110192438D01*
X179428571Y-110192438D02*
X179380952Y-110240057D01*
X179380952Y-110240057D02*
X179285714Y-110382914D01*
X179285714Y-110382914D02*
X179238095Y-110573390D01*
X179238095Y-110573390D02*
X179238095Y-110954342D01*
X179238095Y-110954342D02*
X179285714Y-111049580D01*
X179285714Y-111049580D02*
X179333333Y-111097200D01*
X179333333Y-111097200D02*
X179428571Y-111144819D01*
X179428571Y-111144819D02*
X179619047Y-111144819D01*
X179619047Y-111144819D02*
X179714285Y-111097200D01*
X179714285Y-111097200D02*
X179761904Y-111049580D01*
X179761904Y-111049580D02*
X179809523Y-110954342D01*
X179809523Y-110954342D02*
X179809523Y-110716247D01*
X179809523Y-110716247D02*
X179761904Y-110621009D01*
X179761904Y-110621009D02*
X179714285Y-110573390D01*
X179714285Y-110573390D02*
X179619047Y-110525771D01*
X179619047Y-110525771D02*
X179428571Y-110525771D01*
X179428571Y-110525771D02*
X179333333Y-110573390D01*
X179333333Y-110573390D02*
X179285714Y-110621009D01*
X179285714Y-110621009D02*
X179238095Y-110716247D01*
X175285714Y-116607200D02*
X175428571Y-116654819D01*
X175428571Y-116654819D02*
X175666666Y-116654819D01*
X175666666Y-116654819D02*
X175761904Y-116607200D01*
X175761904Y-116607200D02*
X175809523Y-116559580D01*
X175809523Y-116559580D02*
X175857142Y-116464342D01*
X175857142Y-116464342D02*
X175857142Y-116369104D01*
X175857142Y-116369104D02*
X175809523Y-116273866D01*
X175809523Y-116273866D02*
X175761904Y-116226247D01*
X175761904Y-116226247D02*
X175666666Y-116178628D01*
X175666666Y-116178628D02*
X175476190Y-116131009D01*
X175476190Y-116131009D02*
X175380952Y-116083390D01*
X175380952Y-116083390D02*
X175333333Y-116035771D01*
X175333333Y-116035771D02*
X175285714Y-115940533D01*
X175285714Y-115940533D02*
X175285714Y-115845295D01*
X175285714Y-115845295D02*
X175333333Y-115750057D01*
X175333333Y-115750057D02*
X175380952Y-115702438D01*
X175380952Y-115702438D02*
X175476190Y-115654819D01*
X175476190Y-115654819D02*
X175714285Y-115654819D01*
X175714285Y-115654819D02*
X175857142Y-115702438D01*
X176285714Y-116654819D02*
X176285714Y-115654819D01*
X176285714Y-115654819D02*
X176857142Y-116654819D01*
X176857142Y-116654819D02*
X176857142Y-115654819D01*
X177238095Y-115654819D02*
X177904761Y-115654819D01*
X177904761Y-115654819D02*
X177476190Y-116654819D01*
X178714285Y-115988152D02*
X178714285Y-116654819D01*
X178476190Y-115607200D02*
X178238095Y-116321485D01*
X178238095Y-116321485D02*
X178857142Y-116321485D01*
X179761904Y-116654819D02*
X179190476Y-116654819D01*
X179476190Y-116654819D02*
X179476190Y-115654819D01*
X179476190Y-115654819D02*
X179380952Y-115797676D01*
X179380952Y-115797676D02*
X179285714Y-115892914D01*
X179285714Y-115892914D02*
X179190476Y-115940533D01*
X180619047Y-115988152D02*
X180619047Y-116654819D01*
X180380952Y-115607200D02*
X180142857Y-116321485D01*
X180142857Y-116321485D02*
X180761904Y-116321485D01*
X181666666Y-116654819D02*
X181095238Y-116654819D01*
X181380952Y-116654819D02*
X181380952Y-115654819D01*
X181380952Y-115654819D02*
X181285714Y-115797676D01*
X181285714Y-115797676D02*
X181190476Y-115892914D01*
X181190476Y-115892914D02*
X181095238Y-115940533D01*
X182095238Y-116654819D02*
X182095238Y-115654819D01*
X182095238Y-115654819D02*
X182666666Y-116654819D01*
X182666666Y-116654819D02*
X182666666Y-115654819D01*
X128238095Y-110149819D02*
X128238095Y-110959342D01*
X128238095Y-110959342D02*
X128285714Y-111054580D01*
X128285714Y-111054580D02*
X128333333Y-111102200D01*
X128333333Y-111102200D02*
X128428571Y-111149819D01*
X128428571Y-111149819D02*
X128619047Y-111149819D01*
X128619047Y-111149819D02*
X128714285Y-111102200D01*
X128714285Y-111102200D02*
X128761904Y-111054580D01*
X128761904Y-111054580D02*
X128809523Y-110959342D01*
X128809523Y-110959342D02*
X128809523Y-110149819D01*
X129714285Y-110483152D02*
X129714285Y-111149819D01*
X129476190Y-110102200D02*
X129238095Y-110816485D01*
X129238095Y-110816485D02*
X129857142Y-110816485D01*
X125285714Y-116607200D02*
X125428571Y-116654819D01*
X125428571Y-116654819D02*
X125666666Y-116654819D01*
X125666666Y-116654819D02*
X125761904Y-116607200D01*
X125761904Y-116607200D02*
X125809523Y-116559580D01*
X125809523Y-116559580D02*
X125857142Y-116464342D01*
X125857142Y-116464342D02*
X125857142Y-116369104D01*
X125857142Y-116369104D02*
X125809523Y-116273866D01*
X125809523Y-116273866D02*
X125761904Y-116226247D01*
X125761904Y-116226247D02*
X125666666Y-116178628D01*
X125666666Y-116178628D02*
X125476190Y-116131009D01*
X125476190Y-116131009D02*
X125380952Y-116083390D01*
X125380952Y-116083390D02*
X125333333Y-116035771D01*
X125333333Y-116035771D02*
X125285714Y-115940533D01*
X125285714Y-115940533D02*
X125285714Y-115845295D01*
X125285714Y-115845295D02*
X125333333Y-115750057D01*
X125333333Y-115750057D02*
X125380952Y-115702438D01*
X125380952Y-115702438D02*
X125476190Y-115654819D01*
X125476190Y-115654819D02*
X125714285Y-115654819D01*
X125714285Y-115654819D02*
X125857142Y-115702438D01*
X126285714Y-116654819D02*
X126285714Y-115654819D01*
X126285714Y-115654819D02*
X126857142Y-116654819D01*
X126857142Y-116654819D02*
X126857142Y-115654819D01*
X127238095Y-115654819D02*
X127904761Y-115654819D01*
X127904761Y-115654819D02*
X127476190Y-116654819D01*
X128714285Y-115988152D02*
X128714285Y-116654819D01*
X128476190Y-115607200D02*
X128238095Y-116321485D01*
X128238095Y-116321485D02*
X128857142Y-116321485D01*
X129761904Y-116654819D02*
X129190476Y-116654819D01*
X129476190Y-116654819D02*
X129476190Y-115654819D01*
X129476190Y-115654819D02*
X129380952Y-115797676D01*
X129380952Y-115797676D02*
X129285714Y-115892914D01*
X129285714Y-115892914D02*
X129190476Y-115940533D01*
X130619047Y-115988152D02*
X130619047Y-116654819D01*
X130380952Y-115607200D02*
X130142857Y-116321485D01*
X130142857Y-116321485D02*
X130761904Y-116321485D01*
X131666666Y-116654819D02*
X131095238Y-116654819D01*
X131380952Y-116654819D02*
X131380952Y-115654819D01*
X131380952Y-115654819D02*
X131285714Y-115797676D01*
X131285714Y-115797676D02*
X131190476Y-115892914D01*
X131190476Y-115892914D02*
X131095238Y-115940533D01*
X132095238Y-116654819D02*
X132095238Y-115654819D01*
X132095238Y-115654819D02*
X132666666Y-116654819D01*
X132666666Y-116654819D02*
X132666666Y-115654819D01*
X153238095Y-110144819D02*
X153238095Y-110954342D01*
X153238095Y-110954342D02*
X153285714Y-111049580D01*
X153285714Y-111049580D02*
X153333333Y-111097200D01*
X153333333Y-111097200D02*
X153428571Y-111144819D01*
X153428571Y-111144819D02*
X153619047Y-111144819D01*
X153619047Y-111144819D02*
X153714285Y-111097200D01*
X153714285Y-111097200D02*
X153761904Y-111049580D01*
X153761904Y-111049580D02*
X153809523Y-110954342D01*
X153809523Y-110954342D02*
X153809523Y-110144819D01*
X154761904Y-110144819D02*
X154285714Y-110144819D01*
X154285714Y-110144819D02*
X154238095Y-110621009D01*
X154238095Y-110621009D02*
X154285714Y-110573390D01*
X154285714Y-110573390D02*
X154380952Y-110525771D01*
X154380952Y-110525771D02*
X154619047Y-110525771D01*
X154619047Y-110525771D02*
X154714285Y-110573390D01*
X154714285Y-110573390D02*
X154761904Y-110621009D01*
X154761904Y-110621009D02*
X154809523Y-110716247D01*
X154809523Y-110716247D02*
X154809523Y-110954342D01*
X154809523Y-110954342D02*
X154761904Y-111049580D01*
X154761904Y-111049580D02*
X154714285Y-111097200D01*
X154714285Y-111097200D02*
X154619047Y-111144819D01*
X154619047Y-111144819D02*
X154380952Y-111144819D01*
X154380952Y-111144819D02*
X154285714Y-111097200D01*
X154285714Y-111097200D02*
X154238095Y-111049580D01*
X150285714Y-116607200D02*
X150428571Y-116654819D01*
X150428571Y-116654819D02*
X150666666Y-116654819D01*
X150666666Y-116654819D02*
X150761904Y-116607200D01*
X150761904Y-116607200D02*
X150809523Y-116559580D01*
X150809523Y-116559580D02*
X150857142Y-116464342D01*
X150857142Y-116464342D02*
X150857142Y-116369104D01*
X150857142Y-116369104D02*
X150809523Y-116273866D01*
X150809523Y-116273866D02*
X150761904Y-116226247D01*
X150761904Y-116226247D02*
X150666666Y-116178628D01*
X150666666Y-116178628D02*
X150476190Y-116131009D01*
X150476190Y-116131009D02*
X150380952Y-116083390D01*
X150380952Y-116083390D02*
X150333333Y-116035771D01*
X150333333Y-116035771D02*
X150285714Y-115940533D01*
X150285714Y-115940533D02*
X150285714Y-115845295D01*
X150285714Y-115845295D02*
X150333333Y-115750057D01*
X150333333Y-115750057D02*
X150380952Y-115702438D01*
X150380952Y-115702438D02*
X150476190Y-115654819D01*
X150476190Y-115654819D02*
X150714285Y-115654819D01*
X150714285Y-115654819D02*
X150857142Y-115702438D01*
X151285714Y-116654819D02*
X151285714Y-115654819D01*
X151285714Y-115654819D02*
X151857142Y-116654819D01*
X151857142Y-116654819D02*
X151857142Y-115654819D01*
X152238095Y-115654819D02*
X152904761Y-115654819D01*
X152904761Y-115654819D02*
X152476190Y-116654819D01*
X153714285Y-115988152D02*
X153714285Y-116654819D01*
X153476190Y-115607200D02*
X153238095Y-116321485D01*
X153238095Y-116321485D02*
X153857142Y-116321485D01*
X154761904Y-116654819D02*
X154190476Y-116654819D01*
X154476190Y-116654819D02*
X154476190Y-115654819D01*
X154476190Y-115654819D02*
X154380952Y-115797676D01*
X154380952Y-115797676D02*
X154285714Y-115892914D01*
X154285714Y-115892914D02*
X154190476Y-115940533D01*
X155619047Y-115988152D02*
X155619047Y-116654819D01*
X155380952Y-115607200D02*
X155142857Y-116321485D01*
X155142857Y-116321485D02*
X155761904Y-116321485D01*
X156666666Y-116654819D02*
X156095238Y-116654819D01*
X156380952Y-116654819D02*
X156380952Y-115654819D01*
X156380952Y-115654819D02*
X156285714Y-115797676D01*
X156285714Y-115797676D02*
X156190476Y-115892914D01*
X156190476Y-115892914D02*
X156095238Y-115940533D01*
X157095238Y-116654819D02*
X157095238Y-115654819D01*
X157095238Y-115654819D02*
X157666666Y-116654819D01*
X157666666Y-116654819D02*
X157666666Y-115654819D01*
X138857142Y-132254819D02*
X138523809Y-131778628D01*
X138285714Y-132254819D02*
X138285714Y-131254819D01*
X138285714Y-131254819D02*
X138666666Y-131254819D01*
X138666666Y-131254819D02*
X138761904Y-131302438D01*
X138761904Y-131302438D02*
X138809523Y-131350057D01*
X138809523Y-131350057D02*
X138857142Y-131445295D01*
X138857142Y-131445295D02*
X138857142Y-131588152D01*
X138857142Y-131588152D02*
X138809523Y-131683390D01*
X138809523Y-131683390D02*
X138761904Y-131731009D01*
X138761904Y-131731009D02*
X138666666Y-131778628D01*
X138666666Y-131778628D02*
X138285714Y-131778628D01*
X139809523Y-132254819D02*
X139238095Y-132254819D01*
X139523809Y-132254819D02*
X139523809Y-131254819D01*
X139523809Y-131254819D02*
X139428571Y-131397676D01*
X139428571Y-131397676D02*
X139333333Y-131492914D01*
X139333333Y-131492914D02*
X139238095Y-131540533D01*
X140428571Y-131254819D02*
X140523809Y-131254819D01*
X140523809Y-131254819D02*
X140619047Y-131302438D01*
X140619047Y-131302438D02*
X140666666Y-131350057D01*
X140666666Y-131350057D02*
X140714285Y-131445295D01*
X140714285Y-131445295D02*
X140761904Y-131635771D01*
X140761904Y-131635771D02*
X140761904Y-131873866D01*
X140761904Y-131873866D02*
X140714285Y-132064342D01*
X140714285Y-132064342D02*
X140666666Y-132159580D01*
X140666666Y-132159580D02*
X140619047Y-132207200D01*
X140619047Y-132207200D02*
X140523809Y-132254819D01*
X140523809Y-132254819D02*
X140428571Y-132254819D01*
X140428571Y-132254819D02*
X140333333Y-132207200D01*
X140333333Y-132207200D02*
X140285714Y-132159580D01*
X140285714Y-132159580D02*
X140238095Y-132064342D01*
X140238095Y-132064342D02*
X140190476Y-131873866D01*
X140190476Y-131873866D02*
X140190476Y-131635771D01*
X140190476Y-131635771D02*
X140238095Y-131445295D01*
X140238095Y-131445295D02*
X140285714Y-131350057D01*
X140285714Y-131350057D02*
X140333333Y-131302438D01*
X140333333Y-131302438D02*
X140428571Y-131254819D01*
X138904761Y-133454819D02*
X138333333Y-133454819D01*
X138619047Y-133454819D02*
X138619047Y-132454819D01*
X138619047Y-132454819D02*
X138523809Y-132597676D01*
X138523809Y-132597676D02*
X138428571Y-132692914D01*
X138428571Y-132692914D02*
X138333333Y-132740533D01*
X139476190Y-132883390D02*
X139380952Y-132835771D01*
X139380952Y-132835771D02*
X139333333Y-132788152D01*
X139333333Y-132788152D02*
X139285714Y-132692914D01*
X139285714Y-132692914D02*
X139285714Y-132645295D01*
X139285714Y-132645295D02*
X139333333Y-132550057D01*
X139333333Y-132550057D02*
X139380952Y-132502438D01*
X139380952Y-132502438D02*
X139476190Y-132454819D01*
X139476190Y-132454819D02*
X139666666Y-132454819D01*
X139666666Y-132454819D02*
X139761904Y-132502438D01*
X139761904Y-132502438D02*
X139809523Y-132550057D01*
X139809523Y-132550057D02*
X139857142Y-132645295D01*
X139857142Y-132645295D02*
X139857142Y-132692914D01*
X139857142Y-132692914D02*
X139809523Y-132788152D01*
X139809523Y-132788152D02*
X139761904Y-132835771D01*
X139761904Y-132835771D02*
X139666666Y-132883390D01*
X139666666Y-132883390D02*
X139476190Y-132883390D01*
X139476190Y-132883390D02*
X139380952Y-132931009D01*
X139380952Y-132931009D02*
X139333333Y-132978628D01*
X139333333Y-132978628D02*
X139285714Y-133073866D01*
X139285714Y-133073866D02*
X139285714Y-133264342D01*
X139285714Y-133264342D02*
X139333333Y-133359580D01*
X139333333Y-133359580D02*
X139380952Y-133407200D01*
X139380952Y-133407200D02*
X139476190Y-133454819D01*
X139476190Y-133454819D02*
X139666666Y-133454819D01*
X139666666Y-133454819D02*
X139761904Y-133407200D01*
X139761904Y-133407200D02*
X139809523Y-133359580D01*
X139809523Y-133359580D02*
X139857142Y-133264342D01*
X139857142Y-133264342D02*
X139857142Y-133073866D01*
X139857142Y-133073866D02*
X139809523Y-132978628D01*
X139809523Y-132978628D02*
X139761904Y-132931009D01*
X139761904Y-132931009D02*
X139666666Y-132883390D01*
X140285714Y-133454819D02*
X140285714Y-132454819D01*
X140380952Y-133073866D02*
X140666666Y-133454819D01*
X140666666Y-132788152D02*
X140285714Y-133169104D01*
X182254819Y-99542857D02*
X181778628Y-99876190D01*
X182254819Y-100114285D02*
X181254819Y-100114285D01*
X181254819Y-100114285D02*
X181254819Y-99733333D01*
X181254819Y-99733333D02*
X181302438Y-99638095D01*
X181302438Y-99638095D02*
X181350057Y-99590476D01*
X181350057Y-99590476D02*
X181445295Y-99542857D01*
X181445295Y-99542857D02*
X181588152Y-99542857D01*
X181588152Y-99542857D02*
X181683390Y-99590476D01*
X181683390Y-99590476D02*
X181731009Y-99638095D01*
X181731009Y-99638095D02*
X181778628Y-99733333D01*
X181778628Y-99733333D02*
X181778628Y-100114285D01*
X182254819Y-98590476D02*
X182254819Y-99161904D01*
X182254819Y-98876190D02*
X181254819Y-98876190D01*
X181254819Y-98876190D02*
X181397676Y-98971428D01*
X181397676Y-98971428D02*
X181492914Y-99066666D01*
X181492914Y-99066666D02*
X181540533Y-99161904D01*
X182254819Y-98114285D02*
X182254819Y-97923809D01*
X182254819Y-97923809D02*
X182207200Y-97828571D01*
X182207200Y-97828571D02*
X182159580Y-97780952D01*
X182159580Y-97780952D02*
X182016723Y-97685714D01*
X182016723Y-97685714D02*
X181826247Y-97638095D01*
X181826247Y-97638095D02*
X181445295Y-97638095D01*
X181445295Y-97638095D02*
X181350057Y-97685714D01*
X181350057Y-97685714D02*
X181302438Y-97733333D01*
X181302438Y-97733333D02*
X181254819Y-97828571D01*
X181254819Y-97828571D02*
X181254819Y-98019047D01*
X181254819Y-98019047D02*
X181302438Y-98114285D01*
X181302438Y-98114285D02*
X181350057Y-98161904D01*
X181350057Y-98161904D02*
X181445295Y-98209523D01*
X181445295Y-98209523D02*
X181683390Y-98209523D01*
X181683390Y-98209523D02*
X181778628Y-98161904D01*
X181778628Y-98161904D02*
X181826247Y-98114285D01*
X181826247Y-98114285D02*
X181873866Y-98019047D01*
X181873866Y-98019047D02*
X181873866Y-97828571D01*
X181873866Y-97828571D02*
X181826247Y-97733333D01*
X181826247Y-97733333D02*
X181778628Y-97685714D01*
X181778628Y-97685714D02*
X181683390Y-97638095D01*
X185188152Y-100166666D02*
X185854819Y-100166666D01*
X184807200Y-100404761D02*
X185521485Y-100642856D01*
X185521485Y-100642856D02*
X185521485Y-100023809D01*
X184854819Y-99738094D02*
X184854819Y-99119047D01*
X184854819Y-99119047D02*
X185235771Y-99452380D01*
X185235771Y-99452380D02*
X185235771Y-99309523D01*
X185235771Y-99309523D02*
X185283390Y-99214285D01*
X185283390Y-99214285D02*
X185331009Y-99166666D01*
X185331009Y-99166666D02*
X185426247Y-99119047D01*
X185426247Y-99119047D02*
X185664342Y-99119047D01*
X185664342Y-99119047D02*
X185759580Y-99166666D01*
X185759580Y-99166666D02*
X185807200Y-99214285D01*
X185807200Y-99214285D02*
X185854819Y-99309523D01*
X185854819Y-99309523D02*
X185854819Y-99595237D01*
X185854819Y-99595237D02*
X185807200Y-99690475D01*
X185807200Y-99690475D02*
X185759580Y-99738094D01*
X184854819Y-98499999D02*
X184854819Y-98404761D01*
X184854819Y-98404761D02*
X184902438Y-98309523D01*
X184902438Y-98309523D02*
X184950057Y-98261904D01*
X184950057Y-98261904D02*
X185045295Y-98214285D01*
X185045295Y-98214285D02*
X185235771Y-98166666D01*
X185235771Y-98166666D02*
X185473866Y-98166666D01*
X185473866Y-98166666D02*
X185664342Y-98214285D01*
X185664342Y-98214285D02*
X185759580Y-98261904D01*
X185759580Y-98261904D02*
X185807200Y-98309523D01*
X185807200Y-98309523D02*
X185854819Y-98404761D01*
X185854819Y-98404761D02*
X185854819Y-98499999D01*
X185854819Y-98499999D02*
X185807200Y-98595237D01*
X185807200Y-98595237D02*
X185759580Y-98642856D01*
X185759580Y-98642856D02*
X185664342Y-98690475D01*
X185664342Y-98690475D02*
X185473866Y-98738094D01*
X185473866Y-98738094D02*
X185235771Y-98738094D01*
X185235771Y-98738094D02*
X185045295Y-98690475D01*
X185045295Y-98690475D02*
X184950057Y-98642856D01*
X184950057Y-98642856D02*
X184902438Y-98595237D01*
X184902438Y-98595237D02*
X184854819Y-98499999D01*
X185854819Y-97738094D02*
X184854819Y-97738094D01*
X185473866Y-97642856D02*
X185854819Y-97357142D01*
X185188152Y-97357142D02*
X185569104Y-97738094D01*
X182254819Y-103138094D02*
X181254819Y-103138094D01*
X181254819Y-103138094D02*
X181254819Y-102899999D01*
X181254819Y-102899999D02*
X181302438Y-102757142D01*
X181302438Y-102757142D02*
X181397676Y-102661904D01*
X181397676Y-102661904D02*
X181492914Y-102614285D01*
X181492914Y-102614285D02*
X181683390Y-102566666D01*
X181683390Y-102566666D02*
X181826247Y-102566666D01*
X181826247Y-102566666D02*
X182016723Y-102614285D01*
X182016723Y-102614285D02*
X182111961Y-102661904D01*
X182111961Y-102661904D02*
X182207200Y-102757142D01*
X182207200Y-102757142D02*
X182254819Y-102899999D01*
X182254819Y-102899999D02*
X182254819Y-103138094D01*
X181254819Y-101709523D02*
X181254819Y-101899999D01*
X181254819Y-101899999D02*
X181302438Y-101995237D01*
X181302438Y-101995237D02*
X181350057Y-102042856D01*
X181350057Y-102042856D02*
X181492914Y-102138094D01*
X181492914Y-102138094D02*
X181683390Y-102185713D01*
X181683390Y-102185713D02*
X182064342Y-102185713D01*
X182064342Y-102185713D02*
X182159580Y-102138094D01*
X182159580Y-102138094D02*
X182207200Y-102090475D01*
X182207200Y-102090475D02*
X182254819Y-101995237D01*
X182254819Y-101995237D02*
X182254819Y-101804761D01*
X182254819Y-101804761D02*
X182207200Y-101709523D01*
X182207200Y-101709523D02*
X182159580Y-101661904D01*
X182159580Y-101661904D02*
X182064342Y-101614285D01*
X182064342Y-101614285D02*
X181826247Y-101614285D01*
X181826247Y-101614285D02*
X181731009Y-101661904D01*
X181731009Y-101661904D02*
X181683390Y-101709523D01*
X181683390Y-101709523D02*
X181635771Y-101804761D01*
X181635771Y-101804761D02*
X181635771Y-101995237D01*
X181635771Y-101995237D02*
X181683390Y-102090475D01*
X181683390Y-102090475D02*
X181731009Y-102138094D01*
X181731009Y-102138094D02*
X181826247Y-102185713D01*
X185854819Y-103642857D02*
X185378628Y-103976190D01*
X185854819Y-104214285D02*
X184854819Y-104214285D01*
X184854819Y-104214285D02*
X184854819Y-103833333D01*
X184854819Y-103833333D02*
X184902438Y-103738095D01*
X184902438Y-103738095D02*
X184950057Y-103690476D01*
X184950057Y-103690476D02*
X185045295Y-103642857D01*
X185045295Y-103642857D02*
X185188152Y-103642857D01*
X185188152Y-103642857D02*
X185283390Y-103690476D01*
X185283390Y-103690476D02*
X185331009Y-103738095D01*
X185331009Y-103738095D02*
X185378628Y-103833333D01*
X185378628Y-103833333D02*
X185378628Y-104214285D01*
X185331009Y-103214285D02*
X185331009Y-102880952D01*
X185854819Y-102738095D02*
X185854819Y-103214285D01*
X185854819Y-103214285D02*
X184854819Y-103214285D01*
X184854819Y-103214285D02*
X184854819Y-102738095D01*
X185854819Y-102309523D02*
X184854819Y-102309523D01*
X184854819Y-102309523D02*
X184854819Y-102071428D01*
X184854819Y-102071428D02*
X184902438Y-101928571D01*
X184902438Y-101928571D02*
X184997676Y-101833333D01*
X184997676Y-101833333D02*
X185092914Y-101785714D01*
X185092914Y-101785714D02*
X185283390Y-101738095D01*
X185283390Y-101738095D02*
X185426247Y-101738095D01*
X185426247Y-101738095D02*
X185616723Y-101785714D01*
X185616723Y-101785714D02*
X185711961Y-101833333D01*
X185711961Y-101833333D02*
X185807200Y-101928571D01*
X185807200Y-101928571D02*
X185854819Y-102071428D01*
X185854819Y-102071428D02*
X185854819Y-102309523D01*
X163857142Y-132254819D02*
X163523809Y-131778628D01*
X163285714Y-132254819D02*
X163285714Y-131254819D01*
X163285714Y-131254819D02*
X163666666Y-131254819D01*
X163666666Y-131254819D02*
X163761904Y-131302438D01*
X163761904Y-131302438D02*
X163809523Y-131350057D01*
X163809523Y-131350057D02*
X163857142Y-131445295D01*
X163857142Y-131445295D02*
X163857142Y-131588152D01*
X163857142Y-131588152D02*
X163809523Y-131683390D01*
X163809523Y-131683390D02*
X163761904Y-131731009D01*
X163761904Y-131731009D02*
X163666666Y-131778628D01*
X163666666Y-131778628D02*
X163285714Y-131778628D01*
X164809523Y-132254819D02*
X164238095Y-132254819D01*
X164523809Y-132254819D02*
X164523809Y-131254819D01*
X164523809Y-131254819D02*
X164428571Y-131397676D01*
X164428571Y-131397676D02*
X164333333Y-131492914D01*
X164333333Y-131492914D02*
X164238095Y-131540533D01*
X165761904Y-132254819D02*
X165190476Y-132254819D01*
X165476190Y-132254819D02*
X165476190Y-131254819D01*
X165476190Y-131254819D02*
X165380952Y-131397676D01*
X165380952Y-131397676D02*
X165285714Y-131492914D01*
X165285714Y-131492914D02*
X165190476Y-131540533D01*
X163904761Y-133454819D02*
X163333333Y-133454819D01*
X163619047Y-133454819D02*
X163619047Y-132454819D01*
X163619047Y-132454819D02*
X163523809Y-132597676D01*
X163523809Y-132597676D02*
X163428571Y-132692914D01*
X163428571Y-132692914D02*
X163333333Y-132740533D01*
X164476190Y-132883390D02*
X164380952Y-132835771D01*
X164380952Y-132835771D02*
X164333333Y-132788152D01*
X164333333Y-132788152D02*
X164285714Y-132692914D01*
X164285714Y-132692914D02*
X164285714Y-132645295D01*
X164285714Y-132645295D02*
X164333333Y-132550057D01*
X164333333Y-132550057D02*
X164380952Y-132502438D01*
X164380952Y-132502438D02*
X164476190Y-132454819D01*
X164476190Y-132454819D02*
X164666666Y-132454819D01*
X164666666Y-132454819D02*
X164761904Y-132502438D01*
X164761904Y-132502438D02*
X164809523Y-132550057D01*
X164809523Y-132550057D02*
X164857142Y-132645295D01*
X164857142Y-132645295D02*
X164857142Y-132692914D01*
X164857142Y-132692914D02*
X164809523Y-132788152D01*
X164809523Y-132788152D02*
X164761904Y-132835771D01*
X164761904Y-132835771D02*
X164666666Y-132883390D01*
X164666666Y-132883390D02*
X164476190Y-132883390D01*
X164476190Y-132883390D02*
X164380952Y-132931009D01*
X164380952Y-132931009D02*
X164333333Y-132978628D01*
X164333333Y-132978628D02*
X164285714Y-133073866D01*
X164285714Y-133073866D02*
X164285714Y-133264342D01*
X164285714Y-133264342D02*
X164333333Y-133359580D01*
X164333333Y-133359580D02*
X164380952Y-133407200D01*
X164380952Y-133407200D02*
X164476190Y-133454819D01*
X164476190Y-133454819D02*
X164666666Y-133454819D01*
X164666666Y-133454819D02*
X164761904Y-133407200D01*
X164761904Y-133407200D02*
X164809523Y-133359580D01*
X164809523Y-133359580D02*
X164857142Y-133264342D01*
X164857142Y-133264342D02*
X164857142Y-133073866D01*
X164857142Y-133073866D02*
X164809523Y-132978628D01*
X164809523Y-132978628D02*
X164761904Y-132931009D01*
X164761904Y-132931009D02*
X164666666Y-132883390D01*
X165285714Y-133454819D02*
X165285714Y-132454819D01*
X165380952Y-133073866D02*
X165666666Y-133454819D01*
X165666666Y-132788152D02*
X165285714Y-133169104D01*
X133333333Y-103504819D02*
X133000000Y-103028628D01*
X132761905Y-103504819D02*
X132761905Y-102504819D01*
X132761905Y-102504819D02*
X133142857Y-102504819D01*
X133142857Y-102504819D02*
X133238095Y-102552438D01*
X133238095Y-102552438D02*
X133285714Y-102600057D01*
X133285714Y-102600057D02*
X133333333Y-102695295D01*
X133333333Y-102695295D02*
X133333333Y-102838152D01*
X133333333Y-102838152D02*
X133285714Y-102933390D01*
X133285714Y-102933390D02*
X133238095Y-102981009D01*
X133238095Y-102981009D02*
X133142857Y-103028628D01*
X133142857Y-103028628D02*
X132761905Y-103028628D01*
X133666667Y-102504819D02*
X134333333Y-102504819D01*
X134333333Y-102504819D02*
X133904762Y-103504819D01*
X135114286Y-102454819D02*
X135733333Y-102454819D01*
X135733333Y-102454819D02*
X135400000Y-102835771D01*
X135400000Y-102835771D02*
X135542857Y-102835771D01*
X135542857Y-102835771D02*
X135638095Y-102883390D01*
X135638095Y-102883390D02*
X135685714Y-102931009D01*
X135685714Y-102931009D02*
X135733333Y-103026247D01*
X135733333Y-103026247D02*
X135733333Y-103264342D01*
X135733333Y-103264342D02*
X135685714Y-103359580D01*
X135685714Y-103359580D02*
X135638095Y-103407200D01*
X135638095Y-103407200D02*
X135542857Y-103454819D01*
X135542857Y-103454819D02*
X135257143Y-103454819D01*
X135257143Y-103454819D02*
X135161905Y-103407200D01*
X135161905Y-103407200D02*
X135114286Y-103359580D01*
X136066667Y-102454819D02*
X136685714Y-102454819D01*
X136685714Y-102454819D02*
X136352381Y-102835771D01*
X136352381Y-102835771D02*
X136495238Y-102835771D01*
X136495238Y-102835771D02*
X136590476Y-102883390D01*
X136590476Y-102883390D02*
X136638095Y-102931009D01*
X136638095Y-102931009D02*
X136685714Y-103026247D01*
X136685714Y-103026247D02*
X136685714Y-103264342D01*
X136685714Y-103264342D02*
X136638095Y-103359580D01*
X136638095Y-103359580D02*
X136590476Y-103407200D01*
X136590476Y-103407200D02*
X136495238Y-103454819D01*
X136495238Y-103454819D02*
X136209524Y-103454819D01*
X136209524Y-103454819D02*
X136114286Y-103407200D01*
X136114286Y-103407200D02*
X136066667Y-103359580D01*
X137304762Y-102454819D02*
X137400000Y-102454819D01*
X137400000Y-102454819D02*
X137495238Y-102502438D01*
X137495238Y-102502438D02*
X137542857Y-102550057D01*
X137542857Y-102550057D02*
X137590476Y-102645295D01*
X137590476Y-102645295D02*
X137638095Y-102835771D01*
X137638095Y-102835771D02*
X137638095Y-103073866D01*
X137638095Y-103073866D02*
X137590476Y-103264342D01*
X137590476Y-103264342D02*
X137542857Y-103359580D01*
X137542857Y-103359580D02*
X137495238Y-103407200D01*
X137495238Y-103407200D02*
X137400000Y-103454819D01*
X137400000Y-103454819D02*
X137304762Y-103454819D01*
X137304762Y-103454819D02*
X137209524Y-103407200D01*
X137209524Y-103407200D02*
X137161905Y-103359580D01*
X137161905Y-103359580D02*
X137114286Y-103264342D01*
X137114286Y-103264342D02*
X137066667Y-103073866D01*
X137066667Y-103073866D02*
X137066667Y-102835771D01*
X137066667Y-102835771D02*
X137114286Y-102645295D01*
X137114286Y-102645295D02*
X137161905Y-102550057D01*
X137161905Y-102550057D02*
X137209524Y-102502438D01*
X137209524Y-102502438D02*
X137304762Y-102454819D01*
X127433333Y-102359580D02*
X127385714Y-102407200D01*
X127385714Y-102407200D02*
X127242857Y-102454819D01*
X127242857Y-102454819D02*
X127147619Y-102454819D01*
X127147619Y-102454819D02*
X127004762Y-102407200D01*
X127004762Y-102407200D02*
X126909524Y-102311961D01*
X126909524Y-102311961D02*
X126861905Y-102216723D01*
X126861905Y-102216723D02*
X126814286Y-102026247D01*
X126814286Y-102026247D02*
X126814286Y-101883390D01*
X126814286Y-101883390D02*
X126861905Y-101692914D01*
X126861905Y-101692914D02*
X126909524Y-101597676D01*
X126909524Y-101597676D02*
X127004762Y-101502438D01*
X127004762Y-101502438D02*
X127147619Y-101454819D01*
X127147619Y-101454819D02*
X127242857Y-101454819D01*
X127242857Y-101454819D02*
X127385714Y-101502438D01*
X127385714Y-101502438D02*
X127433333Y-101550057D01*
X128290476Y-101788152D02*
X128290476Y-102454819D01*
X128052381Y-101407200D02*
X127814286Y-102121485D01*
X127814286Y-102121485D02*
X128433333Y-102121485D01*
X128285714Y-102954819D02*
X128380952Y-102954819D01*
X128380952Y-102954819D02*
X128476190Y-103002438D01*
X128476190Y-103002438D02*
X128523809Y-103050057D01*
X128523809Y-103050057D02*
X128571428Y-103145295D01*
X128571428Y-103145295D02*
X128619047Y-103335771D01*
X128619047Y-103335771D02*
X128619047Y-103573866D01*
X128619047Y-103573866D02*
X128571428Y-103764342D01*
X128571428Y-103764342D02*
X128523809Y-103859580D01*
X128523809Y-103859580D02*
X128476190Y-103907200D01*
X128476190Y-103907200D02*
X128380952Y-103954819D01*
X128380952Y-103954819D02*
X128285714Y-103954819D01*
X128285714Y-103954819D02*
X128190476Y-103907200D01*
X128190476Y-103907200D02*
X128142857Y-103859580D01*
X128142857Y-103859580D02*
X128095238Y-103764342D01*
X128095238Y-103764342D02*
X128047619Y-103573866D01*
X128047619Y-103573866D02*
X128047619Y-103335771D01*
X128047619Y-103335771D02*
X128095238Y-103145295D01*
X128095238Y-103145295D02*
X128142857Y-103050057D01*
X128142857Y-103050057D02*
X128190476Y-103002438D01*
X128190476Y-103002438D02*
X128285714Y-102954819D01*
X129047619Y-103859580D02*
X129095238Y-103907200D01*
X129095238Y-103907200D02*
X129047619Y-103954819D01*
X129047619Y-103954819D02*
X129000000Y-103907200D01*
X129000000Y-103907200D02*
X129047619Y-103859580D01*
X129047619Y-103859580D02*
X129047619Y-103954819D01*
X130047618Y-103954819D02*
X129476190Y-103954819D01*
X129761904Y-103954819D02*
X129761904Y-102954819D01*
X129761904Y-102954819D02*
X129666666Y-103097676D01*
X129666666Y-103097676D02*
X129571428Y-103192914D01*
X129571428Y-103192914D02*
X129476190Y-103240533D01*
X130476190Y-103288152D02*
X130476190Y-104288152D01*
X130952380Y-103811961D02*
X130999999Y-103907200D01*
X130999999Y-103907200D02*
X131095237Y-103954819D01*
X130476190Y-103811961D02*
X130523809Y-103907200D01*
X130523809Y-103907200D02*
X130619047Y-103954819D01*
X130619047Y-103954819D02*
X130809523Y-103954819D01*
X130809523Y-103954819D02*
X130904761Y-103907200D01*
X130904761Y-103907200D02*
X130952380Y-103811961D01*
X130952380Y-103811961D02*
X130952380Y-103288152D01*
X131857142Y-103431009D02*
X131523809Y-103431009D01*
X131523809Y-103954819D02*
X131523809Y-102954819D01*
X131523809Y-102954819D02*
X131999999Y-102954819D01*
X162857142Y-79759580D02*
X162809523Y-79807200D01*
X162809523Y-79807200D02*
X162666666Y-79854819D01*
X162666666Y-79854819D02*
X162571428Y-79854819D01*
X162571428Y-79854819D02*
X162428571Y-79807200D01*
X162428571Y-79807200D02*
X162333333Y-79711961D01*
X162333333Y-79711961D02*
X162285714Y-79616723D01*
X162285714Y-79616723D02*
X162238095Y-79426247D01*
X162238095Y-79426247D02*
X162238095Y-79283390D01*
X162238095Y-79283390D02*
X162285714Y-79092914D01*
X162285714Y-79092914D02*
X162333333Y-78997676D01*
X162333333Y-78997676D02*
X162428571Y-78902438D01*
X162428571Y-78902438D02*
X162571428Y-78854819D01*
X162571428Y-78854819D02*
X162666666Y-78854819D01*
X162666666Y-78854819D02*
X162809523Y-78902438D01*
X162809523Y-78902438D02*
X162857142Y-78950057D01*
X163809523Y-79854819D02*
X163238095Y-79854819D01*
X163523809Y-79854819D02*
X163523809Y-78854819D01*
X163523809Y-78854819D02*
X163428571Y-78997676D01*
X163428571Y-78997676D02*
X163333333Y-79092914D01*
X163333333Y-79092914D02*
X163238095Y-79140533D01*
X164666666Y-78854819D02*
X164476190Y-78854819D01*
X164476190Y-78854819D02*
X164380952Y-78902438D01*
X164380952Y-78902438D02*
X164333333Y-78950057D01*
X164333333Y-78950057D02*
X164238095Y-79092914D01*
X164238095Y-79092914D02*
X164190476Y-79283390D01*
X164190476Y-79283390D02*
X164190476Y-79664342D01*
X164190476Y-79664342D02*
X164238095Y-79759580D01*
X164238095Y-79759580D02*
X164285714Y-79807200D01*
X164285714Y-79807200D02*
X164380952Y-79854819D01*
X164380952Y-79854819D02*
X164571428Y-79854819D01*
X164571428Y-79854819D02*
X164666666Y-79807200D01*
X164666666Y-79807200D02*
X164714285Y-79759580D01*
X164714285Y-79759580D02*
X164761904Y-79664342D01*
X164761904Y-79664342D02*
X164761904Y-79426247D01*
X164761904Y-79426247D02*
X164714285Y-79331009D01*
X164714285Y-79331009D02*
X164666666Y-79283390D01*
X164666666Y-79283390D02*
X164571428Y-79235771D01*
X164571428Y-79235771D02*
X164380952Y-79235771D01*
X164380952Y-79235771D02*
X164285714Y-79283390D01*
X164285714Y-79283390D02*
X164238095Y-79331009D01*
X164238095Y-79331009D02*
X164190476Y-79426247D01*
X162357142Y-78654819D02*
X161785714Y-78654819D01*
X162071428Y-78654819D02*
X162071428Y-77654819D01*
X162071428Y-77654819D02*
X161976190Y-77797676D01*
X161976190Y-77797676D02*
X161880952Y-77892914D01*
X161880952Y-77892914D02*
X161785714Y-77940533D01*
X162976190Y-77654819D02*
X163071428Y-77654819D01*
X163071428Y-77654819D02*
X163166666Y-77702438D01*
X163166666Y-77702438D02*
X163214285Y-77750057D01*
X163214285Y-77750057D02*
X163261904Y-77845295D01*
X163261904Y-77845295D02*
X163309523Y-78035771D01*
X163309523Y-78035771D02*
X163309523Y-78273866D01*
X163309523Y-78273866D02*
X163261904Y-78464342D01*
X163261904Y-78464342D02*
X163214285Y-78559580D01*
X163214285Y-78559580D02*
X163166666Y-78607200D01*
X163166666Y-78607200D02*
X163071428Y-78654819D01*
X163071428Y-78654819D02*
X162976190Y-78654819D01*
X162976190Y-78654819D02*
X162880952Y-78607200D01*
X162880952Y-78607200D02*
X162833333Y-78559580D01*
X162833333Y-78559580D02*
X162785714Y-78464342D01*
X162785714Y-78464342D02*
X162738095Y-78273866D01*
X162738095Y-78273866D02*
X162738095Y-78035771D01*
X162738095Y-78035771D02*
X162785714Y-77845295D01*
X162785714Y-77845295D02*
X162833333Y-77750057D01*
X162833333Y-77750057D02*
X162880952Y-77702438D01*
X162880952Y-77702438D02*
X162976190Y-77654819D01*
X163738095Y-77988152D02*
X163738095Y-78988152D01*
X164214285Y-78511961D02*
X164261904Y-78607200D01*
X164261904Y-78607200D02*
X164357142Y-78654819D01*
X163738095Y-78511961D02*
X163785714Y-78607200D01*
X163785714Y-78607200D02*
X163880952Y-78654819D01*
X163880952Y-78654819D02*
X164071428Y-78654819D01*
X164071428Y-78654819D02*
X164166666Y-78607200D01*
X164166666Y-78607200D02*
X164214285Y-78511961D01*
X164214285Y-78511961D02*
X164214285Y-77988152D01*
X165119047Y-78131009D02*
X164785714Y-78131009D01*
X164785714Y-78654819D02*
X164785714Y-77654819D01*
X164785714Y-77654819D02*
X165261904Y-77654819D01*
X128238095Y-127054819D02*
X128238095Y-126054819D01*
X128238095Y-126054819D02*
X128809523Y-127054819D01*
X128809523Y-127054819D02*
X128809523Y-126054819D01*
X129809523Y-127054819D02*
X129238095Y-127054819D01*
X129523809Y-127054819D02*
X129523809Y-126054819D01*
X129523809Y-126054819D02*
X129428571Y-126197676D01*
X129428571Y-126197676D02*
X129333333Y-126292914D01*
X129333333Y-126292914D02*
X129238095Y-126340533D01*
X126904762Y-125654819D02*
X126904762Y-124654819D01*
X127380952Y-125654819D02*
X127380952Y-124654819D01*
X127380952Y-124654819D02*
X127952380Y-125654819D01*
X127952380Y-125654819D02*
X127952380Y-124654819D01*
X128428571Y-125273866D02*
X129190476Y-125273866D01*
X130190475Y-125654819D02*
X129619047Y-125654819D01*
X129904761Y-125654819D02*
X129904761Y-124654819D01*
X129904761Y-124654819D02*
X129809523Y-124797676D01*
X129809523Y-124797676D02*
X129714285Y-124892914D01*
X129714285Y-124892914D02*
X129619047Y-124940533D01*
X131047618Y-124988152D02*
X131047618Y-125654819D01*
X130809523Y-124607200D02*
X130571428Y-125321485D01*
X130571428Y-125321485D02*
X131190475Y-125321485D01*
X186357142Y-126254819D02*
X186023809Y-125778628D01*
X185785714Y-126254819D02*
X185785714Y-125254819D01*
X185785714Y-125254819D02*
X186166666Y-125254819D01*
X186166666Y-125254819D02*
X186261904Y-125302438D01*
X186261904Y-125302438D02*
X186309523Y-125350057D01*
X186309523Y-125350057D02*
X186357142Y-125445295D01*
X186357142Y-125445295D02*
X186357142Y-125588152D01*
X186357142Y-125588152D02*
X186309523Y-125683390D01*
X186309523Y-125683390D02*
X186261904Y-125731009D01*
X186261904Y-125731009D02*
X186166666Y-125778628D01*
X186166666Y-125778628D02*
X185785714Y-125778628D01*
X187309523Y-126254819D02*
X186738095Y-126254819D01*
X187023809Y-126254819D02*
X187023809Y-125254819D01*
X187023809Y-125254819D02*
X186928571Y-125397676D01*
X186928571Y-125397676D02*
X186833333Y-125492914D01*
X186833333Y-125492914D02*
X186738095Y-125540533D01*
X187690476Y-125350057D02*
X187738095Y-125302438D01*
X187738095Y-125302438D02*
X187833333Y-125254819D01*
X187833333Y-125254819D02*
X188071428Y-125254819D01*
X188071428Y-125254819D02*
X188166666Y-125302438D01*
X188166666Y-125302438D02*
X188214285Y-125350057D01*
X188214285Y-125350057D02*
X188261904Y-125445295D01*
X188261904Y-125445295D02*
X188261904Y-125540533D01*
X188261904Y-125540533D02*
X188214285Y-125683390D01*
X188214285Y-125683390D02*
X187642857Y-126254819D01*
X187642857Y-126254819D02*
X188261904Y-126254819D01*
X186404761Y-125054819D02*
X185833333Y-125054819D01*
X186119047Y-125054819D02*
X186119047Y-124054819D01*
X186119047Y-124054819D02*
X186023809Y-124197676D01*
X186023809Y-124197676D02*
X185928571Y-124292914D01*
X185928571Y-124292914D02*
X185833333Y-124340533D01*
X186976190Y-124483390D02*
X186880952Y-124435771D01*
X186880952Y-124435771D02*
X186833333Y-124388152D01*
X186833333Y-124388152D02*
X186785714Y-124292914D01*
X186785714Y-124292914D02*
X186785714Y-124245295D01*
X186785714Y-124245295D02*
X186833333Y-124150057D01*
X186833333Y-124150057D02*
X186880952Y-124102438D01*
X186880952Y-124102438D02*
X186976190Y-124054819D01*
X186976190Y-124054819D02*
X187166666Y-124054819D01*
X187166666Y-124054819D02*
X187261904Y-124102438D01*
X187261904Y-124102438D02*
X187309523Y-124150057D01*
X187309523Y-124150057D02*
X187357142Y-124245295D01*
X187357142Y-124245295D02*
X187357142Y-124292914D01*
X187357142Y-124292914D02*
X187309523Y-124388152D01*
X187309523Y-124388152D02*
X187261904Y-124435771D01*
X187261904Y-124435771D02*
X187166666Y-124483390D01*
X187166666Y-124483390D02*
X186976190Y-124483390D01*
X186976190Y-124483390D02*
X186880952Y-124531009D01*
X186880952Y-124531009D02*
X186833333Y-124578628D01*
X186833333Y-124578628D02*
X186785714Y-124673866D01*
X186785714Y-124673866D02*
X186785714Y-124864342D01*
X186785714Y-124864342D02*
X186833333Y-124959580D01*
X186833333Y-124959580D02*
X186880952Y-125007200D01*
X186880952Y-125007200D02*
X186976190Y-125054819D01*
X186976190Y-125054819D02*
X187166666Y-125054819D01*
X187166666Y-125054819D02*
X187261904Y-125007200D01*
X187261904Y-125007200D02*
X187309523Y-124959580D01*
X187309523Y-124959580D02*
X187357142Y-124864342D01*
X187357142Y-124864342D02*
X187357142Y-124673866D01*
X187357142Y-124673866D02*
X187309523Y-124578628D01*
X187309523Y-124578628D02*
X187261904Y-124531009D01*
X187261904Y-124531009D02*
X187166666Y-124483390D01*
X187785714Y-125054819D02*
X187785714Y-124054819D01*
X187880952Y-124673866D02*
X188166666Y-125054819D01*
X188166666Y-124388152D02*
X187785714Y-124769104D01*
D12*
X153062618Y-137077126D02*
X153062618Y-135807126D01*
X153062618Y-135807126D02*
X153364999Y-135807126D01*
X153364999Y-135807126D02*
X153546428Y-135867602D01*
X153546428Y-135867602D02*
X153667380Y-135988554D01*
X153667380Y-135988554D02*
X153727857Y-136109507D01*
X153727857Y-136109507D02*
X153788333Y-136351411D01*
X153788333Y-136351411D02*
X153788333Y-136532840D01*
X153788333Y-136532840D02*
X153727857Y-136774745D01*
X153727857Y-136774745D02*
X153667380Y-136895697D01*
X153667380Y-136895697D02*
X153546428Y-137016650D01*
X153546428Y-137016650D02*
X153364999Y-137077126D01*
X153364999Y-137077126D02*
X153062618Y-137077126D01*
X154211666Y-135807126D02*
X154997857Y-135807126D01*
X154997857Y-135807126D02*
X154574523Y-136290935D01*
X154574523Y-136290935D02*
X154755952Y-136290935D01*
X154755952Y-136290935D02*
X154876904Y-136351411D01*
X154876904Y-136351411D02*
X154937380Y-136411888D01*
X154937380Y-136411888D02*
X154997857Y-136532840D01*
X154997857Y-136532840D02*
X154997857Y-136835221D01*
X154997857Y-136835221D02*
X154937380Y-136956173D01*
X154937380Y-136956173D02*
X154876904Y-137016650D01*
X154876904Y-137016650D02*
X154755952Y-137077126D01*
X154755952Y-137077126D02*
X154393095Y-137077126D01*
X154393095Y-137077126D02*
X154272142Y-137016650D01*
X154272142Y-137016650D02*
X154211666Y-136956173D01*
D10*
X153238095Y-127076039D02*
X153238095Y-126076039D01*
X153238095Y-126076039D02*
X153809523Y-127076039D01*
X153809523Y-127076039D02*
X153809523Y-126076039D01*
X154238095Y-126171277D02*
X154285714Y-126123658D01*
X154285714Y-126123658D02*
X154380952Y-126076039D01*
X154380952Y-126076039D02*
X154619047Y-126076039D01*
X154619047Y-126076039D02*
X154714285Y-126123658D01*
X154714285Y-126123658D02*
X154761904Y-126171277D01*
X154761904Y-126171277D02*
X154809523Y-126266515D01*
X154809523Y-126266515D02*
X154809523Y-126361753D01*
X154809523Y-126361753D02*
X154761904Y-126504610D01*
X154761904Y-126504610D02*
X154190476Y-127076039D01*
X154190476Y-127076039D02*
X154809523Y-127076039D01*
X151904762Y-125654819D02*
X151904762Y-124654819D01*
X152380952Y-125654819D02*
X152380952Y-124654819D01*
X152380952Y-124654819D02*
X152952380Y-125654819D01*
X152952380Y-125654819D02*
X152952380Y-124654819D01*
X153428571Y-125273866D02*
X154190476Y-125273866D01*
X155190475Y-125654819D02*
X154619047Y-125654819D01*
X154904761Y-125654819D02*
X154904761Y-124654819D01*
X154904761Y-124654819D02*
X154809523Y-124797676D01*
X154809523Y-124797676D02*
X154714285Y-124892914D01*
X154714285Y-124892914D02*
X154619047Y-124940533D01*
X156047618Y-124988152D02*
X156047618Y-125654819D01*
X155809523Y-124607200D02*
X155571428Y-125321485D01*
X155571428Y-125321485D02*
X156190475Y-125321485D01*
X182254819Y-88738094D02*
X181254819Y-88738094D01*
X181254819Y-88738094D02*
X181254819Y-88499999D01*
X181254819Y-88499999D02*
X181302438Y-88357142D01*
X181302438Y-88357142D02*
X181397676Y-88261904D01*
X181397676Y-88261904D02*
X181492914Y-88214285D01*
X181492914Y-88214285D02*
X181683390Y-88166666D01*
X181683390Y-88166666D02*
X181826247Y-88166666D01*
X181826247Y-88166666D02*
X182016723Y-88214285D01*
X182016723Y-88214285D02*
X182111961Y-88261904D01*
X182111961Y-88261904D02*
X182207200Y-88357142D01*
X182207200Y-88357142D02*
X182254819Y-88499999D01*
X182254819Y-88499999D02*
X182254819Y-88738094D01*
X181254819Y-87261904D02*
X181254819Y-87738094D01*
X181254819Y-87738094D02*
X181731009Y-87785713D01*
X181731009Y-87785713D02*
X181683390Y-87738094D01*
X181683390Y-87738094D02*
X181635771Y-87642856D01*
X181635771Y-87642856D02*
X181635771Y-87404761D01*
X181635771Y-87404761D02*
X181683390Y-87309523D01*
X181683390Y-87309523D02*
X181731009Y-87261904D01*
X181731009Y-87261904D02*
X181826247Y-87214285D01*
X181826247Y-87214285D02*
X182064342Y-87214285D01*
X182064342Y-87214285D02*
X182159580Y-87261904D01*
X182159580Y-87261904D02*
X182207200Y-87309523D01*
X182207200Y-87309523D02*
X182254819Y-87404761D01*
X182254819Y-87404761D02*
X182254819Y-87642856D01*
X182254819Y-87642856D02*
X182207200Y-87738094D01*
X182207200Y-87738094D02*
X182159580Y-87785713D01*
X184902438Y-90766666D02*
X184854819Y-90861904D01*
X184854819Y-90861904D02*
X184854819Y-91004761D01*
X184854819Y-91004761D02*
X184902438Y-91147618D01*
X184902438Y-91147618D02*
X184997676Y-91242856D01*
X184997676Y-91242856D02*
X185092914Y-91290475D01*
X185092914Y-91290475D02*
X185283390Y-91338094D01*
X185283390Y-91338094D02*
X185426247Y-91338094D01*
X185426247Y-91338094D02*
X185616723Y-91290475D01*
X185616723Y-91290475D02*
X185711961Y-91242856D01*
X185711961Y-91242856D02*
X185807200Y-91147618D01*
X185807200Y-91147618D02*
X185854819Y-91004761D01*
X185854819Y-91004761D02*
X185854819Y-90909523D01*
X185854819Y-90909523D02*
X185807200Y-90766666D01*
X185807200Y-90766666D02*
X185759580Y-90719047D01*
X185759580Y-90719047D02*
X185426247Y-90719047D01*
X185426247Y-90719047D02*
X185426247Y-90909523D01*
X185854819Y-89719047D02*
X185378628Y-90052380D01*
X185854819Y-90290475D02*
X184854819Y-90290475D01*
X184854819Y-90290475D02*
X184854819Y-89909523D01*
X184854819Y-89909523D02*
X184902438Y-89814285D01*
X184902438Y-89814285D02*
X184950057Y-89766666D01*
X184950057Y-89766666D02*
X185045295Y-89719047D01*
X185045295Y-89719047D02*
X185188152Y-89719047D01*
X185188152Y-89719047D02*
X185283390Y-89766666D01*
X185283390Y-89766666D02*
X185331009Y-89814285D01*
X185331009Y-89814285D02*
X185378628Y-89909523D01*
X185378628Y-89909523D02*
X185378628Y-90290475D01*
X185331009Y-89290475D02*
X185331009Y-88957142D01*
X185854819Y-88814285D02*
X185854819Y-89290475D01*
X185854819Y-89290475D02*
X184854819Y-89290475D01*
X184854819Y-89290475D02*
X184854819Y-88814285D01*
X185331009Y-88385713D02*
X185331009Y-88052380D01*
X185854819Y-87909523D02*
X185854819Y-88385713D01*
X185854819Y-88385713D02*
X184854819Y-88385713D01*
X184854819Y-88385713D02*
X184854819Y-87909523D01*
X185854819Y-87480951D02*
X184854819Y-87480951D01*
X184854819Y-87480951D02*
X185854819Y-86909523D01*
X185854819Y-86909523D02*
X184854819Y-86909523D01*
D12*
X178062618Y-137077126D02*
X178062618Y-135807126D01*
X178062618Y-135807126D02*
X178364999Y-135807126D01*
X178364999Y-135807126D02*
X178546428Y-135867602D01*
X178546428Y-135867602D02*
X178667380Y-135988554D01*
X178667380Y-135988554D02*
X178727857Y-136109507D01*
X178727857Y-136109507D02*
X178788333Y-136351411D01*
X178788333Y-136351411D02*
X178788333Y-136532840D01*
X178788333Y-136532840D02*
X178727857Y-136774745D01*
X178727857Y-136774745D02*
X178667380Y-136895697D01*
X178667380Y-136895697D02*
X178546428Y-137016650D01*
X178546428Y-137016650D02*
X178364999Y-137077126D01*
X178364999Y-137077126D02*
X178062618Y-137077126D01*
X179876904Y-136230459D02*
X179876904Y-137077126D01*
X179574523Y-135746650D02*
X179272142Y-136653792D01*
X179272142Y-136653792D02*
X180058333Y-136653792D01*
D10*
X129033332Y-92259580D02*
X128985713Y-92307200D01*
X128985713Y-92307200D02*
X128842856Y-92354819D01*
X128842856Y-92354819D02*
X128747618Y-92354819D01*
X128747618Y-92354819D02*
X128604761Y-92307200D01*
X128604761Y-92307200D02*
X128509523Y-92211961D01*
X128509523Y-92211961D02*
X128461904Y-92116723D01*
X128461904Y-92116723D02*
X128414285Y-91926247D01*
X128414285Y-91926247D02*
X128414285Y-91783390D01*
X128414285Y-91783390D02*
X128461904Y-91592914D01*
X128461904Y-91592914D02*
X128509523Y-91497676D01*
X128509523Y-91497676D02*
X128604761Y-91402438D01*
X128604761Y-91402438D02*
X128747618Y-91354819D01*
X128747618Y-91354819D02*
X128842856Y-91354819D01*
X128842856Y-91354819D02*
X128985713Y-91402438D01*
X128985713Y-91402438D02*
X129033332Y-91450057D01*
X129938094Y-91354819D02*
X129461904Y-91354819D01*
X129461904Y-91354819D02*
X129414285Y-91831009D01*
X129414285Y-91831009D02*
X129461904Y-91783390D01*
X129461904Y-91783390D02*
X129557142Y-91735771D01*
X129557142Y-91735771D02*
X129795237Y-91735771D01*
X129795237Y-91735771D02*
X129890475Y-91783390D01*
X129890475Y-91783390D02*
X129938094Y-91831009D01*
X129938094Y-91831009D02*
X129985713Y-91926247D01*
X129985713Y-91926247D02*
X129985713Y-92164342D01*
X129985713Y-92164342D02*
X129938094Y-92259580D01*
X129938094Y-92259580D02*
X129890475Y-92307200D01*
X129890475Y-92307200D02*
X129795237Y-92354819D01*
X129795237Y-92354819D02*
X129557142Y-92354819D01*
X129557142Y-92354819D02*
X129461904Y-92307200D01*
X129461904Y-92307200D02*
X129414285Y-92259580D01*
X127485713Y-89750057D02*
X127533332Y-89702438D01*
X127533332Y-89702438D02*
X127628570Y-89654819D01*
X127628570Y-89654819D02*
X127866665Y-89654819D01*
X127866665Y-89654819D02*
X127961903Y-89702438D01*
X127961903Y-89702438D02*
X128009522Y-89750057D01*
X128009522Y-89750057D02*
X128057141Y-89845295D01*
X128057141Y-89845295D02*
X128057141Y-89940533D01*
X128057141Y-89940533D02*
X128009522Y-90083390D01*
X128009522Y-90083390D02*
X127438094Y-90654819D01*
X127438094Y-90654819D02*
X128057141Y-90654819D01*
X128438094Y-89750057D02*
X128485713Y-89702438D01*
X128485713Y-89702438D02*
X128580951Y-89654819D01*
X128580951Y-89654819D02*
X128819046Y-89654819D01*
X128819046Y-89654819D02*
X128914284Y-89702438D01*
X128914284Y-89702438D02*
X128961903Y-89750057D01*
X128961903Y-89750057D02*
X129009522Y-89845295D01*
X129009522Y-89845295D02*
X129009522Y-89940533D01*
X129009522Y-89940533D02*
X128961903Y-90083390D01*
X128961903Y-90083390D02*
X128390475Y-90654819D01*
X128390475Y-90654819D02*
X129009522Y-90654819D01*
X129438094Y-89988152D02*
X129438094Y-90988152D01*
X129914284Y-90511961D02*
X129961903Y-90607200D01*
X129961903Y-90607200D02*
X130057141Y-90654819D01*
X129438094Y-90511961D02*
X129485713Y-90607200D01*
X129485713Y-90607200D02*
X129580951Y-90654819D01*
X129580951Y-90654819D02*
X129771427Y-90654819D01*
X129771427Y-90654819D02*
X129866665Y-90607200D01*
X129866665Y-90607200D02*
X129914284Y-90511961D01*
X129914284Y-90511961D02*
X129914284Y-89988152D01*
X130819046Y-90131009D02*
X130485713Y-90131009D01*
X130485713Y-90654819D02*
X130485713Y-89654819D01*
X130485713Y-89654819D02*
X130961903Y-89654819D01*
X182254819Y-96042857D02*
X181778628Y-96376190D01*
X182254819Y-96614285D02*
X181254819Y-96614285D01*
X181254819Y-96614285D02*
X181254819Y-96233333D01*
X181254819Y-96233333D02*
X181302438Y-96138095D01*
X181302438Y-96138095D02*
X181350057Y-96090476D01*
X181350057Y-96090476D02*
X181445295Y-96042857D01*
X181445295Y-96042857D02*
X181588152Y-96042857D01*
X181588152Y-96042857D02*
X181683390Y-96090476D01*
X181683390Y-96090476D02*
X181731009Y-96138095D01*
X181731009Y-96138095D02*
X181778628Y-96233333D01*
X181778628Y-96233333D02*
X181778628Y-96614285D01*
X182254819Y-95090476D02*
X182254819Y-95661904D01*
X182254819Y-95376190D02*
X181254819Y-95376190D01*
X181254819Y-95376190D02*
X181397676Y-95471428D01*
X181397676Y-95471428D02*
X181492914Y-95566666D01*
X181492914Y-95566666D02*
X181540533Y-95661904D01*
X181683390Y-94519047D02*
X181635771Y-94614285D01*
X181635771Y-94614285D02*
X181588152Y-94661904D01*
X181588152Y-94661904D02*
X181492914Y-94709523D01*
X181492914Y-94709523D02*
X181445295Y-94709523D01*
X181445295Y-94709523D02*
X181350057Y-94661904D01*
X181350057Y-94661904D02*
X181302438Y-94614285D01*
X181302438Y-94614285D02*
X181254819Y-94519047D01*
X181254819Y-94519047D02*
X181254819Y-94328571D01*
X181254819Y-94328571D02*
X181302438Y-94233333D01*
X181302438Y-94233333D02*
X181350057Y-94185714D01*
X181350057Y-94185714D02*
X181445295Y-94138095D01*
X181445295Y-94138095D02*
X181492914Y-94138095D01*
X181492914Y-94138095D02*
X181588152Y-94185714D01*
X181588152Y-94185714D02*
X181635771Y-94233333D01*
X181635771Y-94233333D02*
X181683390Y-94328571D01*
X181683390Y-94328571D02*
X181683390Y-94519047D01*
X181683390Y-94519047D02*
X181731009Y-94614285D01*
X181731009Y-94614285D02*
X181778628Y-94661904D01*
X181778628Y-94661904D02*
X181873866Y-94709523D01*
X181873866Y-94709523D02*
X182064342Y-94709523D01*
X182064342Y-94709523D02*
X182159580Y-94661904D01*
X182159580Y-94661904D02*
X182207200Y-94614285D01*
X182207200Y-94614285D02*
X182254819Y-94519047D01*
X182254819Y-94519047D02*
X182254819Y-94328571D01*
X182254819Y-94328571D02*
X182207200Y-94233333D01*
X182207200Y-94233333D02*
X182159580Y-94185714D01*
X182159580Y-94185714D02*
X182064342Y-94138095D01*
X182064342Y-94138095D02*
X181873866Y-94138095D01*
X181873866Y-94138095D02*
X181778628Y-94185714D01*
X181778628Y-94185714D02*
X181731009Y-94233333D01*
X181731009Y-94233333D02*
X181683390Y-94328571D01*
X185188152Y-96166666D02*
X185854819Y-96166666D01*
X184807200Y-96404761D02*
X185521485Y-96642856D01*
X185521485Y-96642856D02*
X185521485Y-96023809D01*
X184854819Y-95738094D02*
X184854819Y-95119047D01*
X184854819Y-95119047D02*
X185235771Y-95452380D01*
X185235771Y-95452380D02*
X185235771Y-95309523D01*
X185235771Y-95309523D02*
X185283390Y-95214285D01*
X185283390Y-95214285D02*
X185331009Y-95166666D01*
X185331009Y-95166666D02*
X185426247Y-95119047D01*
X185426247Y-95119047D02*
X185664342Y-95119047D01*
X185664342Y-95119047D02*
X185759580Y-95166666D01*
X185759580Y-95166666D02*
X185807200Y-95214285D01*
X185807200Y-95214285D02*
X185854819Y-95309523D01*
X185854819Y-95309523D02*
X185854819Y-95595237D01*
X185854819Y-95595237D02*
X185807200Y-95690475D01*
X185807200Y-95690475D02*
X185759580Y-95738094D01*
X184854819Y-94499999D02*
X184854819Y-94404761D01*
X184854819Y-94404761D02*
X184902438Y-94309523D01*
X184902438Y-94309523D02*
X184950057Y-94261904D01*
X184950057Y-94261904D02*
X185045295Y-94214285D01*
X185045295Y-94214285D02*
X185235771Y-94166666D01*
X185235771Y-94166666D02*
X185473866Y-94166666D01*
X185473866Y-94166666D02*
X185664342Y-94214285D01*
X185664342Y-94214285D02*
X185759580Y-94261904D01*
X185759580Y-94261904D02*
X185807200Y-94309523D01*
X185807200Y-94309523D02*
X185854819Y-94404761D01*
X185854819Y-94404761D02*
X185854819Y-94499999D01*
X185854819Y-94499999D02*
X185807200Y-94595237D01*
X185807200Y-94595237D02*
X185759580Y-94642856D01*
X185759580Y-94642856D02*
X185664342Y-94690475D01*
X185664342Y-94690475D02*
X185473866Y-94738094D01*
X185473866Y-94738094D02*
X185235771Y-94738094D01*
X185235771Y-94738094D02*
X185045295Y-94690475D01*
X185045295Y-94690475D02*
X184950057Y-94642856D01*
X184950057Y-94642856D02*
X184902438Y-94595237D01*
X184902438Y-94595237D02*
X184854819Y-94499999D01*
X185854819Y-93738094D02*
X184854819Y-93738094D01*
X185473866Y-93642856D02*
X185854819Y-93357142D01*
X185188152Y-93357142D02*
X185569104Y-93738094D01*
X178238095Y-127054819D02*
X178238095Y-126054819D01*
X178238095Y-126054819D02*
X178809523Y-127054819D01*
X178809523Y-127054819D02*
X178809523Y-126054819D01*
X179190476Y-126054819D02*
X179809523Y-126054819D01*
X179809523Y-126054819D02*
X179476190Y-126435771D01*
X179476190Y-126435771D02*
X179619047Y-126435771D01*
X179619047Y-126435771D02*
X179714285Y-126483390D01*
X179714285Y-126483390D02*
X179761904Y-126531009D01*
X179761904Y-126531009D02*
X179809523Y-126626247D01*
X179809523Y-126626247D02*
X179809523Y-126864342D01*
X179809523Y-126864342D02*
X179761904Y-126959580D01*
X179761904Y-126959580D02*
X179714285Y-127007200D01*
X179714285Y-127007200D02*
X179619047Y-127054819D01*
X179619047Y-127054819D02*
X179333333Y-127054819D01*
X179333333Y-127054819D02*
X179238095Y-127007200D01*
X179238095Y-127007200D02*
X179190476Y-126959580D01*
X176904762Y-125654819D02*
X176904762Y-124654819D01*
X177380952Y-125654819D02*
X177380952Y-124654819D01*
X177380952Y-124654819D02*
X177952380Y-125654819D01*
X177952380Y-125654819D02*
X177952380Y-124654819D01*
X178428571Y-125273866D02*
X179190476Y-125273866D01*
X180190475Y-125654819D02*
X179619047Y-125654819D01*
X179904761Y-125654819D02*
X179904761Y-124654819D01*
X179904761Y-124654819D02*
X179809523Y-124797676D01*
X179809523Y-124797676D02*
X179714285Y-124892914D01*
X179714285Y-124892914D02*
X179619047Y-124940533D01*
X181047618Y-124988152D02*
X181047618Y-125654819D01*
X180809523Y-124607200D02*
X180571428Y-125321485D01*
X180571428Y-125321485D02*
X181190475Y-125321485D01*
%TO.C,SW2*%
D12*
X136500000Y-85300000D02*
X136500000Y-79700000D01*
D13*
X137250000Y-87700000D02*
X137250000Y-87700000D01*
X137250000Y-87800000D02*
X137250000Y-87800000D01*
D12*
X138300000Y-79500000D02*
X140700000Y-79500000D01*
X138300000Y-85500000D02*
X140700000Y-85500000D01*
X142500000Y-85300000D02*
X142500000Y-79700000D01*
D13*
X137250000Y-87700000D02*
G75*
G02*
X137250000Y-87800000I0J-50000D01*
G01*
X137250000Y-87800000D02*
G75*
G02*
X137250000Y-87700000I0J50000D01*
G01*
%TO.C,D2*%
D12*
X126400000Y-133900000D02*
X131600000Y-133900000D01*
X126400000Y-139100000D02*
X131600000Y-139100000D01*
D14*
X125250000Y-134850000D02*
G75*
G02*
X124950000Y-134850000I-150000J0D01*
G01*
X124950000Y-134850000D02*
G75*
G02*
X125250000Y-134850000I150000J0D01*
G01*
%TO.C,PS1*%
D15*
X161830000Y-83330000D02*
X161830000Y-85500000D01*
X161830000Y-83330000D02*
X164000000Y-83330000D01*
D11*
X162000000Y-90900000D02*
X162000000Y-86480000D01*
X162000000Y-100500000D02*
X162000000Y-94100000D01*
X164980000Y-83500000D02*
X177020000Y-83500000D01*
X180000000Y-86480000D02*
X180000000Y-95780000D01*
X180000000Y-99180000D02*
X180000000Y-100500000D01*
X180000000Y-100500000D02*
X162000000Y-100500000D01*
%TO.C,R17*%
D16*
X182665000Y-84272936D02*
X182665000Y-84727064D01*
X184135000Y-84272936D02*
X184135000Y-84727064D01*
%TO.C,J1*%
D12*
X148530000Y-77580000D02*
X148530000Y-76780000D01*
X148530000Y-81780000D02*
X148530000Y-80180000D01*
X157470000Y-77580000D02*
X157470000Y-76780000D01*
X157470000Y-81780000D02*
X157470000Y-80180000D01*
X156300000Y-84680000D02*
G75*
G02*
X156100000Y-84680000I-100000J0D01*
G01*
X156100000Y-84680000D02*
G75*
G02*
X156300000Y-84680000I100000J0D01*
G01*
%TO.C,SW1*%
X128000000Y-85300000D02*
X128000000Y-79700000D01*
D13*
X128750000Y-87700000D02*
X128750000Y-87700000D01*
X128750000Y-87800000D02*
X128750000Y-87800000D01*
D12*
X129800000Y-79500000D02*
X132200000Y-79500000D01*
X129800000Y-85500000D02*
X132200000Y-85500000D01*
X134000000Y-85300000D02*
X134000000Y-79700000D01*
D13*
X128750000Y-87700000D02*
G75*
G02*
X128750000Y-87800000I0J-50000D01*
G01*
X128750000Y-87800000D02*
G75*
G02*
X128750000Y-87700000I0J50000D01*
G01*
%TO.C,U3*%
D17*
X129497484Y-99574000D02*
X130102516Y-99574000D01*
X130102516Y-96526000D02*
X129497484Y-96526000D01*
X130676300Y-98387861D02*
X130676300Y-97712139D01*
X129924872Y-96804047D02*
G75*
G02*
X129675128Y-96804047I-124872J278049D01*
G01*
%TO.C,U6*%
D16*
X168930000Y-108040000D02*
X168930000Y-109690000D01*
X168930000Y-111690000D02*
X168930000Y-113340000D01*
X168930000Y-113340000D02*
X189070000Y-113340000D01*
X189070000Y-108040000D02*
X168930000Y-108040000D01*
X189070000Y-113340000D02*
X189070000Y-108040000D01*
X168930000Y-109690000D02*
G75*
G02*
X168930000Y-111690000I-163235J-1000000D01*
G01*
%TO.C,U4*%
X118930000Y-108040000D02*
X118930000Y-109690000D01*
X118930000Y-111690000D02*
X118930000Y-113340000D01*
X118930000Y-113340000D02*
X139070000Y-113340000D01*
X139070000Y-108040000D02*
X118930000Y-108040000D01*
X139070000Y-113340000D02*
X139070000Y-108040000D01*
X118930000Y-109690000D02*
G75*
G02*
X118930000Y-111690000I-163235J-1000000D01*
G01*
%TO.C,U5*%
X143780000Y-108040000D02*
X143780000Y-109690000D01*
X143780000Y-111690000D02*
X143780000Y-113340000D01*
X143780000Y-113340000D02*
X164220000Y-113340000D01*
X164220000Y-108040000D02*
X143780000Y-108040000D01*
X164220000Y-113340000D02*
X164220000Y-108040000D01*
X143780000Y-109690000D02*
G75*
G02*
X143780000Y-111690000I0J-1000000D01*
G01*
%TO.C,R10*%
D12*
X138812000Y-128500000D02*
X140188000Y-128500000D01*
%TO.C,R19*%
D16*
X182665000Y-98672936D02*
X182665000Y-99127064D01*
X184135000Y-98672936D02*
X184135000Y-99127064D01*
%TO.C,D6*%
X182440000Y-101400000D02*
X182440000Y-104085000D01*
X182440000Y-104085000D02*
X184360000Y-104085000D01*
X184360000Y-104085000D02*
X184360000Y-101400000D01*
%TO.C,R11*%
D12*
X163812000Y-128500000D02*
X165188000Y-128500000D01*
%TO.C,R7*%
D16*
X133272936Y-100765000D02*
X133727064Y-100765000D01*
X133272936Y-102235000D02*
X133727064Y-102235000D01*
%TO.C,C4*%
X129738748Y-101265000D02*
X130261252Y-101265000D01*
X129738748Y-102735000D02*
X130261252Y-102735000D01*
%TO.C,C16*%
X162788748Y-80090000D02*
X164211252Y-80090000D01*
X162788748Y-81910000D02*
X164211252Y-81910000D01*
%TO.C,N1*%
D18*
X136620000Y-136342520D02*
G75*
G02*
X121380000Y-136500000I-7620000J-78740D01*
G01*
X137872220Y-136500000D02*
G75*
G02*
X120127780Y-136500000I-8872220J0D01*
G01*
X120127780Y-136500000D02*
G75*
G02*
X137872220Y-136500000I8872220J0D01*
G01*
%TO.C,R12*%
D12*
X186312000Y-128500000D02*
X187688000Y-128500000D01*
%TO.C,D3*%
X151400000Y-133900000D02*
X156600000Y-133900000D01*
X151400000Y-139100000D02*
X156600000Y-139100000D01*
D14*
X150250000Y-134850000D02*
G75*
G02*
X149950000Y-134850000I-150000J0D01*
G01*
X149950000Y-134850000D02*
G75*
G02*
X150250000Y-134850000I150000J0D01*
G01*
%TO.C,N2*%
D18*
X161620000Y-136342520D02*
G75*
G02*
X146380000Y-136500000I-7620000J-78740D01*
G01*
X162872220Y-136500000D02*
G75*
G02*
X145127780Y-136500000I-8872220J0D01*
G01*
X145127780Y-136500000D02*
G75*
G02*
X162872220Y-136500000I8872220J0D01*
G01*
%TO.C,D5*%
D16*
X182440000Y-87000000D02*
X182440000Y-89685000D01*
X182440000Y-89685000D02*
X184360000Y-89685000D01*
X184360000Y-89685000D02*
X184360000Y-87000000D01*
%TO.C,D4*%
D12*
X176400000Y-133900000D02*
X181600000Y-133900000D01*
X176400000Y-139100000D02*
X181600000Y-139100000D01*
D14*
X175250000Y-134850000D02*
G75*
G02*
X174950000Y-134850000I-150000J0D01*
G01*
X174950000Y-134850000D02*
G75*
G02*
X175250000Y-134850000I150000J0D01*
G01*
%TO.C,C5*%
D16*
X128488748Y-92590000D02*
X129911252Y-92590000D01*
X128488748Y-94410000D02*
X129911252Y-94410000D01*
%TO.C,R18*%
X182665000Y-95172936D02*
X182665000Y-95627064D01*
X184135000Y-95172936D02*
X184135000Y-95627064D01*
%TO.C,N3*%
D18*
X186620000Y-136342520D02*
G75*
G02*
X171380000Y-136500000I-7620000J-78740D01*
G01*
X187872220Y-136500000D02*
G75*
G02*
X170127780Y-136500000I-8872220J0D01*
G01*
X170127780Y-136500000D02*
G75*
G02*
X187872220Y-136500000I8872220J0D01*
G01*
%TD*%
%LPC*%
D19*
%TO.C,SW2*%
X137250000Y-86475000D03*
X137250000Y-78525000D03*
X141750000Y-86475000D03*
X141750000Y-78525000D03*
%TD*%
D20*
%TO.C,D2*%
X126500000Y-134850000D03*
X126500000Y-138150000D03*
X131500000Y-138150000D03*
X131500000Y-134850000D03*
%TD*%
D21*
%TO.C,H1*%
X122500000Y-79500000D03*
%TD*%
D22*
%TO.C,PS1*%
X163380000Y-84880000D03*
D23*
X163380000Y-92500000D03*
X178620000Y-84880000D03*
X178620000Y-97580000D03*
%TD*%
D24*
%TO.C,TP3*%
X161300000Y-104084000D03*
%TD*%
D25*
%TO.C,R17*%
X183400000Y-83587500D03*
X183400000Y-85412500D03*
%TD*%
D26*
%TO.C,J1*%
X156000000Y-82180000D03*
X150000000Y-82180000D03*
D27*
X156200000Y-83455000D03*
X155400000Y-83455000D03*
D28*
X154250000Y-83455000D03*
X153250000Y-83455000D03*
X152750000Y-83455000D03*
X151750000Y-83455000D03*
D27*
X149800000Y-83455000D03*
X150600000Y-83455000D03*
D28*
X151250000Y-83455000D03*
X152250000Y-83455000D03*
X153750000Y-83455000D03*
X154750000Y-83455000D03*
D29*
X158095000Y-82805000D03*
X147905000Y-82805000D03*
D30*
X158095000Y-78880000D03*
X147905000Y-78880000D03*
%TD*%
D19*
%TO.C,SW1*%
X128750000Y-86475000D03*
X128750000Y-78525000D03*
X133250000Y-86475000D03*
X133250000Y-78525000D03*
%TD*%
D31*
%TO.C,U3*%
X128606200Y-97099999D03*
X128606200Y-98050000D03*
X128606200Y-99000001D03*
X130993800Y-99000001D03*
X130993800Y-97099999D03*
%TD*%
D32*
%TO.C,U6*%
X170110000Y-114500000D03*
D33*
X172650000Y-114500000D03*
X175190000Y-114500000D03*
X177730000Y-114500000D03*
X180270000Y-114500000D03*
X182810000Y-114500000D03*
X185350000Y-114500000D03*
X187890000Y-114500000D03*
X187890000Y-106880000D03*
X185350000Y-106880000D03*
X182810000Y-106880000D03*
X180270000Y-106880000D03*
X177730000Y-106880000D03*
X175190000Y-106880000D03*
X172650000Y-106880000D03*
X170110000Y-106880000D03*
%TD*%
D32*
%TO.C,U4*%
X120110000Y-114500000D03*
D33*
X122650000Y-114500000D03*
X125190000Y-114500000D03*
X127730000Y-114500000D03*
X130270000Y-114500000D03*
X132810000Y-114500000D03*
X135350000Y-114500000D03*
X137890000Y-114500000D03*
X137890000Y-106880000D03*
X135350000Y-106880000D03*
X132810000Y-106880000D03*
X130270000Y-106880000D03*
X127730000Y-106880000D03*
X125190000Y-106880000D03*
X122650000Y-106880000D03*
X120110000Y-106880000D03*
%TD*%
D24*
%TO.C,TP1*%
X165913000Y-101259000D03*
%TD*%
D32*
%TO.C,U5*%
X145110000Y-114500000D03*
D33*
X147650000Y-114500000D03*
X150190000Y-114500000D03*
X152730000Y-114500000D03*
X155270000Y-114500000D03*
X157810000Y-114500000D03*
X160350000Y-114500000D03*
X162890000Y-114500000D03*
X162890000Y-106880000D03*
X160350000Y-106880000D03*
X157810000Y-106880000D03*
X155270000Y-106880000D03*
X152730000Y-106880000D03*
X150190000Y-106880000D03*
X147650000Y-106880000D03*
X145110000Y-106880000D03*
%TD*%
D34*
%TO.C,R10*%
X139500000Y-129950000D03*
X139500000Y-127050000D03*
%TD*%
D25*
%TO.C,R19*%
X183400000Y-97987500D03*
X183400000Y-99812500D03*
%TD*%
D35*
%TO.C,D6*%
X183400000Y-103337500D03*
X183400000Y-101462500D03*
%TD*%
D24*
%TO.C,TP4*%
X166141000Y-119890000D03*
%TD*%
D34*
%TO.C,R11*%
X164500000Y-129950000D03*
X164500000Y-127050000D03*
%TD*%
D36*
%TO.C,R7*%
X132587500Y-101500000D03*
X134412500Y-101500000D03*
%TD*%
D21*
%TO.C,H3*%
X141500000Y-143500000D03*
%TD*%
D37*
%TO.C,C4*%
X129050000Y-102000000D03*
X130950000Y-102000000D03*
%TD*%
D38*
%TO.C,C16*%
X162025000Y-81000000D03*
X164975000Y-81000000D03*
%TD*%
D39*
%TO.C,N1*%
X134092700Y-132984640D03*
X123907300Y-132984640D03*
X122855740Y-135755780D03*
X123213880Y-138694560D03*
X124895360Y-141132960D03*
X127519180Y-142509640D03*
X130480820Y-142509640D03*
X133104640Y-141132960D03*
X134786120Y-138694560D03*
X135144260Y-135755780D03*
X129000000Y-130312560D03*
%TD*%
D34*
%TO.C,R12*%
X187000000Y-129950000D03*
X187000000Y-127050000D03*
%TD*%
D20*
%TO.C,D3*%
X151500000Y-134850000D03*
X151500000Y-138150000D03*
X156500000Y-138150000D03*
X156500000Y-134850000D03*
%TD*%
D21*
%TO.C,H4*%
X166500000Y-143500000D03*
%TD*%
D39*
%TO.C,N2*%
X159092700Y-132984640D03*
X148907300Y-132984640D03*
X147855740Y-135755780D03*
X148213880Y-138694560D03*
X149895360Y-141132960D03*
X152519180Y-142509640D03*
X155480820Y-142509640D03*
X158104640Y-141132960D03*
X159786120Y-138694560D03*
X160144260Y-135755780D03*
X154000000Y-130312560D03*
%TD*%
D35*
%TO.C,D5*%
X183400000Y-88937500D03*
X183400000Y-87062500D03*
%TD*%
D20*
%TO.C,D4*%
X176500000Y-134850000D03*
X176500000Y-138150000D03*
X181500000Y-138150000D03*
X181500000Y-134850000D03*
%TD*%
D38*
%TO.C,C5*%
X127725000Y-93500000D03*
X130675000Y-93500000D03*
%TD*%
D21*
%TO.C,H2*%
X181000000Y-79500000D03*
%TD*%
D25*
%TO.C,R18*%
X183400000Y-94487500D03*
X183400000Y-96312500D03*
%TD*%
D39*
%TO.C,N3*%
X184092700Y-132984640D03*
X173907300Y-132984640D03*
X172855740Y-135755780D03*
X173213880Y-138694560D03*
X174895360Y-141132960D03*
X177519180Y-142509640D03*
X180480820Y-142509640D03*
X183104640Y-141132960D03*
X184786120Y-138694560D03*
X185144260Y-135755780D03*
X179000000Y-130312560D03*
%TD*%
D24*
%TO.C,TP2*%
X150206000Y-100959000D03*
%TD*%
%LPD*%
M02*
