%TF.GenerationSoftware,KiCad,Pcbnew,10.0.5*%
%TF.CreationDate,2026-09-01T00:59:53-07:00*%
%TF.ProjectId,nixie-esp32,6e697869-652d-4657-9370-33322e6b6963,rev?*%
%TF.SameCoordinates,Original*%
%TF.FileFunction,Paste,Top*%
%TF.FilePolarity,Positive*%
%FSLAX46Y46*%
G04 Gerber Fmt 4.6, Leading zero omitted, Abs format (unit mm)*
G04 Created by KiCad (PCBNEW 10.0.5) date 2026-09-01 00:59:53*
%MOMM*%
%LPD*%
G01*
G04 APERTURE LIST*
G04 Aperture macros list*
%AMRoundRect*
0 Rectangle with rounded corners*
0 $1 Rounding radius*
0 $2 $3 $4 $5 $6 $7 $8 $9 X,Y pos of 4 corners*
0 Add a 4 corners polygon primitive as box body*
4,1,4,$2,$3,$4,$5,$6,$7,$8,$9,$2,$3,0*
0 Add four circle primitives for the rounded corners*
1,1,$1+$1,$2,$3*
1,1,$1+$1,$4,$5*
1,1,$1+$1,$6,$7*
1,1,$1+$1,$8,$9*
0 Add four rect primitives between the rounded corners*
20,1,$1+$1,$2,$3,$4,$5,0*
20,1,$1+$1,$4,$5,$6,$7,0*
20,1,$1+$1,$6,$7,$8,$9,0*
20,1,$1+$1,$8,$9,$2,$3,0*%
G04 Aperture macros list end*
%ADD10R,1.550000X1.300000*%
%ADD11R,1.400000X0.900000*%
%ADD12RoundRect,0.250000X-0.450000X0.262500X-0.450000X-0.262500X0.450000X-0.262500X0.450000X0.262500X0*%
%ADD13R,0.600000X1.150000*%
%ADD14R,0.300000X1.150000*%
%ADD15R,1.550000X1.250000*%
%ADD16R,1.550000X1.500000*%
%ADD17R,1.473200X0.558800*%
%ADD18R,1.750000X1.050000*%
%ADD19RoundRect,0.243750X0.456250X-0.243750X0.456250X0.243750X-0.456250X0.243750X-0.456250X-0.243750X0*%
%ADD20RoundRect,0.250000X-0.262500X-0.450000X0.262500X-0.450000X0.262500X0.450000X-0.262500X0.450000X0*%
%ADD21RoundRect,0.250000X-0.250000X-0.475000X0.250000X-0.475000X0.250000X0.475000X-0.250000X0.475000X0*%
%ADD22RoundRect,0.250000X-0.325000X-0.650000X0.325000X-0.650000X0.325000X0.650000X-0.325000X0.650000X0*%
G04 APERTURE END LIST*
D10*
%TO.C,SW2*%
X137250000Y-86475000D03*
X137250000Y-78525000D03*
X141750000Y-86475000D03*
X141750000Y-78525000D03*
%TD*%
D11*
%TO.C,D2*%
X126500000Y-134850000D03*
X126500000Y-138150000D03*
X131500000Y-138150000D03*
X131500000Y-134850000D03*
%TD*%
D12*
%TO.C,R17*%
X183400000Y-83587500D03*
X183400000Y-85412500D03*
%TD*%
D13*
%TO.C,J1*%
X156200000Y-83455000D03*
X155400000Y-83455000D03*
D14*
X154250000Y-83455000D03*
X153250000Y-83455000D03*
X152750000Y-83455000D03*
X151750000Y-83455000D03*
D13*
X149800000Y-83455000D03*
X150600000Y-83455000D03*
D14*
X151250000Y-83455000D03*
X152250000Y-83455000D03*
X153750000Y-83455000D03*
X154750000Y-83455000D03*
D15*
X158095000Y-82805000D03*
X147905000Y-82805000D03*
D16*
X158095000Y-78880000D03*
X147905000Y-78880000D03*
%TD*%
D10*
%TO.C,SW1*%
X128750000Y-86475000D03*
X128750000Y-78525000D03*
X133250000Y-86475000D03*
X133250000Y-78525000D03*
%TD*%
D17*
%TO.C,U3*%
X128606200Y-97099999D03*
X128606200Y-98050000D03*
X128606200Y-99000001D03*
X130993800Y-99000001D03*
X130993800Y-97099999D03*
%TD*%
D18*
%TO.C,R10*%
X139500000Y-129950000D03*
X139500000Y-127050000D03*
%TD*%
D12*
%TO.C,R19*%
X183400000Y-97987500D03*
X183400000Y-99812500D03*
%TD*%
D19*
%TO.C,D6*%
X183400000Y-103337500D03*
X183400000Y-101462500D03*
%TD*%
D18*
%TO.C,R11*%
X164500000Y-129950000D03*
X164500000Y-127050000D03*
%TD*%
D20*
%TO.C,R7*%
X132587500Y-101500000D03*
X134412500Y-101500000D03*
%TD*%
D21*
%TO.C,C4*%
X129050000Y-102000000D03*
X130950000Y-102000000D03*
%TD*%
D22*
%TO.C,C16*%
X162025000Y-81000000D03*
X164975000Y-81000000D03*
%TD*%
D18*
%TO.C,R12*%
X187000000Y-129950000D03*
X187000000Y-127050000D03*
%TD*%
D11*
%TO.C,D3*%
X151500000Y-134850000D03*
X151500000Y-138150000D03*
X156500000Y-138150000D03*
X156500000Y-134850000D03*
%TD*%
D19*
%TO.C,D5*%
X183400000Y-88937500D03*
X183400000Y-87062500D03*
%TD*%
D11*
%TO.C,D4*%
X176500000Y-134850000D03*
X176500000Y-138150000D03*
X181500000Y-138150000D03*
X181500000Y-134850000D03*
%TD*%
D22*
%TO.C,C5*%
X127725000Y-93500000D03*
X130675000Y-93500000D03*
%TD*%
D12*
%TO.C,R18*%
X183400000Y-94487500D03*
X183400000Y-96312500D03*
%TD*%
M02*
