%TF.GenerationSoftware,KiCad,Pcbnew,10.0.5*%
%TF.CreationDate,2026-09-01T00:59:53-07:00*%
%TF.ProjectId,nixie-esp32,6e697869-652d-4657-9370-33322e6b6963,rev?*%
%TF.SameCoordinates,Original*%
%TF.FileFunction,Copper,L5,Inr*%
%TF.FilePolarity,Positive*%
%FSLAX46Y46*%
G04 Gerber Fmt 4.6, Leading zero omitted, Abs format (unit mm)*
G04 Created by KiCad (PCBNEW 10.0.5) date 2026-09-01 00:59:53*
%MOMM*%
%LPD*%
G01*
G04 APERTURE LIST*
G04 Aperture macros list*
%AMRoundRect*
0 Rectangle with rounded corners*
0 $1 Rounding radius*
0 $2 $3 $4 $5 $6 $7 $8 $9 X,Y pos of 4 corners*
0 Add a 4 corners polygon primitive as box body*
4,1,4,$2,$3,$4,$5,$6,$7,$8,$9,$2,$3,0*
0 Add four circle primitives for the rounded corners*
1,1,$1+$1,$2,$3*
1,1,$1+$1,$4,$5*
1,1,$1+$1,$6,$7*
1,1,$1+$1,$8,$9*
0 Add four rect primitives between the rounded corners*
20,1,$1+$1,$2,$3,$4,$5,0*
20,1,$1+$1,$4,$5,$6,$7,0*
20,1,$1+$1,$6,$7,$8,$9,0*
20,1,$1+$1,$8,$9,$2,$3,0*%
G04 Aperture macros list end*
%TA.AperFunction,ComponentPad*%
%ADD10R,2.400000X2.400000*%
%TD*%
%TA.AperFunction,ComponentPad*%
%ADD11C,2.400000*%
%TD*%
%TA.AperFunction,ComponentPad*%
%ADD12RoundRect,0.250000X0.550000X-0.550000X0.550000X0.550000X-0.550000X0.550000X-0.550000X-0.550000X0*%
%TD*%
%TA.AperFunction,ComponentPad*%
%ADD13C,1.600000*%
%TD*%
%TA.AperFunction,ComponentPad*%
%ADD14C,1.346200*%
%TD*%
%TA.AperFunction,ViaPad*%
%ADD15C,0.600000*%
%TD*%
%TA.AperFunction,Conductor*%
%ADD16C,0.200000*%
%TD*%
G04 APERTURE END LIST*
D10*
%TO.N,+5V*%
%TO.C,PS1*%
X163380000Y-84880000D03*
D11*
%TO.N,GND*%
X163380000Y-92500000D03*
%TO.N,+170V*%
X178620000Y-84880000D03*
%TO.N,GND*%
X178620000Y-97580000D03*
%TD*%
D12*
%TO.N,/Nixies/HvDriver/N3_K8*%
%TO.C,U6*%
X170110000Y-114500000D03*
D13*
%TO.N,/Nixies/HvDriver/N3_K9*%
X172650000Y-114500000D03*
%TO.N,ESP32_GPIO17*%
X175190000Y-114500000D03*
%TO.N,ESP32_GPIO38*%
X177730000Y-114500000D03*
%TO.N,+5V*%
X180270000Y-114500000D03*
%TO.N,ESP32_GPIO18*%
X182810000Y-114500000D03*
%TO.N,ESP32_GPIO21*%
X185350000Y-114500000D03*
%TO.N,/Nixies/HvDriver/N3_K1*%
X187890000Y-114500000D03*
%TO.N,/Nixies/HvDriver/N3_K3*%
X187890000Y-106880000D03*
%TO.N,/Nixies/HvDriver/N3_K7*%
X185350000Y-106880000D03*
%TO.N,/Nixies/HvDriver/N3_K6*%
X182810000Y-106880000D03*
%TO.N,GND*%
X180270000Y-106880000D03*
%TO.N,/Nixies/HvDriver/N3_K4*%
X177730000Y-106880000D03*
%TO.N,/Nixies/HvDriver/N3_K5*%
X175190000Y-106880000D03*
%TO.N,/Nixies/HvDriver/N3_K0*%
X172650000Y-106880000D03*
%TO.N,/Nixies/HvDriver/N3_K2*%
X170110000Y-106880000D03*
%TD*%
D12*
%TO.N,/Nixies/HvDriver/N1_K8*%
%TO.C,U4*%
X120110000Y-114500000D03*
D13*
%TO.N,/Nixies/HvDriver/N1_K9*%
X122650000Y-114500000D03*
%TO.N,ESP32_GPIO1*%
X125190000Y-114500000D03*
%TO.N,ESP32_GPIO6*%
X127730000Y-114500000D03*
%TO.N,+5V*%
X130270000Y-114500000D03*
%TO.N,ESP32_GPIO2*%
X132810000Y-114500000D03*
%TO.N,ESP32_GPIO5*%
X135350000Y-114500000D03*
%TO.N,/Nixies/HvDriver/N1_K1*%
X137890000Y-114500000D03*
%TO.N,/Nixies/HvDriver/N1_K3*%
X137890000Y-106880000D03*
%TO.N,/Nixies/HvDriver/N1_K7*%
X135350000Y-106880000D03*
%TO.N,/Nixies/HvDriver/N1_K6*%
X132810000Y-106880000D03*
%TO.N,GND*%
X130270000Y-106880000D03*
%TO.N,/Nixies/HvDriver/N1_K4*%
X127730000Y-106880000D03*
%TO.N,/Nixies/HvDriver/N1_K5*%
X125190000Y-106880000D03*
%TO.N,/Nixies/HvDriver/N1_K0*%
X122650000Y-106880000D03*
%TO.N,/Nixies/HvDriver/N1_K2*%
X120110000Y-106880000D03*
%TD*%
D12*
%TO.N,/Nixies/HvDriver/N2_K8*%
%TO.C,U5*%
X145110000Y-114500000D03*
D13*
%TO.N,/Nixies/HvDriver/N2_K9*%
X147650000Y-114500000D03*
%TO.N,ESP32_GPIO7*%
X150190000Y-114500000D03*
%TO.N,ESP32_GPIO14*%
X152730000Y-114500000D03*
%TO.N,+5V*%
X155270000Y-114500000D03*
%TO.N,ESP32_GPIO12*%
X157810000Y-114500000D03*
%TO.N,ESP32_GPIO13*%
X160350000Y-114500000D03*
%TO.N,/Nixies/HvDriver/N2_K1*%
X162890000Y-114500000D03*
%TO.N,/Nixies/HvDriver/N2_K3*%
X162890000Y-106880000D03*
%TO.N,/Nixies/HvDriver/N2_K7*%
X160350000Y-106880000D03*
%TO.N,/Nixies/HvDriver/N2_K6*%
X157810000Y-106880000D03*
%TO.N,GND*%
X155270000Y-106880000D03*
%TO.N,/Nixies/HvDriver/N2_K4*%
X152730000Y-106880000D03*
%TO.N,/Nixies/HvDriver/N2_K5*%
X150190000Y-106880000D03*
%TO.N,/Nixies/HvDriver/N2_K0*%
X147650000Y-106880000D03*
%TO.N,/Nixies/HvDriver/N2_K2*%
X145110000Y-106880000D03*
%TD*%
D14*
%TO.N,/Nixies/HvDriver/N1_K0*%
%TO.C,N1*%
X134092700Y-132984640D03*
%TO.N,/Nixies/HvDriver/N1_K1*%
X123907300Y-132984640D03*
%TO.N,/Nixies/HvDriver/N1_K2*%
X122855740Y-135755780D03*
%TO.N,/Nixies/HvDriver/N1_K3*%
X123213880Y-138694560D03*
%TO.N,/Nixies/HvDriver/N1_K4*%
X124895360Y-141132960D03*
%TO.N,/Nixies/HvDriver/N1_K5*%
X127519180Y-142509640D03*
%TO.N,/Nixies/HvDriver/N1_K6*%
X130480820Y-142509640D03*
%TO.N,/Nixies/HvDriver/N1_K7*%
X133104640Y-141132960D03*
%TO.N,/Nixies/HvDriver/N1_K8*%
X134786120Y-138694560D03*
%TO.N,/Nixies/HvDriver/N1_K9*%
X135144260Y-135755780D03*
%TO.N,/Nixies/HvDriver/Nixie1/ANODE*%
X129000000Y-130312560D03*
%TD*%
%TO.N,/Nixies/HvDriver/N2_K0*%
%TO.C,N2*%
X159092700Y-132984640D03*
%TO.N,/Nixies/HvDriver/N2_K1*%
X148907300Y-132984640D03*
%TO.N,/Nixies/HvDriver/N2_K2*%
X147855740Y-135755780D03*
%TO.N,/Nixies/HvDriver/N2_K3*%
X148213880Y-138694560D03*
%TO.N,/Nixies/HvDriver/N2_K4*%
X149895360Y-141132960D03*
%TO.N,/Nixies/HvDriver/N2_K5*%
X152519180Y-142509640D03*
%TO.N,/Nixies/HvDriver/N2_K6*%
X155480820Y-142509640D03*
%TO.N,/Nixies/HvDriver/N2_K7*%
X158104640Y-141132960D03*
%TO.N,/Nixies/HvDriver/N2_K8*%
X159786120Y-138694560D03*
%TO.N,/Nixies/HvDriver/N2_K9*%
X160144260Y-135755780D03*
%TO.N,/Nixies/HvDriver/Nixie2/ANODE*%
X154000000Y-130312560D03*
%TD*%
%TO.N,/Nixies/HvDriver/N3_K0*%
%TO.C,N3*%
X184092700Y-132984640D03*
%TO.N,/Nixies/HvDriver/N3_K1*%
X173907300Y-132984640D03*
%TO.N,/Nixies/HvDriver/N3_K2*%
X172855740Y-135755780D03*
%TO.N,/Nixies/HvDriver/N3_K3*%
X173213880Y-138694560D03*
%TO.N,/Nixies/HvDriver/N3_K4*%
X174895360Y-141132960D03*
%TO.N,/Nixies/HvDriver/N3_K5*%
X177519180Y-142509640D03*
%TO.N,/Nixies/HvDriver/N3_K6*%
X180480820Y-142509640D03*
%TO.N,/Nixies/HvDriver/N3_K7*%
X183104640Y-141132960D03*
%TO.N,/Nixies/HvDriver/N3_K8*%
X184786120Y-138694560D03*
%TO.N,/Nixies/HvDriver/N3_K9*%
X185144260Y-135755780D03*
%TO.N,/Nixies/HvDriver/Nixie3/ANODE*%
X179000000Y-130312560D03*
%TD*%
D15*
%TO.N,Net-(SW2-NO_1)*%
X137250000Y-83340200D03*
X144850000Y-100881700D03*
%TO.N,GND*%
X144687200Y-79476700D03*
X179153800Y-137498300D03*
X163927800Y-82047200D03*
X128000000Y-80246700D03*
X129646100Y-100347100D03*
X165913500Y-101259000D03*
X135248100Y-80735200D03*
X155294800Y-138153100D03*
X151013400Y-89976500D03*
X137422700Y-95047800D03*
X130218200Y-117898200D03*
X132719300Y-137932400D03*
X159394000Y-82855200D03*
%TO.N,+5V*%
X161300000Y-104083700D03*
X127722400Y-134630900D03*
X181900000Y-84487500D03*
X127688000Y-101592000D03*
X177714300Y-134922300D03*
X129955500Y-95730500D03*
X152720500Y-134631200D03*
X173280000Y-83487600D03*
%TO.N,/LEDs/LED1/DOUT*%
X155259200Y-134724200D03*
X128876300Y-137498300D03*
%TO.N,/LEDs/LED1_DIN*%
X130274200Y-134179100D03*
X135497400Y-104119200D03*
%TO.N,+170V*%
X166843100Y-127270100D03*
X185021700Y-127251600D03*
X166141300Y-119889700D03*
X140976200Y-125546200D03*
%TO.N,Net-(J1-VBUS_A)*%
X167219100Y-83276700D03*
X152558200Y-80817800D03*
%TO.N,Net-(J1-CC1)*%
X155000000Y-85000000D03*
%TO.N,/USB_D+*%
X153139200Y-84712300D03*
%TO.N,/USB_D-*%
X152500000Y-88255600D03*
X154154900Y-85359000D03*
%TO.N,Net-(J1-CC2)*%
X157912500Y-94082000D03*
X151622900Y-86559600D03*
%TO.N,Net-(SW1-NO_1)*%
X130920000Y-86630200D03*
X129410300Y-79697800D03*
%TO.N,/ESP32_GPIO4*%
X132109900Y-87495200D03*
X127365600Y-98050000D03*
%TO.N,ESP32_GPIO17*%
X139810000Y-86618000D03*
%TO.N,ESP32_GPIO38*%
X139810000Y-106134800D03*
%TO.N,ESP32_GPIO18*%
X141080000Y-87627200D03*
%TO.N,ESP32_GPIO21*%
X147577900Y-99182000D03*
%TO.N,/Nixies/HvDriver/N3_K3*%
X172587800Y-119302300D03*
%TO.N,/Nixies/HvDriver/N3_K4*%
X165274800Y-133336500D03*
%TO.N,/Nixies/HvDriver/N3_K5*%
X170438300Y-116171800D03*
X172829400Y-122288400D03*
%TO.N,/Nixies/HvDriver/N3_K0*%
X174905200Y-127081600D03*
%TO.N,ESP32_GPIO1*%
X129870600Y-104122300D03*
%TO.N,ESP32_GPIO6*%
X133451100Y-88955700D03*
X137960800Y-122077600D03*
%TO.N,ESP32_GPIO2*%
X130920000Y-104120100D03*
%TO.N,ESP32_GPIO5*%
X133460000Y-87656000D03*
%TO.N,/Nixies/HvDriver/N1_K5*%
X139122500Y-111408700D03*
%TO.N,ESP32_GPIO7*%
X141370200Y-113062000D03*
X137855400Y-88817800D03*
%TO.N,ESP32_GPIO14*%
X147395000Y-96646000D03*
%TO.N,ESP32_GPIO12*%
X151300000Y-93716200D03*
%TO.N,ESP32_GPIO13*%
X144884600Y-94066100D03*
%TO.N,/Nixies/HvDriver/N2_K3*%
X150550500Y-110976300D03*
%TO.N,/Nixies/HvDriver/N2_K4*%
X149717500Y-110144100D03*
%TO.N,/Nixies/HvDriver/N2_K0*%
X155287100Y-128202300D03*
%TO.N,/Nixies/HvDriver/Nixie1/ANODE*%
X136962100Y-129716600D03*
%TO.N,/Nixies/HvDriver/Nixie2/ANODE*%
X160085500Y-129285500D03*
%TO.N,/LEDs/LED2/DOUT*%
X155969800Y-136362500D03*
X179287600Y-135364200D03*
%TO.N,+3.3V*%
X130073100Y-87241900D03*
X150205500Y-100958800D03*
%TO.N,Net-(U2-GPIO19/U1RTS/ADC2_CH8/CLK_OUT2/USB_D-)*%
X148941700Y-87369000D03*
X143620000Y-86631800D03*
%TO.N,/ESP32_GPIO11*%
X148859900Y-95906800D03*
X144869300Y-92414000D03*
%TD*%
%TO.N,GND*%
D16*
X132123400Y-100347100D02*
X137422700Y-95047800D01*
X129646100Y-100347100D02*
X132123400Y-100347100D01*
%TO.N,/LEDs/LED1/DOUT*%
X155259200Y-134724200D02*
X152916300Y-137067100D01*
X129307500Y-137067100D02*
X128876300Y-137498300D01*
X152916300Y-137067100D02*
X129307500Y-137067100D01*
%TO.N,+170V*%
X166277600Y-126704600D02*
X166843100Y-127270100D01*
X171614100Y-127270100D02*
X166843100Y-127270100D01*
X185021700Y-127251600D02*
X183650000Y-125879900D01*
X142134600Y-126704600D02*
X166277600Y-126704600D01*
X183650000Y-125879900D02*
X173004300Y-125879900D01*
X140976200Y-125546200D02*
X142134600Y-126704600D01*
X173004300Y-125879900D02*
X171614100Y-127270100D01*
%TO.N,Net-(J1-VBUS_A)*%
X164760200Y-80817800D02*
X152558200Y-80817800D01*
X167219100Y-83276700D02*
X164760200Y-80817800D01*
%TO.N,ESP32_GPIO17*%
X139810000Y-92284200D02*
X139810000Y-86618000D01*
X172789700Y-112742100D02*
X163528900Y-103481300D01*
X173432100Y-112742100D02*
X172789700Y-112742100D01*
X151007200Y-103481300D02*
X139810100Y-92284200D01*
X175190000Y-114500000D02*
X173432100Y-112742100D01*
X163528900Y-103481300D02*
X151007200Y-103481300D01*
X139810100Y-92284200D02*
X139810000Y-92284200D01*
%TO.N,ESP32_GPIO21*%
X172638400Y-111940200D02*
X159880200Y-99182000D01*
X185350000Y-114500000D02*
X182790200Y-111940200D01*
X182790200Y-111940200D02*
X172638400Y-111940200D01*
X159880200Y-99182000D02*
X147577900Y-99182000D01*
%TO.N,/Nixies/HvDriver/N3_K0*%
X178189700Y-127081600D02*
X174905200Y-127081600D01*
X184092700Y-132984600D02*
X178189700Y-127081600D01*
%TO.N,ESP32_GPIO6*%
X142273300Y-117765100D02*
X137960800Y-122077600D01*
X142273300Y-97777900D02*
X142273300Y-117765100D01*
X133451100Y-88955700D02*
X142273300Y-97777900D01*
%TO.N,/Nixies/HvDriver/N1_K1*%
X137890000Y-116977300D02*
X137890000Y-114500000D01*
X123907300Y-132984600D02*
X123907300Y-130960000D01*
X123907300Y-130960000D02*
X137890000Y-116977300D01*
%TO.N,/Nixies/HvDriver/N1_K4*%
X129372400Y-133201400D02*
X129372400Y-134259400D01*
X140027500Y-118720500D02*
X130887300Y-127860700D01*
X134761000Y-108322300D02*
X140027500Y-113588800D01*
X129372400Y-134259400D02*
X124895400Y-138736400D01*
X140027500Y-113588800D02*
X140027500Y-118720500D01*
X129172300Y-108322300D02*
X134761000Y-108322300D01*
X124895400Y-138736400D02*
X124895400Y-141133000D01*
X127730000Y-106880000D02*
X129172300Y-108322300D01*
X130887300Y-127860700D02*
X130887300Y-131686500D01*
X130887300Y-131686500D02*
X129372400Y-133201400D01*
%TO.N,/Nixies/HvDriver/N1_K2*%
X135181600Y-109766400D02*
X139325800Y-113910600D01*
X125472700Y-133222100D02*
X122939000Y-135755800D01*
X139325800Y-113910600D02*
X139325800Y-116533800D01*
X120110000Y-106880000D02*
X122996400Y-109766400D01*
X139325800Y-116533800D02*
X125472700Y-130386900D01*
X125472700Y-130386900D02*
X125472700Y-133222100D01*
X122996400Y-109766400D02*
X135181600Y-109766400D01*
X122939000Y-135755800D02*
X122855700Y-135755800D01*
%TO.N,/Nixies/HvDriver/Nixie2/ANODE*%
X159058400Y-130312600D02*
X160085500Y-129285500D01*
X154000000Y-130312600D02*
X159058400Y-130312600D01*
%TO.N,/LEDs/LED2/DOUT*%
X156672100Y-137064800D02*
X155969800Y-136362500D01*
X177587000Y-137064800D02*
X156672100Y-137064800D01*
X179287600Y-135364200D02*
X177587000Y-137064800D01*
%TO.N,/ESP32_GPIO11*%
X145367100Y-92414000D02*
X148859900Y-95906800D01*
X144869300Y-92414000D02*
X145367100Y-92414000D01*
%TD*%
M02*
