%TF.GenerationSoftware,KiCad,Pcbnew,10.0.5*%
%TF.CreationDate,2026-09-01T00:59:53-07:00*%
%TF.ProjectId,nixie-esp32,6e697869-652d-4657-9370-33322e6b6963,rev?*%
%TF.SameCoordinates,Original*%
%TF.FileFunction,Paste,Bot*%
%TF.FilePolarity,Positive*%
%FSLAX46Y46*%
G04 Gerber Fmt 4.6, Leading zero omitted, Abs format (unit mm)*
G04 Created by KiCad (PCBNEW 10.0.5) date 2026-09-01 00:59:53*
%MOMM*%
%LPD*%
G01*
G04 APERTURE LIST*
G04 Aperture macros list*
%AMRoundRect*
0 Rectangle with rounded corners*
0 $1 Rounding radius*
0 $2 $3 $4 $5 $6 $7 $8 $9 X,Y pos of 4 corners*
0 Add a 4 corners polygon primitive as box body*
4,1,4,$2,$3,$4,$5,$6,$7,$8,$9,$2,$3,0*
0 Add four circle primitives for the rounded corners*
1,1,$1+$1,$2,$3*
1,1,$1+$1,$4,$5*
1,1,$1+$1,$6,$7*
1,1,$1+$1,$8,$9*
0 Add four rect primitives between the rounded corners*
20,1,$1+$1,$2,$3,$4,$5,0*
20,1,$1+$1,$4,$5,$6,$7,0*
20,1,$1+$1,$6,$7,$8,$9,0*
20,1,$1+$1,$8,$9,$2,$3,0*%
G04 Aperture macros list end*
%ADD10RoundRect,0.250000X0.475000X-0.250000X0.475000X0.250000X-0.475000X0.250000X-0.475000X-0.250000X0*%
%ADD11RoundRect,0.250000X0.325000X0.650000X-0.325000X0.650000X-0.325000X-0.650000X0.325000X-0.650000X0*%
%ADD12RoundRect,0.250000X-0.250000X-0.475000X0.250000X-0.475000X0.250000X0.475000X-0.250000X0.475000X0*%
%ADD13RoundRect,0.250000X0.250000X0.475000X-0.250000X0.475000X-0.250000X-0.475000X0.250000X-0.475000X0*%
%ADD14RoundRect,0.250000X0.450000X-0.262500X0.450000X0.262500X-0.450000X0.262500X-0.450000X-0.262500X0*%
%ADD15RoundRect,0.250000X-0.262500X-0.450000X0.262500X-0.450000X0.262500X0.450000X-0.262500X0.450000X0*%
%ADD16R,1.680000X2.950000*%
%ADD17R,0.300000X0.950000*%
%ADD18R,0.900000X1.500000*%
%ADD19R,1.500000X0.900000*%
%ADD20R,0.900000X0.900000*%
%ADD21R,0.863600X1.752600*%
%ADD22R,3.149600X1.752600*%
%ADD23RoundRect,0.250000X-0.325000X-0.650000X0.325000X-0.650000X0.325000X0.650000X-0.325000X0.650000X0*%
G04 APERTURE END LIST*
D10*
%TO.C,C15*%
X134000000Y-83150000D03*
X134000000Y-81250000D03*
%TD*%
D11*
%TO.C,C2*%
X153875000Y-102300000D03*
X150925000Y-102300000D03*
%TD*%
D12*
%TO.C,C6*%
X128050000Y-136500000D03*
X129950000Y-136500000D03*
%TD*%
D13*
%TO.C,C12*%
X156220000Y-117000000D03*
X154320000Y-117000000D03*
%TD*%
%TO.C,C11*%
X131220000Y-117000000D03*
X129320000Y-117000000D03*
%TD*%
D14*
%TO.C,R6*%
X149000000Y-102412500D03*
X149000000Y-100587500D03*
%TD*%
D15*
%TO.C,R15*%
X148087500Y-90500000D03*
X149912500Y-90500000D03*
%TD*%
D14*
%TO.C,R3*%
X131000000Y-83112500D03*
X131000000Y-81287500D03*
%TD*%
D16*
%TO.C,F1*%
X173280000Y-81500000D03*
X168500000Y-81500000D03*
%TD*%
D12*
%TO.C,C8*%
X178050000Y-136500000D03*
X179950000Y-136500000D03*
%TD*%
D17*
%TO.C,D1*%
X152500000Y-85750000D03*
X153000000Y-85750000D03*
X153500000Y-85750000D03*
X153500000Y-87250000D03*
X152500000Y-87250000D03*
%TD*%
D15*
%TO.C,R16*%
X148087500Y-92700000D03*
X149912500Y-92700000D03*
%TD*%
D10*
%TO.C,C3*%
X128000000Y-83150000D03*
X128000000Y-81250000D03*
%TD*%
D15*
%TO.C,R2*%
X156087500Y-91000000D03*
X157912500Y-91000000D03*
%TD*%
D18*
%TO.C,U2*%
X128380000Y-85350000D03*
X129650000Y-85350000D03*
X130920000Y-85350000D03*
X132190000Y-85350000D03*
X133460000Y-85350000D03*
X134730000Y-85350000D03*
X136000000Y-85350000D03*
X137270000Y-85350000D03*
X138540000Y-85350000D03*
X139810000Y-85350000D03*
X141080000Y-85350000D03*
X142350000Y-85350000D03*
X143620000Y-85350000D03*
X144890000Y-85350000D03*
D19*
X146140000Y-87115000D03*
X146140000Y-88385000D03*
X146140000Y-89655000D03*
X146140000Y-90925000D03*
X146140000Y-92195000D03*
X146140000Y-93465000D03*
X146140000Y-94735000D03*
X146140000Y-96005000D03*
X146140000Y-97275000D03*
X146140000Y-98545000D03*
X146140000Y-99815000D03*
X146140000Y-101085000D03*
D18*
X144890000Y-102850000D03*
X143620000Y-102850000D03*
X142350000Y-102850000D03*
X141080000Y-102850000D03*
X139810000Y-102850000D03*
X138540000Y-102850000D03*
X137270000Y-102850000D03*
X136000000Y-102850000D03*
X134730000Y-102850000D03*
X133460000Y-102850000D03*
X132190000Y-102850000D03*
X130920000Y-102850000D03*
X129650000Y-102850000D03*
X128380000Y-102850000D03*
D20*
X137500000Y-91200000D03*
X137500000Y-91200000D03*
X136100000Y-91200000D03*
X134700000Y-91200000D03*
X137500000Y-92600000D03*
X136100000Y-92600000D03*
X134700000Y-92600000D03*
X134700000Y-92600000D03*
X137500000Y-94000000D03*
X136100000Y-94000000D03*
X134700000Y-94000000D03*
%TD*%
D13*
%TO.C,C13*%
X181220000Y-117000000D03*
X179320000Y-117000000D03*
%TD*%
D21*
%TO.C,U1*%
X161300000Y-102535300D03*
X159000000Y-102535300D03*
X156700000Y-102535300D03*
D22*
X159000000Y-96464700D03*
%TD*%
D12*
%TO.C,C7*%
X153050000Y-136500000D03*
X154950000Y-136500000D03*
%TD*%
D14*
%TO.C,R14*%
X143000000Y-83112500D03*
X143000000Y-81287500D03*
%TD*%
D23*
%TO.C,C1*%
X164325000Y-102300000D03*
X167275000Y-102300000D03*
%TD*%
D15*
%TO.C,R5*%
X148087500Y-88300000D03*
X149912500Y-88300000D03*
%TD*%
%TO.C,R1*%
X156087500Y-88500000D03*
X157912500Y-88500000D03*
%TD*%
%TO.C,R13*%
X148087500Y-94900000D03*
X149912500Y-94900000D03*
%TD*%
%TO.C,R4*%
X148087500Y-86000000D03*
X149912500Y-86000000D03*
%TD*%
M02*
