%TF.GenerationSoftware,KiCad,Pcbnew,10.0.5*%
%TF.CreationDate,2026-09-01T01:03:17-07:00*%
%TF.ProjectId,nixie-esp32,6e697869-652d-4657-9370-33322e6b6963,rev?*%
%TF.SameCoordinates,Original*%
%TF.FileFunction,Drillmap*%
%TF.FilePolarity,Positive*%
%FSLAX45Y45*%
G04 Gerber Fmt 4.5, Leading zero omitted, Abs format (unit mm)*
G04 Created by KiCad (PCBNEW 10.0.5) date 2026-09-01 01:03:17*
%MOMM*%
%LPD*%
G01*
G04 APERTURE LIST*
%ADD10C,0.050000*%
%ADD11C,0.200000*%
%ADD12C,0.100000*%
%ADD13C,0.270000*%
G04 APERTURE END LIST*
D10*
X11875000Y-7650000D02*
X18925000Y-7650000D01*
X11875000Y-14650000D02*
X11875000Y-7650000D01*
X18925000Y-7650000D02*
X18925000Y-14650000D01*
X18925000Y-14650000D02*
X11875000Y-14650000D01*
D11*
D12*
X14967500Y-8185500D02*
X15032500Y-8250500D01*
X15032500Y-8185500D02*
X14967500Y-8250500D01*
X15567500Y-8185500D02*
X15632500Y-8250500D01*
X15632500Y-8185500D02*
X15567500Y-8250500D01*
D13*
X12385000Y-7950000D02*
G75*
G02*
X12115000Y-7950000I-135000J0D01*
G01*
X12115000Y-7950000D02*
G75*
G02*
X12385000Y-7950000I135000J0D01*
G01*
X14285000Y-14350000D02*
G75*
G02*
X14015000Y-14350000I-135000J0D01*
G01*
X14015000Y-14350000D02*
G75*
G02*
X14285000Y-14350000I135000J0D01*
G01*
X16785000Y-14350000D02*
G75*
G02*
X16515000Y-14350000I-135000J0D01*
G01*
X16515000Y-14350000D02*
G75*
G02*
X16785000Y-14350000I135000J0D01*
G01*
X18235000Y-7950000D02*
G75*
G02*
X17965000Y-7950000I-135000J0D01*
G01*
X17965000Y-7950000D02*
G75*
G02*
X18235000Y-7950000I135000J0D01*
G01*
D11*
X12133277Y-14963984D02*
X12133277Y-14763984D01*
X12133277Y-14763984D02*
X12180896Y-14763984D01*
X12180896Y-14763984D02*
X12209467Y-14773508D01*
X12209467Y-14773508D02*
X12228515Y-14792555D01*
X12228515Y-14792555D02*
X12238039Y-14811603D01*
X12238039Y-14811603D02*
X12247562Y-14849698D01*
X12247562Y-14849698D02*
X12247562Y-14878269D01*
X12247562Y-14878269D02*
X12238039Y-14916365D01*
X12238039Y-14916365D02*
X12228515Y-14935412D01*
X12228515Y-14935412D02*
X12209467Y-14954460D01*
X12209467Y-14954460D02*
X12180896Y-14963984D01*
X12180896Y-14963984D02*
X12133277Y-14963984D01*
X12333277Y-14963984D02*
X12333277Y-14830650D01*
X12333277Y-14868746D02*
X12342801Y-14849698D01*
X12342801Y-14849698D02*
X12352324Y-14840174D01*
X12352324Y-14840174D02*
X12371372Y-14830650D01*
X12371372Y-14830650D02*
X12390420Y-14830650D01*
X12457086Y-14963984D02*
X12457086Y-14830650D01*
X12457086Y-14763984D02*
X12447562Y-14773508D01*
X12447562Y-14773508D02*
X12457086Y-14783031D01*
X12457086Y-14783031D02*
X12466610Y-14773508D01*
X12466610Y-14773508D02*
X12457086Y-14763984D01*
X12457086Y-14763984D02*
X12457086Y-14783031D01*
X12580896Y-14963984D02*
X12561848Y-14954460D01*
X12561848Y-14954460D02*
X12552324Y-14935412D01*
X12552324Y-14935412D02*
X12552324Y-14763984D01*
X12685658Y-14963984D02*
X12666610Y-14954460D01*
X12666610Y-14954460D02*
X12657086Y-14935412D01*
X12657086Y-14935412D02*
X12657086Y-14763984D01*
X12914229Y-14963984D02*
X12914229Y-14763984D01*
X12914229Y-14763984D02*
X12980896Y-14906841D01*
X12980896Y-14906841D02*
X13047562Y-14763984D01*
X13047562Y-14763984D02*
X13047562Y-14963984D01*
X13228515Y-14963984D02*
X13228515Y-14859222D01*
X13228515Y-14859222D02*
X13218991Y-14840174D01*
X13218991Y-14840174D02*
X13199943Y-14830650D01*
X13199943Y-14830650D02*
X13161848Y-14830650D01*
X13161848Y-14830650D02*
X13142801Y-14840174D01*
X13228515Y-14954460D02*
X13209467Y-14963984D01*
X13209467Y-14963984D02*
X13161848Y-14963984D01*
X13161848Y-14963984D02*
X13142801Y-14954460D01*
X13142801Y-14954460D02*
X13133277Y-14935412D01*
X13133277Y-14935412D02*
X13133277Y-14916365D01*
X13133277Y-14916365D02*
X13142801Y-14897317D01*
X13142801Y-14897317D02*
X13161848Y-14887793D01*
X13161848Y-14887793D02*
X13209467Y-14887793D01*
X13209467Y-14887793D02*
X13228515Y-14878269D01*
X13323753Y-14830650D02*
X13323753Y-15030650D01*
X13323753Y-14840174D02*
X13342801Y-14830650D01*
X13342801Y-14830650D02*
X13380896Y-14830650D01*
X13380896Y-14830650D02*
X13399943Y-14840174D01*
X13399943Y-14840174D02*
X13409467Y-14849698D01*
X13409467Y-14849698D02*
X13418991Y-14868746D01*
X13418991Y-14868746D02*
X13418991Y-14925888D01*
X13418991Y-14925888D02*
X13409467Y-14944936D01*
X13409467Y-14944936D02*
X13399943Y-14954460D01*
X13399943Y-14954460D02*
X13380896Y-14963984D01*
X13380896Y-14963984D02*
X13342801Y-14963984D01*
X13342801Y-14963984D02*
X13323753Y-14954460D01*
X13504705Y-14944936D02*
X13514229Y-14954460D01*
X13514229Y-14954460D02*
X13504705Y-14963984D01*
X13504705Y-14963984D02*
X13495182Y-14954460D01*
X13495182Y-14954460D02*
X13504705Y-14944936D01*
X13504705Y-14944936D02*
X13504705Y-14963984D01*
X13504705Y-14840174D02*
X13514229Y-14849698D01*
X13514229Y-14849698D02*
X13504705Y-14859222D01*
X13504705Y-14859222D02*
X13495182Y-14849698D01*
X13495182Y-14849698D02*
X13504705Y-14840174D01*
X13504705Y-14840174D02*
X13504705Y-14859222D01*
D12*
X11807500Y-15260000D02*
X11872500Y-15325000D01*
X11872500Y-15260000D02*
X11807500Y-15325000D01*
D11*
X12171372Y-15183984D02*
X12190420Y-15183984D01*
X12190420Y-15183984D02*
X12209467Y-15193508D01*
X12209467Y-15193508D02*
X12218991Y-15203031D01*
X12218991Y-15203031D02*
X12228515Y-15222079D01*
X12228515Y-15222079D02*
X12238039Y-15260174D01*
X12238039Y-15260174D02*
X12238039Y-15307793D01*
X12238039Y-15307793D02*
X12228515Y-15345888D01*
X12228515Y-15345888D02*
X12218991Y-15364936D01*
X12218991Y-15364936D02*
X12209467Y-15374460D01*
X12209467Y-15374460D02*
X12190420Y-15383984D01*
X12190420Y-15383984D02*
X12171372Y-15383984D01*
X12171372Y-15383984D02*
X12152324Y-15374460D01*
X12152324Y-15374460D02*
X12142801Y-15364936D01*
X12142801Y-15364936D02*
X12133277Y-15345888D01*
X12133277Y-15345888D02*
X12123753Y-15307793D01*
X12123753Y-15307793D02*
X12123753Y-15260174D01*
X12123753Y-15260174D02*
X12133277Y-15222079D01*
X12133277Y-15222079D02*
X12142801Y-15203031D01*
X12142801Y-15203031D02*
X12152324Y-15193508D01*
X12152324Y-15193508D02*
X12171372Y-15183984D01*
X12323753Y-15364936D02*
X12333277Y-15374460D01*
X12333277Y-15374460D02*
X12323753Y-15383984D01*
X12323753Y-15383984D02*
X12314229Y-15374460D01*
X12314229Y-15374460D02*
X12323753Y-15364936D01*
X12323753Y-15364936D02*
X12323753Y-15383984D01*
X12504705Y-15183984D02*
X12466610Y-15183984D01*
X12466610Y-15183984D02*
X12447562Y-15193508D01*
X12447562Y-15193508D02*
X12438039Y-15203031D01*
X12438039Y-15203031D02*
X12418991Y-15231603D01*
X12418991Y-15231603D02*
X12409467Y-15269698D01*
X12409467Y-15269698D02*
X12409467Y-15345888D01*
X12409467Y-15345888D02*
X12418991Y-15364936D01*
X12418991Y-15364936D02*
X12428515Y-15374460D01*
X12428515Y-15374460D02*
X12447562Y-15383984D01*
X12447562Y-15383984D02*
X12485658Y-15383984D01*
X12485658Y-15383984D02*
X12504705Y-15374460D01*
X12504705Y-15374460D02*
X12514229Y-15364936D01*
X12514229Y-15364936D02*
X12523753Y-15345888D01*
X12523753Y-15345888D02*
X12523753Y-15298269D01*
X12523753Y-15298269D02*
X12514229Y-15279222D01*
X12514229Y-15279222D02*
X12504705Y-15269698D01*
X12504705Y-15269698D02*
X12485658Y-15260174D01*
X12485658Y-15260174D02*
X12447562Y-15260174D01*
X12447562Y-15260174D02*
X12428515Y-15269698D01*
X12428515Y-15269698D02*
X12418991Y-15279222D01*
X12418991Y-15279222D02*
X12409467Y-15298269D01*
X12704705Y-15183984D02*
X12609467Y-15183984D01*
X12609467Y-15183984D02*
X12599943Y-15279222D01*
X12599943Y-15279222D02*
X12609467Y-15269698D01*
X12609467Y-15269698D02*
X12628515Y-15260174D01*
X12628515Y-15260174D02*
X12676134Y-15260174D01*
X12676134Y-15260174D02*
X12695182Y-15269698D01*
X12695182Y-15269698D02*
X12704705Y-15279222D01*
X12704705Y-15279222D02*
X12714229Y-15298269D01*
X12714229Y-15298269D02*
X12714229Y-15345888D01*
X12714229Y-15345888D02*
X12704705Y-15364936D01*
X12704705Y-15364936D02*
X12695182Y-15374460D01*
X12695182Y-15374460D02*
X12676134Y-15383984D01*
X12676134Y-15383984D02*
X12628515Y-15383984D01*
X12628515Y-15383984D02*
X12609467Y-15374460D01*
X12609467Y-15374460D02*
X12599943Y-15364936D01*
X12838039Y-15183984D02*
X12857086Y-15183984D01*
X12857086Y-15183984D02*
X12876134Y-15193508D01*
X12876134Y-15193508D02*
X12885658Y-15203031D01*
X12885658Y-15203031D02*
X12895182Y-15222079D01*
X12895182Y-15222079D02*
X12904705Y-15260174D01*
X12904705Y-15260174D02*
X12904705Y-15307793D01*
X12904705Y-15307793D02*
X12895182Y-15345888D01*
X12895182Y-15345888D02*
X12885658Y-15364936D01*
X12885658Y-15364936D02*
X12876134Y-15374460D01*
X12876134Y-15374460D02*
X12857086Y-15383984D01*
X12857086Y-15383984D02*
X12838039Y-15383984D01*
X12838039Y-15383984D02*
X12818991Y-15374460D01*
X12818991Y-15374460D02*
X12809467Y-15364936D01*
X12809467Y-15364936D02*
X12799943Y-15345888D01*
X12799943Y-15345888D02*
X12790420Y-15307793D01*
X12790420Y-15307793D02*
X12790420Y-15260174D01*
X12790420Y-15260174D02*
X12799943Y-15222079D01*
X12799943Y-15222079D02*
X12809467Y-15203031D01*
X12809467Y-15203031D02*
X12818991Y-15193508D01*
X12818991Y-15193508D02*
X12838039Y-15183984D01*
X12990420Y-15383984D02*
X12990420Y-15250650D01*
X12990420Y-15269698D02*
X12999943Y-15260174D01*
X12999943Y-15260174D02*
X13018991Y-15250650D01*
X13018991Y-15250650D02*
X13047563Y-15250650D01*
X13047563Y-15250650D02*
X13066610Y-15260174D01*
X13066610Y-15260174D02*
X13076134Y-15279222D01*
X13076134Y-15279222D02*
X13076134Y-15383984D01*
X13076134Y-15279222D02*
X13085658Y-15260174D01*
X13085658Y-15260174D02*
X13104705Y-15250650D01*
X13104705Y-15250650D02*
X13133277Y-15250650D01*
X13133277Y-15250650D02*
X13152324Y-15260174D01*
X13152324Y-15260174D02*
X13161848Y-15279222D01*
X13161848Y-15279222D02*
X13161848Y-15383984D01*
X13257086Y-15383984D02*
X13257086Y-15250650D01*
X13257086Y-15269698D02*
X13266610Y-15260174D01*
X13266610Y-15260174D02*
X13285658Y-15250650D01*
X13285658Y-15250650D02*
X13314229Y-15250650D01*
X13314229Y-15250650D02*
X13333277Y-15260174D01*
X13333277Y-15260174D02*
X13342801Y-15279222D01*
X13342801Y-15279222D02*
X13342801Y-15383984D01*
X13342801Y-15279222D02*
X13352324Y-15260174D01*
X13352324Y-15260174D02*
X13371372Y-15250650D01*
X13371372Y-15250650D02*
X13399943Y-15250650D01*
X13399943Y-15250650D02*
X13418991Y-15260174D01*
X13418991Y-15260174D02*
X13428515Y-15279222D01*
X13428515Y-15279222D02*
X13428515Y-15383984D01*
X13818991Y-15174460D02*
X13647563Y-15431603D01*
X14076134Y-15183984D02*
X14095182Y-15183984D01*
X14095182Y-15183984D02*
X14114229Y-15193508D01*
X14114229Y-15193508D02*
X14123753Y-15203031D01*
X14123753Y-15203031D02*
X14133277Y-15222079D01*
X14133277Y-15222079D02*
X14142801Y-15260174D01*
X14142801Y-15260174D02*
X14142801Y-15307793D01*
X14142801Y-15307793D02*
X14133277Y-15345888D01*
X14133277Y-15345888D02*
X14123753Y-15364936D01*
X14123753Y-15364936D02*
X14114229Y-15374460D01*
X14114229Y-15374460D02*
X14095182Y-15383984D01*
X14095182Y-15383984D02*
X14076134Y-15383984D01*
X14076134Y-15383984D02*
X14057086Y-15374460D01*
X14057086Y-15374460D02*
X14047563Y-15364936D01*
X14047563Y-15364936D02*
X14038039Y-15345888D01*
X14038039Y-15345888D02*
X14028515Y-15307793D01*
X14028515Y-15307793D02*
X14028515Y-15260174D01*
X14028515Y-15260174D02*
X14038039Y-15222079D01*
X14038039Y-15222079D02*
X14047563Y-15203031D01*
X14047563Y-15203031D02*
X14057086Y-15193508D01*
X14057086Y-15193508D02*
X14076134Y-15183984D01*
X14228515Y-15364936D02*
X14238039Y-15374460D01*
X14238039Y-15374460D02*
X14228515Y-15383984D01*
X14228515Y-15383984D02*
X14218991Y-15374460D01*
X14218991Y-15374460D02*
X14228515Y-15364936D01*
X14228515Y-15364936D02*
X14228515Y-15383984D01*
X14361848Y-15183984D02*
X14380896Y-15183984D01*
X14380896Y-15183984D02*
X14399944Y-15193508D01*
X14399944Y-15193508D02*
X14409467Y-15203031D01*
X14409467Y-15203031D02*
X14418991Y-15222079D01*
X14418991Y-15222079D02*
X14428515Y-15260174D01*
X14428515Y-15260174D02*
X14428515Y-15307793D01*
X14428515Y-15307793D02*
X14418991Y-15345888D01*
X14418991Y-15345888D02*
X14409467Y-15364936D01*
X14409467Y-15364936D02*
X14399944Y-15374460D01*
X14399944Y-15374460D02*
X14380896Y-15383984D01*
X14380896Y-15383984D02*
X14361848Y-15383984D01*
X14361848Y-15383984D02*
X14342801Y-15374460D01*
X14342801Y-15374460D02*
X14333277Y-15364936D01*
X14333277Y-15364936D02*
X14323753Y-15345888D01*
X14323753Y-15345888D02*
X14314229Y-15307793D01*
X14314229Y-15307793D02*
X14314229Y-15260174D01*
X14314229Y-15260174D02*
X14323753Y-15222079D01*
X14323753Y-15222079D02*
X14333277Y-15203031D01*
X14333277Y-15203031D02*
X14342801Y-15193508D01*
X14342801Y-15193508D02*
X14361848Y-15183984D01*
X14504706Y-15203031D02*
X14514229Y-15193508D01*
X14514229Y-15193508D02*
X14533277Y-15183984D01*
X14533277Y-15183984D02*
X14580896Y-15183984D01*
X14580896Y-15183984D02*
X14599944Y-15193508D01*
X14599944Y-15193508D02*
X14609467Y-15203031D01*
X14609467Y-15203031D02*
X14618991Y-15222079D01*
X14618991Y-15222079D02*
X14618991Y-15241127D01*
X14618991Y-15241127D02*
X14609467Y-15269698D01*
X14609467Y-15269698D02*
X14495182Y-15383984D01*
X14495182Y-15383984D02*
X14618991Y-15383984D01*
X14799944Y-15183984D02*
X14704706Y-15183984D01*
X14704706Y-15183984D02*
X14695182Y-15279222D01*
X14695182Y-15279222D02*
X14704706Y-15269698D01*
X14704706Y-15269698D02*
X14723753Y-15260174D01*
X14723753Y-15260174D02*
X14771372Y-15260174D01*
X14771372Y-15260174D02*
X14790420Y-15269698D01*
X14790420Y-15269698D02*
X14799944Y-15279222D01*
X14799944Y-15279222D02*
X14809467Y-15298269D01*
X14809467Y-15298269D02*
X14809467Y-15345888D01*
X14809467Y-15345888D02*
X14799944Y-15364936D01*
X14799944Y-15364936D02*
X14790420Y-15374460D01*
X14790420Y-15374460D02*
X14771372Y-15383984D01*
X14771372Y-15383984D02*
X14723753Y-15383984D01*
X14723753Y-15383984D02*
X14704706Y-15374460D01*
X14704706Y-15374460D02*
X14695182Y-15364936D01*
X14980896Y-15183984D02*
X14942801Y-15183984D01*
X14942801Y-15183984D02*
X14923753Y-15193508D01*
X14923753Y-15193508D02*
X14914229Y-15203031D01*
X14914229Y-15203031D02*
X14895182Y-15231603D01*
X14895182Y-15231603D02*
X14885658Y-15269698D01*
X14885658Y-15269698D02*
X14885658Y-15345888D01*
X14885658Y-15345888D02*
X14895182Y-15364936D01*
X14895182Y-15364936D02*
X14904706Y-15374460D01*
X14904706Y-15374460D02*
X14923753Y-15383984D01*
X14923753Y-15383984D02*
X14961848Y-15383984D01*
X14961848Y-15383984D02*
X14980896Y-15374460D01*
X14980896Y-15374460D02*
X14990420Y-15364936D01*
X14990420Y-15364936D02*
X14999944Y-15345888D01*
X14999944Y-15345888D02*
X14999944Y-15298269D01*
X14999944Y-15298269D02*
X14990420Y-15279222D01*
X14990420Y-15279222D02*
X14980896Y-15269698D01*
X14980896Y-15269698D02*
X14961848Y-15260174D01*
X14961848Y-15260174D02*
X14923753Y-15260174D01*
X14923753Y-15260174D02*
X14904706Y-15269698D01*
X14904706Y-15269698D02*
X14895182Y-15279222D01*
X14895182Y-15279222D02*
X14885658Y-15298269D01*
X15076134Y-15183984D02*
X15076134Y-15222079D01*
X15152325Y-15183984D02*
X15152325Y-15222079D01*
X15447563Y-15460174D02*
X15438039Y-15450650D01*
X15438039Y-15450650D02*
X15418991Y-15422079D01*
X15418991Y-15422079D02*
X15409468Y-15403031D01*
X15409468Y-15403031D02*
X15399944Y-15374460D01*
X15399944Y-15374460D02*
X15390420Y-15326841D01*
X15390420Y-15326841D02*
X15390420Y-15288746D01*
X15390420Y-15288746D02*
X15399944Y-15241127D01*
X15399944Y-15241127D02*
X15409468Y-15212555D01*
X15409468Y-15212555D02*
X15418991Y-15193508D01*
X15418991Y-15193508D02*
X15438039Y-15164936D01*
X15438039Y-15164936D02*
X15447563Y-15155412D01*
X15514229Y-15203031D02*
X15523753Y-15193508D01*
X15523753Y-15193508D02*
X15542801Y-15183984D01*
X15542801Y-15183984D02*
X15590420Y-15183984D01*
X15590420Y-15183984D02*
X15609468Y-15193508D01*
X15609468Y-15193508D02*
X15618991Y-15203031D01*
X15618991Y-15203031D02*
X15628515Y-15222079D01*
X15628515Y-15222079D02*
X15628515Y-15241127D01*
X15628515Y-15241127D02*
X15618991Y-15269698D01*
X15618991Y-15269698D02*
X15504706Y-15383984D01*
X15504706Y-15383984D02*
X15628515Y-15383984D01*
X15866610Y-15383984D02*
X15866610Y-15183984D01*
X15952325Y-15383984D02*
X15952325Y-15279222D01*
X15952325Y-15279222D02*
X15942801Y-15260174D01*
X15942801Y-15260174D02*
X15923753Y-15250650D01*
X15923753Y-15250650D02*
X15895182Y-15250650D01*
X15895182Y-15250650D02*
X15876134Y-15260174D01*
X15876134Y-15260174D02*
X15866610Y-15269698D01*
X16076134Y-15383984D02*
X16057087Y-15374460D01*
X16057087Y-15374460D02*
X16047563Y-15364936D01*
X16047563Y-15364936D02*
X16038039Y-15345888D01*
X16038039Y-15345888D02*
X16038039Y-15288746D01*
X16038039Y-15288746D02*
X16047563Y-15269698D01*
X16047563Y-15269698D02*
X16057087Y-15260174D01*
X16057087Y-15260174D02*
X16076134Y-15250650D01*
X16076134Y-15250650D02*
X16104706Y-15250650D01*
X16104706Y-15250650D02*
X16123753Y-15260174D01*
X16123753Y-15260174D02*
X16133277Y-15269698D01*
X16133277Y-15269698D02*
X16142801Y-15288746D01*
X16142801Y-15288746D02*
X16142801Y-15345888D01*
X16142801Y-15345888D02*
X16133277Y-15364936D01*
X16133277Y-15364936D02*
X16123753Y-15374460D01*
X16123753Y-15374460D02*
X16104706Y-15383984D01*
X16104706Y-15383984D02*
X16076134Y-15383984D01*
X16257087Y-15383984D02*
X16238039Y-15374460D01*
X16238039Y-15374460D02*
X16228515Y-15355412D01*
X16228515Y-15355412D02*
X16228515Y-15183984D01*
X16409468Y-15374460D02*
X16390420Y-15383984D01*
X16390420Y-15383984D02*
X16352325Y-15383984D01*
X16352325Y-15383984D02*
X16333277Y-15374460D01*
X16333277Y-15374460D02*
X16323753Y-15355412D01*
X16323753Y-15355412D02*
X16323753Y-15279222D01*
X16323753Y-15279222D02*
X16333277Y-15260174D01*
X16333277Y-15260174D02*
X16352325Y-15250650D01*
X16352325Y-15250650D02*
X16390420Y-15250650D01*
X16390420Y-15250650D02*
X16409468Y-15260174D01*
X16409468Y-15260174D02*
X16418991Y-15279222D01*
X16418991Y-15279222D02*
X16418991Y-15298269D01*
X16418991Y-15298269D02*
X16323753Y-15317317D01*
X16495182Y-15374460D02*
X16514230Y-15383984D01*
X16514230Y-15383984D02*
X16552325Y-15383984D01*
X16552325Y-15383984D02*
X16571372Y-15374460D01*
X16571372Y-15374460D02*
X16580896Y-15355412D01*
X16580896Y-15355412D02*
X16580896Y-15345888D01*
X16580896Y-15345888D02*
X16571372Y-15326841D01*
X16571372Y-15326841D02*
X16552325Y-15317317D01*
X16552325Y-15317317D02*
X16523753Y-15317317D01*
X16523753Y-15317317D02*
X16504706Y-15307793D01*
X16504706Y-15307793D02*
X16495182Y-15288746D01*
X16495182Y-15288746D02*
X16495182Y-15279222D01*
X16495182Y-15279222D02*
X16504706Y-15260174D01*
X16504706Y-15260174D02*
X16523753Y-15250650D01*
X16523753Y-15250650D02*
X16552325Y-15250650D01*
X16552325Y-15250650D02*
X16571372Y-15260174D01*
X16647563Y-15460174D02*
X16657087Y-15450650D01*
X16657087Y-15450650D02*
X16676134Y-15422079D01*
X16676134Y-15422079D02*
X16685658Y-15403031D01*
X16685658Y-15403031D02*
X16695182Y-15374460D01*
X16695182Y-15374460D02*
X16704706Y-15326841D01*
X16704706Y-15326841D02*
X16704706Y-15288746D01*
X16704706Y-15288746D02*
X16695182Y-15241127D01*
X16695182Y-15241127D02*
X16685658Y-15212555D01*
X16685658Y-15212555D02*
X16676134Y-15193508D01*
X16676134Y-15193508D02*
X16657087Y-15164936D01*
X16657087Y-15164936D02*
X16647563Y-15155412D01*
X17009468Y-15460174D02*
X16999944Y-15450650D01*
X16999944Y-15450650D02*
X16980896Y-15422079D01*
X16980896Y-15422079D02*
X16971373Y-15403031D01*
X16971373Y-15403031D02*
X16961849Y-15374460D01*
X16961849Y-15374460D02*
X16952325Y-15326841D01*
X16952325Y-15326841D02*
X16952325Y-15288746D01*
X16952325Y-15288746D02*
X16961849Y-15241127D01*
X16961849Y-15241127D02*
X16971373Y-15212555D01*
X16971373Y-15212555D02*
X16980896Y-15193508D01*
X16980896Y-15193508D02*
X16999944Y-15164936D01*
X16999944Y-15164936D02*
X17009468Y-15155412D01*
X17085658Y-15250650D02*
X17085658Y-15383984D01*
X17085658Y-15269698D02*
X17095182Y-15260174D01*
X17095182Y-15260174D02*
X17114230Y-15250650D01*
X17114230Y-15250650D02*
X17142801Y-15250650D01*
X17142801Y-15250650D02*
X17161849Y-15260174D01*
X17161849Y-15260174D02*
X17171373Y-15279222D01*
X17171373Y-15279222D02*
X17171373Y-15383984D01*
X17295182Y-15383984D02*
X17276134Y-15374460D01*
X17276134Y-15374460D02*
X17266611Y-15364936D01*
X17266611Y-15364936D02*
X17257087Y-15345888D01*
X17257087Y-15345888D02*
X17257087Y-15288746D01*
X17257087Y-15288746D02*
X17266611Y-15269698D01*
X17266611Y-15269698D02*
X17276134Y-15260174D01*
X17276134Y-15260174D02*
X17295182Y-15250650D01*
X17295182Y-15250650D02*
X17323754Y-15250650D01*
X17323754Y-15250650D02*
X17342801Y-15260174D01*
X17342801Y-15260174D02*
X17352325Y-15269698D01*
X17352325Y-15269698D02*
X17361849Y-15288746D01*
X17361849Y-15288746D02*
X17361849Y-15345888D01*
X17361849Y-15345888D02*
X17352325Y-15364936D01*
X17352325Y-15364936D02*
X17342801Y-15374460D01*
X17342801Y-15374460D02*
X17323754Y-15383984D01*
X17323754Y-15383984D02*
X17295182Y-15383984D01*
X17418992Y-15250650D02*
X17495182Y-15250650D01*
X17447563Y-15183984D02*
X17447563Y-15355412D01*
X17447563Y-15355412D02*
X17457087Y-15374460D01*
X17457087Y-15374460D02*
X17476134Y-15383984D01*
X17476134Y-15383984D02*
X17495182Y-15383984D01*
X17714230Y-15250650D02*
X17714230Y-15450650D01*
X17714230Y-15260174D02*
X17733277Y-15250650D01*
X17733277Y-15250650D02*
X17771373Y-15250650D01*
X17771373Y-15250650D02*
X17790420Y-15260174D01*
X17790420Y-15260174D02*
X17799944Y-15269698D01*
X17799944Y-15269698D02*
X17809468Y-15288746D01*
X17809468Y-15288746D02*
X17809468Y-15345888D01*
X17809468Y-15345888D02*
X17799944Y-15364936D01*
X17799944Y-15364936D02*
X17790420Y-15374460D01*
X17790420Y-15374460D02*
X17771373Y-15383984D01*
X17771373Y-15383984D02*
X17733277Y-15383984D01*
X17733277Y-15383984D02*
X17714230Y-15374460D01*
X17923754Y-15383984D02*
X17904706Y-15374460D01*
X17904706Y-15374460D02*
X17895182Y-15355412D01*
X17895182Y-15355412D02*
X17895182Y-15183984D01*
X18085658Y-15383984D02*
X18085658Y-15279222D01*
X18085658Y-15279222D02*
X18076135Y-15260174D01*
X18076135Y-15260174D02*
X18057087Y-15250650D01*
X18057087Y-15250650D02*
X18018992Y-15250650D01*
X18018992Y-15250650D02*
X17999944Y-15260174D01*
X18085658Y-15374460D02*
X18066611Y-15383984D01*
X18066611Y-15383984D02*
X18018992Y-15383984D01*
X18018992Y-15383984D02*
X17999944Y-15374460D01*
X17999944Y-15374460D02*
X17990420Y-15355412D01*
X17990420Y-15355412D02*
X17990420Y-15336365D01*
X17990420Y-15336365D02*
X17999944Y-15317317D01*
X17999944Y-15317317D02*
X18018992Y-15307793D01*
X18018992Y-15307793D02*
X18066611Y-15307793D01*
X18066611Y-15307793D02*
X18085658Y-15298269D01*
X18152325Y-15250650D02*
X18228515Y-15250650D01*
X18180896Y-15183984D02*
X18180896Y-15355412D01*
X18180896Y-15355412D02*
X18190420Y-15374460D01*
X18190420Y-15374460D02*
X18209468Y-15383984D01*
X18209468Y-15383984D02*
X18228515Y-15383984D01*
X18371373Y-15374460D02*
X18352325Y-15383984D01*
X18352325Y-15383984D02*
X18314230Y-15383984D01*
X18314230Y-15383984D02*
X18295182Y-15374460D01*
X18295182Y-15374460D02*
X18285658Y-15355412D01*
X18285658Y-15355412D02*
X18285658Y-15279222D01*
X18285658Y-15279222D02*
X18295182Y-15260174D01*
X18295182Y-15260174D02*
X18314230Y-15250650D01*
X18314230Y-15250650D02*
X18352325Y-15250650D01*
X18352325Y-15250650D02*
X18371373Y-15260174D01*
X18371373Y-15260174D02*
X18380896Y-15279222D01*
X18380896Y-15279222D02*
X18380896Y-15298269D01*
X18380896Y-15298269D02*
X18285658Y-15317317D01*
X18552325Y-15383984D02*
X18552325Y-15183984D01*
X18552325Y-15374460D02*
X18533277Y-15383984D01*
X18533277Y-15383984D02*
X18495182Y-15383984D01*
X18495182Y-15383984D02*
X18476135Y-15374460D01*
X18476135Y-15374460D02*
X18466611Y-15364936D01*
X18466611Y-15364936D02*
X18457087Y-15345888D01*
X18457087Y-15345888D02*
X18457087Y-15288746D01*
X18457087Y-15288746D02*
X18466611Y-15269698D01*
X18466611Y-15269698D02*
X18476135Y-15260174D01*
X18476135Y-15260174D02*
X18495182Y-15250650D01*
X18495182Y-15250650D02*
X18533277Y-15250650D01*
X18533277Y-15250650D02*
X18552325Y-15260174D01*
X18628516Y-15460174D02*
X18638039Y-15450650D01*
X18638039Y-15450650D02*
X18657087Y-15422079D01*
X18657087Y-15422079D02*
X18666611Y-15403031D01*
X18666611Y-15403031D02*
X18676135Y-15374460D01*
X18676135Y-15374460D02*
X18685658Y-15326841D01*
X18685658Y-15326841D02*
X18685658Y-15288746D01*
X18685658Y-15288746D02*
X18676135Y-15241127D01*
X18676135Y-15241127D02*
X18666611Y-15212555D01*
X18666611Y-15212555D02*
X18657087Y-15193508D01*
X18657087Y-15193508D02*
X18638039Y-15164936D01*
X18638039Y-15164936D02*
X18628516Y-15155412D01*
X11872500Y-15556500D02*
G75*
G02*
X11672500Y-15556500I-100000J0D01*
G01*
X11672500Y-15556500D02*
G75*
G02*
X11872500Y-15556500I100000J0D01*
G01*
X12123753Y-15467031D02*
X12133277Y-15457508D01*
X12133277Y-15457508D02*
X12152324Y-15447984D01*
X12152324Y-15447984D02*
X12199943Y-15447984D01*
X12199943Y-15447984D02*
X12218991Y-15457508D01*
X12218991Y-15457508D02*
X12228515Y-15467031D01*
X12228515Y-15467031D02*
X12238039Y-15486079D01*
X12238039Y-15486079D02*
X12238039Y-15505127D01*
X12238039Y-15505127D02*
X12228515Y-15533698D01*
X12228515Y-15533698D02*
X12114229Y-15647984D01*
X12114229Y-15647984D02*
X12238039Y-15647984D01*
X12323753Y-15628936D02*
X12333277Y-15638460D01*
X12333277Y-15638460D02*
X12323753Y-15647984D01*
X12323753Y-15647984D02*
X12314229Y-15638460D01*
X12314229Y-15638460D02*
X12323753Y-15628936D01*
X12323753Y-15628936D02*
X12323753Y-15647984D01*
X12399943Y-15447984D02*
X12533277Y-15447984D01*
X12533277Y-15447984D02*
X12447562Y-15647984D01*
X12647562Y-15447984D02*
X12666610Y-15447984D01*
X12666610Y-15447984D02*
X12685658Y-15457508D01*
X12685658Y-15457508D02*
X12695182Y-15467031D01*
X12695182Y-15467031D02*
X12704705Y-15486079D01*
X12704705Y-15486079D02*
X12714229Y-15524174D01*
X12714229Y-15524174D02*
X12714229Y-15571793D01*
X12714229Y-15571793D02*
X12704705Y-15609888D01*
X12704705Y-15609888D02*
X12695182Y-15628936D01*
X12695182Y-15628936D02*
X12685658Y-15638460D01*
X12685658Y-15638460D02*
X12666610Y-15647984D01*
X12666610Y-15647984D02*
X12647562Y-15647984D01*
X12647562Y-15647984D02*
X12628515Y-15638460D01*
X12628515Y-15638460D02*
X12618991Y-15628936D01*
X12618991Y-15628936D02*
X12609467Y-15609888D01*
X12609467Y-15609888D02*
X12599943Y-15571793D01*
X12599943Y-15571793D02*
X12599943Y-15524174D01*
X12599943Y-15524174D02*
X12609467Y-15486079D01*
X12609467Y-15486079D02*
X12618991Y-15467031D01*
X12618991Y-15467031D02*
X12628515Y-15457508D01*
X12628515Y-15457508D02*
X12647562Y-15447984D01*
X12838039Y-15447984D02*
X12857086Y-15447984D01*
X12857086Y-15447984D02*
X12876134Y-15457508D01*
X12876134Y-15457508D02*
X12885658Y-15467031D01*
X12885658Y-15467031D02*
X12895182Y-15486079D01*
X12895182Y-15486079D02*
X12904705Y-15524174D01*
X12904705Y-15524174D02*
X12904705Y-15571793D01*
X12904705Y-15571793D02*
X12895182Y-15609888D01*
X12895182Y-15609888D02*
X12885658Y-15628936D01*
X12885658Y-15628936D02*
X12876134Y-15638460D01*
X12876134Y-15638460D02*
X12857086Y-15647984D01*
X12857086Y-15647984D02*
X12838039Y-15647984D01*
X12838039Y-15647984D02*
X12818991Y-15638460D01*
X12818991Y-15638460D02*
X12809467Y-15628936D01*
X12809467Y-15628936D02*
X12799943Y-15609888D01*
X12799943Y-15609888D02*
X12790420Y-15571793D01*
X12790420Y-15571793D02*
X12790420Y-15524174D01*
X12790420Y-15524174D02*
X12799943Y-15486079D01*
X12799943Y-15486079D02*
X12809467Y-15467031D01*
X12809467Y-15467031D02*
X12818991Y-15457508D01*
X12818991Y-15457508D02*
X12838039Y-15447984D01*
X12990420Y-15647984D02*
X12990420Y-15514650D01*
X12990420Y-15533698D02*
X12999943Y-15524174D01*
X12999943Y-15524174D02*
X13018991Y-15514650D01*
X13018991Y-15514650D02*
X13047563Y-15514650D01*
X13047563Y-15514650D02*
X13066610Y-15524174D01*
X13066610Y-15524174D02*
X13076134Y-15543222D01*
X13076134Y-15543222D02*
X13076134Y-15647984D01*
X13076134Y-15543222D02*
X13085658Y-15524174D01*
X13085658Y-15524174D02*
X13104705Y-15514650D01*
X13104705Y-15514650D02*
X13133277Y-15514650D01*
X13133277Y-15514650D02*
X13152324Y-15524174D01*
X13152324Y-15524174D02*
X13161848Y-15543222D01*
X13161848Y-15543222D02*
X13161848Y-15647984D01*
X13257086Y-15647984D02*
X13257086Y-15514650D01*
X13257086Y-15533698D02*
X13266610Y-15524174D01*
X13266610Y-15524174D02*
X13285658Y-15514650D01*
X13285658Y-15514650D02*
X13314229Y-15514650D01*
X13314229Y-15514650D02*
X13333277Y-15524174D01*
X13333277Y-15524174D02*
X13342801Y-15543222D01*
X13342801Y-15543222D02*
X13342801Y-15647984D01*
X13342801Y-15543222D02*
X13352324Y-15524174D01*
X13352324Y-15524174D02*
X13371372Y-15514650D01*
X13371372Y-15514650D02*
X13399943Y-15514650D01*
X13399943Y-15514650D02*
X13418991Y-15524174D01*
X13418991Y-15524174D02*
X13428515Y-15543222D01*
X13428515Y-15543222D02*
X13428515Y-15647984D01*
X13818991Y-15438460D02*
X13647563Y-15695603D01*
X14076134Y-15447984D02*
X14095182Y-15447984D01*
X14095182Y-15447984D02*
X14114229Y-15457508D01*
X14114229Y-15457508D02*
X14123753Y-15467031D01*
X14123753Y-15467031D02*
X14133277Y-15486079D01*
X14133277Y-15486079D02*
X14142801Y-15524174D01*
X14142801Y-15524174D02*
X14142801Y-15571793D01*
X14142801Y-15571793D02*
X14133277Y-15609888D01*
X14133277Y-15609888D02*
X14123753Y-15628936D01*
X14123753Y-15628936D02*
X14114229Y-15638460D01*
X14114229Y-15638460D02*
X14095182Y-15647984D01*
X14095182Y-15647984D02*
X14076134Y-15647984D01*
X14076134Y-15647984D02*
X14057086Y-15638460D01*
X14057086Y-15638460D02*
X14047563Y-15628936D01*
X14047563Y-15628936D02*
X14038039Y-15609888D01*
X14038039Y-15609888D02*
X14028515Y-15571793D01*
X14028515Y-15571793D02*
X14028515Y-15524174D01*
X14028515Y-15524174D02*
X14038039Y-15486079D01*
X14038039Y-15486079D02*
X14047563Y-15467031D01*
X14047563Y-15467031D02*
X14057086Y-15457508D01*
X14057086Y-15457508D02*
X14076134Y-15447984D01*
X14228515Y-15628936D02*
X14238039Y-15638460D01*
X14238039Y-15638460D02*
X14228515Y-15647984D01*
X14228515Y-15647984D02*
X14218991Y-15638460D01*
X14218991Y-15638460D02*
X14228515Y-15628936D01*
X14228515Y-15628936D02*
X14228515Y-15647984D01*
X14428515Y-15647984D02*
X14314229Y-15647984D01*
X14371372Y-15647984D02*
X14371372Y-15447984D01*
X14371372Y-15447984D02*
X14352325Y-15476555D01*
X14352325Y-15476555D02*
X14333277Y-15495603D01*
X14333277Y-15495603D02*
X14314229Y-15505127D01*
X14552325Y-15447984D02*
X14571372Y-15447984D01*
X14571372Y-15447984D02*
X14590420Y-15457508D01*
X14590420Y-15457508D02*
X14599944Y-15467031D01*
X14599944Y-15467031D02*
X14609467Y-15486079D01*
X14609467Y-15486079D02*
X14618991Y-15524174D01*
X14618991Y-15524174D02*
X14618991Y-15571793D01*
X14618991Y-15571793D02*
X14609467Y-15609888D01*
X14609467Y-15609888D02*
X14599944Y-15628936D01*
X14599944Y-15628936D02*
X14590420Y-15638460D01*
X14590420Y-15638460D02*
X14571372Y-15647984D01*
X14571372Y-15647984D02*
X14552325Y-15647984D01*
X14552325Y-15647984D02*
X14533277Y-15638460D01*
X14533277Y-15638460D02*
X14523753Y-15628936D01*
X14523753Y-15628936D02*
X14514229Y-15609888D01*
X14514229Y-15609888D02*
X14504706Y-15571793D01*
X14504706Y-15571793D02*
X14504706Y-15524174D01*
X14504706Y-15524174D02*
X14514229Y-15486079D01*
X14514229Y-15486079D02*
X14523753Y-15467031D01*
X14523753Y-15467031D02*
X14533277Y-15457508D01*
X14533277Y-15457508D02*
X14552325Y-15447984D01*
X14790420Y-15447984D02*
X14752325Y-15447984D01*
X14752325Y-15447984D02*
X14733277Y-15457508D01*
X14733277Y-15457508D02*
X14723753Y-15467031D01*
X14723753Y-15467031D02*
X14704706Y-15495603D01*
X14704706Y-15495603D02*
X14695182Y-15533698D01*
X14695182Y-15533698D02*
X14695182Y-15609888D01*
X14695182Y-15609888D02*
X14704706Y-15628936D01*
X14704706Y-15628936D02*
X14714229Y-15638460D01*
X14714229Y-15638460D02*
X14733277Y-15647984D01*
X14733277Y-15647984D02*
X14771372Y-15647984D01*
X14771372Y-15647984D02*
X14790420Y-15638460D01*
X14790420Y-15638460D02*
X14799944Y-15628936D01*
X14799944Y-15628936D02*
X14809467Y-15609888D01*
X14809467Y-15609888D02*
X14809467Y-15562269D01*
X14809467Y-15562269D02*
X14799944Y-15543222D01*
X14799944Y-15543222D02*
X14790420Y-15533698D01*
X14790420Y-15533698D02*
X14771372Y-15524174D01*
X14771372Y-15524174D02*
X14733277Y-15524174D01*
X14733277Y-15524174D02*
X14714229Y-15533698D01*
X14714229Y-15533698D02*
X14704706Y-15543222D01*
X14704706Y-15543222D02*
X14695182Y-15562269D01*
X14876134Y-15447984D02*
X14999944Y-15447984D01*
X14999944Y-15447984D02*
X14933277Y-15524174D01*
X14933277Y-15524174D02*
X14961848Y-15524174D01*
X14961848Y-15524174D02*
X14980896Y-15533698D01*
X14980896Y-15533698D02*
X14990420Y-15543222D01*
X14990420Y-15543222D02*
X14999944Y-15562269D01*
X14999944Y-15562269D02*
X14999944Y-15609888D01*
X14999944Y-15609888D02*
X14990420Y-15628936D01*
X14990420Y-15628936D02*
X14980896Y-15638460D01*
X14980896Y-15638460D02*
X14961848Y-15647984D01*
X14961848Y-15647984D02*
X14904706Y-15647984D01*
X14904706Y-15647984D02*
X14885658Y-15638460D01*
X14885658Y-15638460D02*
X14876134Y-15628936D01*
X15076134Y-15447984D02*
X15076134Y-15486079D01*
X15152325Y-15447984D02*
X15152325Y-15486079D01*
X15447563Y-15724174D02*
X15438039Y-15714650D01*
X15438039Y-15714650D02*
X15418991Y-15686079D01*
X15418991Y-15686079D02*
X15409468Y-15667031D01*
X15409468Y-15667031D02*
X15399944Y-15638460D01*
X15399944Y-15638460D02*
X15390420Y-15590841D01*
X15390420Y-15590841D02*
X15390420Y-15552746D01*
X15390420Y-15552746D02*
X15399944Y-15505127D01*
X15399944Y-15505127D02*
X15409468Y-15476555D01*
X15409468Y-15476555D02*
X15418991Y-15457508D01*
X15418991Y-15457508D02*
X15438039Y-15428936D01*
X15438039Y-15428936D02*
X15447563Y-15419412D01*
X15609468Y-15514650D02*
X15609468Y-15647984D01*
X15561848Y-15438460D02*
X15514229Y-15581317D01*
X15514229Y-15581317D02*
X15638039Y-15581317D01*
X15866610Y-15647984D02*
X15866610Y-15447984D01*
X15952325Y-15647984D02*
X15952325Y-15543222D01*
X15952325Y-15543222D02*
X15942801Y-15524174D01*
X15942801Y-15524174D02*
X15923753Y-15514650D01*
X15923753Y-15514650D02*
X15895182Y-15514650D01*
X15895182Y-15514650D02*
X15876134Y-15524174D01*
X15876134Y-15524174D02*
X15866610Y-15533698D01*
X16076134Y-15647984D02*
X16057087Y-15638460D01*
X16057087Y-15638460D02*
X16047563Y-15628936D01*
X16047563Y-15628936D02*
X16038039Y-15609888D01*
X16038039Y-15609888D02*
X16038039Y-15552746D01*
X16038039Y-15552746D02*
X16047563Y-15533698D01*
X16047563Y-15533698D02*
X16057087Y-15524174D01*
X16057087Y-15524174D02*
X16076134Y-15514650D01*
X16076134Y-15514650D02*
X16104706Y-15514650D01*
X16104706Y-15514650D02*
X16123753Y-15524174D01*
X16123753Y-15524174D02*
X16133277Y-15533698D01*
X16133277Y-15533698D02*
X16142801Y-15552746D01*
X16142801Y-15552746D02*
X16142801Y-15609888D01*
X16142801Y-15609888D02*
X16133277Y-15628936D01*
X16133277Y-15628936D02*
X16123753Y-15638460D01*
X16123753Y-15638460D02*
X16104706Y-15647984D01*
X16104706Y-15647984D02*
X16076134Y-15647984D01*
X16257087Y-15647984D02*
X16238039Y-15638460D01*
X16238039Y-15638460D02*
X16228515Y-15619412D01*
X16228515Y-15619412D02*
X16228515Y-15447984D01*
X16409468Y-15638460D02*
X16390420Y-15647984D01*
X16390420Y-15647984D02*
X16352325Y-15647984D01*
X16352325Y-15647984D02*
X16333277Y-15638460D01*
X16333277Y-15638460D02*
X16323753Y-15619412D01*
X16323753Y-15619412D02*
X16323753Y-15543222D01*
X16323753Y-15543222D02*
X16333277Y-15524174D01*
X16333277Y-15524174D02*
X16352325Y-15514650D01*
X16352325Y-15514650D02*
X16390420Y-15514650D01*
X16390420Y-15514650D02*
X16409468Y-15524174D01*
X16409468Y-15524174D02*
X16418991Y-15543222D01*
X16418991Y-15543222D02*
X16418991Y-15562269D01*
X16418991Y-15562269D02*
X16323753Y-15581317D01*
X16495182Y-15638460D02*
X16514230Y-15647984D01*
X16514230Y-15647984D02*
X16552325Y-15647984D01*
X16552325Y-15647984D02*
X16571372Y-15638460D01*
X16571372Y-15638460D02*
X16580896Y-15619412D01*
X16580896Y-15619412D02*
X16580896Y-15609888D01*
X16580896Y-15609888D02*
X16571372Y-15590841D01*
X16571372Y-15590841D02*
X16552325Y-15581317D01*
X16552325Y-15581317D02*
X16523753Y-15581317D01*
X16523753Y-15581317D02*
X16504706Y-15571793D01*
X16504706Y-15571793D02*
X16495182Y-15552746D01*
X16495182Y-15552746D02*
X16495182Y-15543222D01*
X16495182Y-15543222D02*
X16504706Y-15524174D01*
X16504706Y-15524174D02*
X16523753Y-15514650D01*
X16523753Y-15514650D02*
X16552325Y-15514650D01*
X16552325Y-15514650D02*
X16571372Y-15524174D01*
X16647563Y-15724174D02*
X16657087Y-15714650D01*
X16657087Y-15714650D02*
X16676134Y-15686079D01*
X16676134Y-15686079D02*
X16685658Y-15667031D01*
X16685658Y-15667031D02*
X16695182Y-15638460D01*
X16695182Y-15638460D02*
X16704706Y-15590841D01*
X16704706Y-15590841D02*
X16704706Y-15552746D01*
X16704706Y-15552746D02*
X16695182Y-15505127D01*
X16695182Y-15505127D02*
X16685658Y-15476555D01*
X16685658Y-15476555D02*
X16676134Y-15457508D01*
X16676134Y-15457508D02*
X16657087Y-15428936D01*
X16657087Y-15428936D02*
X16647563Y-15419412D01*
X17009468Y-15724174D02*
X16999944Y-15714650D01*
X16999944Y-15714650D02*
X16980896Y-15686079D01*
X16980896Y-15686079D02*
X16971373Y-15667031D01*
X16971373Y-15667031D02*
X16961849Y-15638460D01*
X16961849Y-15638460D02*
X16952325Y-15590841D01*
X16952325Y-15590841D02*
X16952325Y-15552746D01*
X16952325Y-15552746D02*
X16961849Y-15505127D01*
X16961849Y-15505127D02*
X16971373Y-15476555D01*
X16971373Y-15476555D02*
X16980896Y-15457508D01*
X16980896Y-15457508D02*
X16999944Y-15428936D01*
X16999944Y-15428936D02*
X17009468Y-15419412D01*
X17085658Y-15514650D02*
X17085658Y-15647984D01*
X17085658Y-15533698D02*
X17095182Y-15524174D01*
X17095182Y-15524174D02*
X17114230Y-15514650D01*
X17114230Y-15514650D02*
X17142801Y-15514650D01*
X17142801Y-15514650D02*
X17161849Y-15524174D01*
X17161849Y-15524174D02*
X17171373Y-15543222D01*
X17171373Y-15543222D02*
X17171373Y-15647984D01*
X17295182Y-15647984D02*
X17276134Y-15638460D01*
X17276134Y-15638460D02*
X17266611Y-15628936D01*
X17266611Y-15628936D02*
X17257087Y-15609888D01*
X17257087Y-15609888D02*
X17257087Y-15552746D01*
X17257087Y-15552746D02*
X17266611Y-15533698D01*
X17266611Y-15533698D02*
X17276134Y-15524174D01*
X17276134Y-15524174D02*
X17295182Y-15514650D01*
X17295182Y-15514650D02*
X17323754Y-15514650D01*
X17323754Y-15514650D02*
X17342801Y-15524174D01*
X17342801Y-15524174D02*
X17352325Y-15533698D01*
X17352325Y-15533698D02*
X17361849Y-15552746D01*
X17361849Y-15552746D02*
X17361849Y-15609888D01*
X17361849Y-15609888D02*
X17352325Y-15628936D01*
X17352325Y-15628936D02*
X17342801Y-15638460D01*
X17342801Y-15638460D02*
X17323754Y-15647984D01*
X17323754Y-15647984D02*
X17295182Y-15647984D01*
X17418992Y-15514650D02*
X17495182Y-15514650D01*
X17447563Y-15447984D02*
X17447563Y-15619412D01*
X17447563Y-15619412D02*
X17457087Y-15638460D01*
X17457087Y-15638460D02*
X17476134Y-15647984D01*
X17476134Y-15647984D02*
X17495182Y-15647984D01*
X17714230Y-15514650D02*
X17714230Y-15714650D01*
X17714230Y-15524174D02*
X17733277Y-15514650D01*
X17733277Y-15514650D02*
X17771373Y-15514650D01*
X17771373Y-15514650D02*
X17790420Y-15524174D01*
X17790420Y-15524174D02*
X17799944Y-15533698D01*
X17799944Y-15533698D02*
X17809468Y-15552746D01*
X17809468Y-15552746D02*
X17809468Y-15609888D01*
X17809468Y-15609888D02*
X17799944Y-15628936D01*
X17799944Y-15628936D02*
X17790420Y-15638460D01*
X17790420Y-15638460D02*
X17771373Y-15647984D01*
X17771373Y-15647984D02*
X17733277Y-15647984D01*
X17733277Y-15647984D02*
X17714230Y-15638460D01*
X17923754Y-15647984D02*
X17904706Y-15638460D01*
X17904706Y-15638460D02*
X17895182Y-15619412D01*
X17895182Y-15619412D02*
X17895182Y-15447984D01*
X18085658Y-15647984D02*
X18085658Y-15543222D01*
X18085658Y-15543222D02*
X18076135Y-15524174D01*
X18076135Y-15524174D02*
X18057087Y-15514650D01*
X18057087Y-15514650D02*
X18018992Y-15514650D01*
X18018992Y-15514650D02*
X17999944Y-15524174D01*
X18085658Y-15638460D02*
X18066611Y-15647984D01*
X18066611Y-15647984D02*
X18018992Y-15647984D01*
X18018992Y-15647984D02*
X17999944Y-15638460D01*
X17999944Y-15638460D02*
X17990420Y-15619412D01*
X17990420Y-15619412D02*
X17990420Y-15600365D01*
X17990420Y-15600365D02*
X17999944Y-15581317D01*
X17999944Y-15581317D02*
X18018992Y-15571793D01*
X18018992Y-15571793D02*
X18066611Y-15571793D01*
X18066611Y-15571793D02*
X18085658Y-15562269D01*
X18152325Y-15514650D02*
X18228515Y-15514650D01*
X18180896Y-15447984D02*
X18180896Y-15619412D01*
X18180896Y-15619412D02*
X18190420Y-15638460D01*
X18190420Y-15638460D02*
X18209468Y-15647984D01*
X18209468Y-15647984D02*
X18228515Y-15647984D01*
X18371373Y-15638460D02*
X18352325Y-15647984D01*
X18352325Y-15647984D02*
X18314230Y-15647984D01*
X18314230Y-15647984D02*
X18295182Y-15638460D01*
X18295182Y-15638460D02*
X18285658Y-15619412D01*
X18285658Y-15619412D02*
X18285658Y-15543222D01*
X18285658Y-15543222D02*
X18295182Y-15524174D01*
X18295182Y-15524174D02*
X18314230Y-15514650D01*
X18314230Y-15514650D02*
X18352325Y-15514650D01*
X18352325Y-15514650D02*
X18371373Y-15524174D01*
X18371373Y-15524174D02*
X18380896Y-15543222D01*
X18380896Y-15543222D02*
X18380896Y-15562269D01*
X18380896Y-15562269D02*
X18285658Y-15581317D01*
X18552325Y-15647984D02*
X18552325Y-15447984D01*
X18552325Y-15638460D02*
X18533277Y-15647984D01*
X18533277Y-15647984D02*
X18495182Y-15647984D01*
X18495182Y-15647984D02*
X18476135Y-15638460D01*
X18476135Y-15638460D02*
X18466611Y-15628936D01*
X18466611Y-15628936D02*
X18457087Y-15609888D01*
X18457087Y-15609888D02*
X18457087Y-15552746D01*
X18457087Y-15552746D02*
X18466611Y-15533698D01*
X18466611Y-15533698D02*
X18476135Y-15524174D01*
X18476135Y-15524174D02*
X18495182Y-15514650D01*
X18495182Y-15514650D02*
X18533277Y-15514650D01*
X18533277Y-15514650D02*
X18552325Y-15524174D01*
X18628516Y-15724174D02*
X18638039Y-15714650D01*
X18638039Y-15714650D02*
X18657087Y-15686079D01*
X18657087Y-15686079D02*
X18666611Y-15667031D01*
X18666611Y-15667031D02*
X18676135Y-15638460D01*
X18676135Y-15638460D02*
X18685658Y-15590841D01*
X18685658Y-15590841D02*
X18685658Y-15552746D01*
X18685658Y-15552746D02*
X18676135Y-15505127D01*
X18676135Y-15505127D02*
X18666611Y-15476555D01*
X18666611Y-15476555D02*
X18657087Y-15457508D01*
X18657087Y-15457508D02*
X18638039Y-15428936D01*
X18638039Y-15428936D02*
X18628516Y-15419412D01*
M02*
